<?xml version="1.0" encoding="utf-8"?>
<!-- Generator: Adobe Illustrator 21.0.2, SVG Export Plug-In . SVG Version: 6.00 Build 0)  -->
<svg version="1.1" id="English" xmlns="http://www.w3.org/2000/svg" xmlns:xlink="http://www.w3.org/1999/xlink" x="0px" y="0px"
	 width="981.6px" height="985.5px" viewBox="0 0 981.6 985.5" style="enable-background:new 0 0 981.6 985.5;" xml:space="preserve"
	>

<style type="text/css">
	.st0{fill:#5FBA47;}
	.st1{fill:#E4B632;}
	.st2{fill:#C4202F;}
	.st3{fill:#4B9F46;}
	.st4{fill:#418045;}
	.st5{fill:#F8C219;}
	.st6{fill:#EE422A;}
	.st7{fill:#F99E29;}
	.st8{fill:#1D95D3;}
	.st9{fill:#A21C44;}
	.st10{fill:#29BCE1;}
	.st11{fill:#F16B2D;}
	.st12{fill:#E6253D;}
	.st13{fill:#DC1769;}
	.st14{fill:#16496B;}
	.st15{fill:#C5962E;}
	.st16{fill:#086A9D;}
</style>
<g>
	<title>SDG Logo</title>
	<path class="st0" d="M253.5,355c11.6-19.4,27.1-38.8,42.7-58.2L152.7,141.7c-34.9,34.9-65.9,73.7-89.2,116.3L253.5,355z"/>
	<path class="st1" d="M606.4,242.5c23.3,11.6,42.7,23.3,58.2,38.8L808,126.2C769.2,91.3,726.6,68,680,44.8L606.4,242.5z"/>
	<path class="st2" d="M935.9,292.9l-190,93.1c7.8,23.3,15.5,42.7,19.4,65.9l213.3-19.4C970.8,386,955.3,335.6,935.9,292.9"/>
	<path class="st3" d="M730.4,358.9l190-96.9c-23.3-42.7-54.3-85.3-89.2-116.3L687.8,300.7C703.3,320.1,718.8,339.5,730.4,358.9"/>
	<path class="st4" d="M214.7,494.6v-11.6L5.3,463.6v31c0,38.8,3.9,77.6,15.5,116.3l205.5-58.2C218.6,533.3,218.6,514,214.7,494.6"/>
	<path class="st5" d="M703.3,669.1c-15.5,19.4-31,34.9-50.4,50.4l112.4,182.2c42.7-27.1,77.6-62,108.6-100.8L703.3,669.1z"/>
	<path class="st6" d="M765.3,494.6c0,19.4-3.9,38.8-7.8,58.2l205.5,58.2c7.8-38.8,15.5-77.6,15.5-116.3v-31l-209.4,23.3L765.3,494.6
		"/>
	<path class="st7" d="M284.5,672.9l-170.6,128c31,38.8,69.8,73.7,108.6,100.8l112.4-182.2C315.5,707.8,300,692.3,284.5,672.9"/>
	<path class="st8" d="M218.6,451.9c3.9-23.3,11.6-46.5,19.4-69.8L51.9,289.1C32.5,335.6,17,382.1,9.2,432.5L218.6,451.9z"/>
	<path class="st9" d="M738.2,917.2L625.7,735c-19.4,11.6-42.7,19.4-65.9,27.1l42.7,209.4C649,959.9,695.5,940.5,738.2,917.2"/>
	<path class="st10" d="M753.7,583.8c-7.8,23.3-15.5,42.7-31,62l170.6,128c27.1-38.8,50.4-85.3,65.9-131.8L753.7,583.8z"/>
	<path class="st11" d="M532.7,766c-23.3,3.9-46.5,3.9-69.8,0l-42.7,209.4c50.4,7.8,100.8,7.8,151.2,0L532.7,766z"/>
	<path class="st12" d="M509.4,219.3c23.3,0,46.5,7.8,69.8,11.6L652.9,37C606.4,21.5,555.9,9.9,509.4,9.9V219.3L509.4,219.3z"/>
	<path class="st13" d="M428,762.1c-23.3-3.9-46.5-15.5-69.8-27.1L245.7,917.2c42.7,23.3,89.2,42.7,139.6,54.3L428,762.1z"/>
	<path class="st14" d="M408.6,230.9c23.3-7.8,46.5-11.6,69.8-11.6V6C428,6,377.6,17.6,331.1,33.1L408.6,230.9z"/>
	<path class="st15" d="M265.1,649.7c-15.5-19.4-27.1-42.7-34.9-65.9L24.7,641.9c15.5,46.5,38.8,93.1,69.8,131.8L265.1,649.7z"/>
	<path class="st16" d="M323.3,277.4c19.4-15.5,38.8-27.1,58.2-34.9L303.9,44.8c-46.5,19.4-89.2,46.5-124.1,77.6L323.3,277.4z"/>
</g>
</svg>
