<svg id="Layer_1" xmlns="http://www.w3.org/2000/svg" xmlns:xlink="http://www.w3.org/1999/xlink" viewBox="0 0 111.25 111.25"><defs><style>.cls-1{fill:none;}.cls-2{fill:#37468e;}.cls-3{fill:#fff;}.cls-4{clip-path:url(#clip-path);}</style><clipPath id="clip-path"><rect class="cls-1" x="19.16" y="24.97" width="72.93" height="61.32"/></clipPath></defs><title>ILO-logo</title><rect class="cls-2" width="111.25" height="111.25"/><path class="cls-3" d="M36.2,41.19c-0.3.52-.42,0.75-0.42,0.75a1.06,1.06,0,0,1-1.29.5l-0.88-.33a0.94,0.94,0,0,0-1.21.54L31.74,44.4a0.94,0.94,0,0,0,.54,1.21l0.88,0.33a1.09,1.09,0,0,1,.65,1.24l-0.38,1.91a1.09,1.09,0,0,1-1.08.89l-0.94,0a0.94,0.94,0,0,0-1,.9l-0.06,1.87a0.94,0.94,0,0,0,.9,1l0.94,0a1.09,1.09,0,0,1,1,1l0.26,1.92a1.09,1.09,0,0,1-.73,1.19l-0.91.28a0.94,0.94,0,0,0-.62,1.17l0.82,2.68,5-1.56a20.4,20.4,0,0,1,16.15-28l-1.17-5.15-2.73.63a0.94,0.94,0,0,0-.7,1.12l0.21,0.93a1.09,1.09,0,0,1-.67,1.23l-1.8.74a1.09,1.09,0,0,1-1.34-.4l-0.5-.8a0.94,0.94,0,0,0-1.29-.3l-1.59,1a0.94,0.94,0,0,0-.3,1.29l0.5,0.8a1.09,1.09,0,0,1-.23,1.38l-1.46,1.29a1.09,1.09,0,0,1-1.4.06l-0.73-.59a0.94,0.94,0,0,0-1.32.13l-1.18,1.45a0.94,0.94,0,0,0,.13,1.31l0.73,0.59a1.06,1.06,0,0,1,.21,1.37s-0.14.2-.44,0.73h0Z"/><path class="cls-3" d="M55.66,74.92c0.6,0,.86,0,0.86,0a1.06,1.06,0,0,1,1.08.87l0.15,0.92a0.94,0.94,0,0,0,1.07.77l1.84-.3a0.94,0.94,0,0,0,.77-1.07l-0.15-.92A1.09,1.09,0,0,1,62,74l1.84-.62a1.09,1.09,0,0,1,1.31.49l0.44,0.83a0.94,0.94,0,0,0,1.27.38l1.65-.88a0.94,0.94,0,0,0,.38-1.26l-0.44-.83a1.09,1.09,0,0,1,.32-1.36l1.54-1.19a1.09,1.09,0,0,1,1.4,0l0.7,0.65a0.94,0.94,0,0,0,1.32,0l1.91-2.05-3.87-3.59a20.4,20.4,0,0,1-32.29,0l-3.87,3.59,1.91,2.05a0.94,0.94,0,0,0,1.32,0l0.7-.65a1.09,1.09,0,0,1,1.4,0l1.54,1.19a1.09,1.09,0,0,1,.32,1.36l-0.44.83a0.94,0.94,0,0,0,.38,1.26l1.65,0.88a0.94,0.94,0,0,0,1.26-.38l0.44-.83a1.09,1.09,0,0,1,1.31-.49L49.29,74A1.09,1.09,0,0,1,50,75.17l-0.15.92a0.94,0.94,0,0,0,.77,1.07l1.84,0.3a0.94,0.94,0,0,0,1.07-.77l0.15-.93a1.06,1.06,0,0,1,1.08-.87s0.25,0,.85,0h0Z"/><path class="cls-3" d="M75.14,41.2c-0.3-.52-0.44-0.74-0.44-0.74a1.06,1.06,0,0,1,.21-1.37l0.73-.59a0.94,0.94,0,0,0,.13-1.32l-1.18-1.45a0.94,0.94,0,0,0-1.32-.13l-0.73.59a1.09,1.09,0,0,1-1.4-.06l-1.46-1.29a1.09,1.09,0,0,1-.23-1.38l0.5-.8a0.94,0.94,0,0,0-.3-1.29l-1.59-1a0.94,0.94,0,0,0-1.29.3l-0.5.8a1.09,1.09,0,0,1-1.34.4l-1.8-.74a1.09,1.09,0,0,1-.67-1.23L62.68,29a0.94,0.94,0,0,0-.7-1.12l-2.73-.63L58.08,32.4a20.4,20.4,0,0,1,16.14,28l5,1.56,0.82-2.68a0.94,0.94,0,0,0-.62-1.17l-0.91-.28a1.09,1.09,0,0,1-.73-1.19l0.26-1.92a1.09,1.09,0,0,1,1-1l0.94,0a0.94,0.94,0,0,0,.9-1l-0.06-1.87a0.94,0.94,0,0,0-1-.9L79,50a1.09,1.09,0,0,1-1.08-.89l-0.38-1.91a1.09,1.09,0,0,1,.65-1.24L79,45.61a0.94,0.94,0,0,0,.54-1.21l-0.66-1.75a0.94,0.94,0,0,0-1.21-.54l-0.88.33a1.06,1.06,0,0,1-1.29-.5s-0.11-.22-0.41-0.74h0Z"/><path class="cls-3" d="M26.45,40.76l0,0,0,0h0Z"/><path class="cls-3" d="M34.49,30.17l0.07,0.09a6.47,6.47,0,0,1,1.9-1c5.08-1.43,4.83-3.19,7-4.23L43.37,25a3.5,3.5,0,0,1-1.79.53c-6,.08-5.51,3.55-7.09,4.68h0Z"/><path class="cls-3" d="M28.56,36.79l0.11,0.07a5.13,5.13,0,0,1,2.57-1.65c4.73-1.4,6.38-4.53,7.66-5.42l0-.07c-1.75,1.24-3.83,0-7.37,3.77a0.3,0.3,0,0,1-.12-0.11c2.87-3.47,2.95-5.83,4.28-7.12l-0.07-.06c-8.38,5-4.7,7.73-7,10.6h0Z"/><g class="cls-4"><path class="cls-3" d="M28.91,31c-7.9,7.83-3,9.83-4.22,13.73l0.08,0a5.11,5.11,0,0,1,2.59-2.4c3.35-1.54,4.4-5.44,5.74-6.63L33,35.67c-1.63,1.78-4.33.78-6.52,5.17a0.43,0.43,0,0,1-.15-0.07c1.77-3.83.94-7.29,2.63-9.67L28.91,31h0Z"/><path class="cls-3" d="M23.17,55.11h0.12a4.89,4.89,0,0,1,1.71-4c3.75-3.47,3.12-6.56,4.65-8.95l-0.12-.06c-1.2,2-5.56,4.26-5.75,7.39a0.64,0.64,0,0,1-.17,0C24.26,45,21.89,42,23.18,39.12l-0.11-.06c-5,10.31-.85,10.16.1,16.06h0Z"/><path class="cls-3" d="M25.1,64.91l0.12,0c-1-2.33.7-5.51,0.78-5.66,2.28-4.42,1.52-8.42,2-9.81l-0.11,0c-1.22,3-4.6,4.68-4.07,9.78a0.48,0.48,0,0,1-.17,0c-0.53-3.16-4.12-6.2-4-9.65H19.63C17.4,61.75,23.77,61.66,25.1,64.91h0Z"/></g><path class="cls-3" d="M30.2,74l0.08-.07a6.8,6.8,0,0,1-1.44-5.6c1.06-6.12-.92-7.22-1-10h-0.1c-0.09,3.1-3.26,6.58-.38,10.91l-0.14.09c-3.17-4.63-5.69-3.5-7.17-8.1h0a0.31,0.31,0,0,0-.13,0C22.18,74.75,28.18,70.67,30.2,74h0Z"/><path class="cls-3" d="M42.58,79.87l0-.12c-4.18.84-6.31,0-7.07-3.81-1.06-5.39-4.73-7.47-5.16-9.63h0l-0.1,0h0C31,70.13,29.15,72.4,33.74,77l-0.12.11c-4.42-3.51-7.46-2.21-9.21-4.65l-0.07.08c5.48,9.1,11.35,9.59,18.26,7.37h0Z"/><path class="cls-3" d="M32.26,81.44l0,0c5.62,3.28,11.5-1.29,18.61-1.45,1.79,0,7.13.28,12,6l-1.3.37a11.28,11.28,0,0,0-6.38-5.41c-6.48-1.62-6.6,4.42-13.79,4.51a13.43,13.43,0,0,1-9.2-3.95h0Z"/><path class="cls-3" d="M84.8,40.76l0,0,0,0h0Z"/><path class="cls-3" d="M84.8,40.76l0,0,0,0h0Z"/><path class="cls-3" d="M26.45,40.76l0,0,0,0h0Z"/><path class="cls-3" d="M84.8,40.76l0,0,0,0h0Z"/><path class="cls-3" d="M76.76,30.17l-0.07.09a6.48,6.48,0,0,0-1.9-1c-5.08-1.43-4.83-3.19-7-4.23L67.88,25a3.49,3.49,0,0,0,1.79.53c6,0.08,5.51,3.55,7.09,4.68h0Z"/><path class="cls-3" d="M82.69,36.79l-0.11.07A5.13,5.13,0,0,0,80,35.21c-4.73-1.4-6.38-4.53-7.66-5.42l0-.07c1.75,1.24,3.83,0,7.37,3.77a0.3,0.3,0,0,0,.12-0.11c-2.87-3.47-2.95-5.83-4.28-7.12l0.07-.06c8.38,5,4.7,7.73,7,10.6h0Z"/><g class="cls-4"><path class="cls-3" d="M82.34,31c7.9,7.83,3,9.83,4.22,13.73l-0.08,0a5.11,5.11,0,0,0-2.59-2.4c-3.35-1.54-4.4-5.44-5.74-6.63l0.07-.06c1.63,1.78,4.33.78,6.52,5.17a0.42,0.42,0,0,0,.15-0.07c-1.77-3.83-.94-7.29-2.63-9.67l0.08-.1h0Z"/><path class="cls-3" d="M88.08,55.11H88a4.9,4.9,0,0,0-1.71-4c-3.75-3.47-3.11-6.56-4.65-8.95l0.12-.06c1.2,2,5.56,4.26,5.75,7.39a0.64,0.64,0,0,0,.17,0C87,45,89.36,42,88.07,39.12l0.12-.06c5,10.31.85,10.16-.1,16.06h0Z"/><path class="cls-3" d="M86.15,64.91l-0.12,0c1-2.33-.7-5.51-0.77-5.66-2.28-4.42-1.52-8.42-2-9.81l0.11,0c1.22,3,4.6,4.68,4.07,9.78a0.48,0.48,0,0,0,.16,0c0.53-3.16,4.12-6.2,4-9.65h0.06c2.23,12.26-4.14,12.18-5.47,15.43h0Z"/></g><path class="cls-3" d="M81,74L81,73.92a6.8,6.8,0,0,0,1.44-5.6c-1.06-6.12.92-7.22,1-10h0.1c0.09,3.1,3.26,6.58.38,10.91L84,69.33c3.17-4.63,5.69-3.5,7.17-8.1h0a0.31,0.31,0,0,1,.13,0C89.07,74.75,83.07,70.67,81,74h0Z"/><path class="cls-3" d="M68.67,79.87l0-.12c4.18,0.84,6.31,0,7.07-3.81,1.06-5.39,4.73-7.47,5.16-9.63h0l0.1,0h0C80.25,70.13,82.1,72.4,77.51,77l0.12,0.11c4.42-3.51,7.46-2.21,9.21-4.65l0.07,0.08c-5.48,9.1-11.35,9.59-18.26,7.37h0Z"/><path class="cls-3" d="M79,81.44l0,0c-5.62,3.28-11.5-1.29-18.61-1.45-1.79,0-7.12.28-12,6l1.3,0.37A11.28,11.28,0,0,1,56,80.87c6.47-1.62,6.6,4.42,13.79,4.51A13.43,13.43,0,0,0,79,81.44h0Z"/><path class="cls-3" d="M26.45,40.76l0,0,0,0h0Z"/><path class="cls-3" d="M26.45,40.76l0,0,0,0h0Z"/><path class="cls-3" d="M84.8,40.76l0,0,0,0h0Z"/><path class="cls-3" d="M68.41,50.65c0,1.69,0,3.14,0,3.14a7.88,7.88,0,0,1-.77,3.7,3.67,3.67,0,0,1-3,1.63l0,0H64.36l0,0a3.68,3.68,0,0,1-3-1.63,7.9,7.9,0,0,1-.77-3.7s0-1.44,0-3.11V50.6c0-1.69,0-3.14,0-3.14a7.88,7.88,0,0,1,.77-3.7,3.67,3.67,0,0,1,3-1.63h0.24a3.67,3.67,0,0,1,3,1.63,7.87,7.87,0,0,1,.77,3.7s0,1.44,0,3.11v0.08h0Zm-4-9.71h-0.1a7.19,7.19,0,0,0-6.41,4.51,13,13,0,0,0-.79,5.09,13,13,0,0,0,.79,5.09c1.25,2.82,3.78,4.74,6.41,4.74h0.1c2.63,0,5.15-1.93,6.41-4.74a13.06,13.06,0,0,0,.79-5.09,13.07,13.07,0,0,0-.79-5.09,7.18,7.18,0,0,0-6.41-4.51h0Z"/><path class="cls-3" d="M66.34,61.17a6.17,6.17,0,0,1-1.47,2.16,3.59,3.59,0,0,1-1.92.64l-6.46.32H55.05a1.19,1.19,0,0,1-1.14-1.07V40.58a1.19,1.19,0,0,1,1.14-1.07h1.43V38.19H47.84v1.32h1.43a1.19,1.19,0,0,1,1.14,1.07V63.22a1.19,1.19,0,0,1-1.14,1.07H47.84v1.32h8.64l9.36,0L67,61.47V61.32l-0.65-.15h0Z"/><path class="cls-3" d="M46,43.42a1,1,0,0,1,1-.89h1.19v-1.1H41v1.1h1.19a1,1,0,0,1,1,.89V57.9a1,1,0,0,1-1,.89H41v1.1h7.21v-1.1H47a1,1,0,0,1-1-.89V43.42h0Z"/></svg>
