<svg id="English"
	xmlns="http://www.w3.org/2000/svg" viewBox="0 0 111.83 111.66">
	<title>Sustainable Development Goals</title>
	<rect class="sdg0-1" x="-1.16" y="-3.33" width="117.02" height="119.16"/>
	<path class="sdg0-2" d="M6.62,59.53H10.2c3.22,0,5.3,2.22,5.3,5.48v.14c0,3.25-2.08,5.49-5.3,5.49H6.62Zm2.3,2.08v7h1.27c1.75,0,2.94-1.22,2.94-3.43V65c0-2.21-1.19-3.44-2.94-3.44Z"/>
	<path class="sdg0-2" d="M16.72,59.53h7.16V61.6H19V64H23.3v2.08H19v2.48h4.94v2.08H16.72Z"/>
	<path class="sdg0-2" d="M24.33,59.53h2.49l2.35,7.65,2.35-7.65h2.43L30.2,70.7H28.07Z"/>
	<path class="sdg0-2" d="M34.74,59.53h7.16V61.6H37V64h4.29v2.08H37v2.48H42v2.08H34.74Z"/>
	<path class="sdg0-2" d="M43.18,59.53h2.3v9H50v2.11H43.18Z"/>
	<path class="sdg0-2" d="M50,65.19V65c0-3.33,2.1-5.67,5-5.67s5,2.32,5,5.63v.19c0,3.32-2.09,5.67-5,5.67S50,68.51,50,65.19Zm7.67,0V65c0-2.19-1.11-3.57-2.65-3.57S52.32,62.83,52.32,65v.11c0,2.19,1.13,3.57,2.67,3.57S57.62,67.33,57.62,65.14Z"/>
	<path class="sdg0-2" d="M61.24,59.53h3.7C67.43,59.53,69,61,69,63.33v0c0,2.56-1.83,3.84-4.16,3.89h-1.3v3.38h-2.3Zm3.59,5.67a1.7,1.7,0,0,0,1.86-1.78v0a1.66,1.66,0,0,0-1.89-1.79H63.54v3.59Z"/>
	<path class="sdg0-2" d="M69.92,59.53h2.41L74.81,64l2.44-4.51h2.43V70.63H77.43V63.54l-2.62,4.59h0l-2.6-4.55v7.06H69.92Z"/>
	<path class="sdg0-2" d="M81.31,59.53h7.16V61.6H83.6V64h4.29v2.08H83.6v2.48h4.94v2.08H81.31Z"/>
	<path class="sdg0-2" d="M89.75,59.53h2.11L96.12,66V59.53h2.25V70.63h-2L92,63.92v6.71H89.75Z"/>
	<path class="sdg0-2" d="M102.13,61.65H99.34V59.53h7.87v2.13h-2.79v9h-2.29Z"/>
	<path class="sdg0-2" d="M5.81,54.29l1.5-1.86a4.68,4.68,0,0,0,3,1.38c1,0,1.57-.49,1.57-1.2v0c0-.61-.35-1-2.09-1.65-2.16-.84-3.5-1.65-3.5-3.74v0c0-2.12,1.64-3.57,4-3.57a5.8,5.8,0,0,1,3.93,1.5L12.82,47a4.26,4.26,0,0,0-2.59-1.13c-.87,0-1.41.44-1.41,1.06v0c0,.7.42,1,2.31,1.81,2.12.84,3.27,1.74,3.27,3.64v0c0,2.26-1.72,3.66-4.09,3.66A6.54,6.54,0,0,1,5.81,54.29Z"/>
	<path class="sdg0-2" d="M15.47,51.19V43.74H18v7.47c0,1.72.82,2.58,2.12,2.58s2.12-.84,2.12-2.52V43.74h2.51v7.4c0,3.36-1.85,5-4.66,5S15.47,54.48,15.47,51.19Z"/>
	<path class="sdg0-2" d="M25.49,54.29,27,52.42a4.68,4.68,0,0,0,3,1.38c1,0,1.57-.49,1.57-1.2v0c0-.61-.35-1-2.09-1.65-2.16-.84-3.5-1.65-3.5-3.74v0c0-2.12,1.64-3.57,4-3.57a5.79,5.79,0,0,1,3.93,1.5L32.5,47a4.26,4.26,0,0,0-2.59-1.13c-.87,0-1.41.44-1.41,1.06v0c0,.7.42,1,2.31,1.81,2.12.84,3.27,1.74,3.27,3.64v0c0,2.26-1.72,3.66-4.09,3.66A6.54,6.54,0,0,1,25.49,54.29Z"/>
	<path class="sdg0-2" d="M37.38,46.07H34.31V43.74h8.63v2.33H39.88v9.85H37.38Z"/>
	<path class="sdg0-2" d="M46.2,43.67h2.4L53,55.92H50.36l-.9-2.65H45.26l-.89,2.65H41.83ZM48.69,51l-1.32-4L46,51Z"/>
	<path class="sdg0-2" d="M53.93,43.74h2.52V55.92H53.93Z"/>
	<path class="sdg0-2" d="M58.33,43.74h2.31l4.66,7.1v-7.1h2.47V55.92H65.62L60.8,48.56v7.36H58.33Z"/>
	<path class="sdg0-2" d="M73,43.67h2.4l4.37,12.25H77.18l-.9-2.65H72.08l-.89,2.65H68.65ZM75.51,51l-1.32-4-1.34,4Z"/>
	<path class="sdg0-2" d="M80.66,43.74h4.53a4.45,4.45,0,0,1,3.18,1.06,2.82,2.82,0,0,1,.82,2.07v.05a2.85,2.85,0,0,1-1.65,2.66,2.9,2.9,0,0,1,2.18,2.91v.09c0,2.19-1.76,3.34-4.4,3.34H80.66Zm6,3.59c0-.89-.63-1.36-1.71-1.36H83.11v2.75h1.76c1.11,0,1.83-.45,1.83-1.38Zm-1.37,3.52H83.11v2.85h2.26c1.13,0,1.85-.49,1.85-1.43v0C87.22,51.38,86.58,50.84,85.32,50.84Z"/>
	<path class="sdg0-2" d="M90.89,43.74h2.52v9.87h4.93v2.31H90.89Z"/>
	<path class="sdg0-2" d="M99.39,43.74h7.85V46h-5.34v2.63h4.7v2.28h-4.7v2.72h5.41v2.28H99.39Z"/>
	<path class="sdg0-3" d="M16.81,84.81H27.94c-.19,8.94-5.13,13.43-11.77,13.43-7.15,0-11.73-6-11.73-12.5S9,73.24,16.17,73.24c7.92,0,10.1,4.94,11,7.5l-5,.32c-.87-2.12-2.6-3.53-6-3.53-3.78,0-6.73,3.08-6.73,8.21,0,4.33,2.72,8.21,7.05,8.21a6,6,0,0,0,6.09-5H16.81Z"/>
	<path class="sdg0-3" d="M67.68,92.76H58.87l-1.57,5H52.1l8.78-24.11H66L74.61,97.8H69.32ZM62.83,79.49h-.06l-3,9.36H65.9Z"/>
	<path class="sdg0-3" d="M75.47,73.76h4.8V93.32h9.24V97.8h-14Z"/>
	<path class="sdg0-3" d="M103,80.09c0-1.66-1.6-2.69-3.52-2.69-2.4,0-3.84,1.05-3.84,2.65s1.6,2.46,2.78,2.85l4.41,1.41c3.2,1,5.47,2.88,5.47,6.59,0,2.94-2.11,7.35-8.76,7.35-8.35,0-9.11-5.4-9.11-7.55l4.8-.1c0,2.56,2,3.55,4.35,3.55,1.63,0,3.93-.8,3.93-2.65,0-1.28-.54-2-2.91-2.81L95.33,86.8a6.52,6.52,0,0,1-4.51-6c0-3.07,2.11-7.48,8.35-7.48,7.42,0,8.6,4.92,8.6,6.68Z"/>
	<path class="sdg0-4" d="M35.61,82.79a6.74,6.74,0,0,1,1.06-1.37L33.18,77.6A11.94,11.94,0,0,0,31,80.48Z"/>
	<path class="sdg0-5" d="M44.15,80.09a6.65,6.65,0,0,1,1.46.92l3.5-3.82A11.91,11.91,0,0,0,46,75.25Z"/>
	<path class="sdg0-6" d="M52.16,81.24l-4.64,2.31A6.63,6.63,0,0,1,48,85.18l5.16-.49a11.76,11.76,0,0,0-1-3.46"/>
	<path class="sdg0-7" d="M47.2,82.88l4.63-2.31a11.92,11.92,0,0,0-2.17-2.88l-3.5,3.82a6.71,6.71,0,0,1,1,1.37"/>
	<path class="sdg0-8" d="M34.68,86.17c0-.1,0-.21,0-.31l-5.16-.46c0,.26,0,.51,0,.77A11.89,11.89,0,0,0,29.86,89l5-1.43a6.7,6.7,0,0,1-.16-1.44"/>
	<path class="sdg0-9" d="M46.55,90.41a6.77,6.77,0,0,1-1.26,1.18L48,96a12,12,0,0,0,2.67-2.48Z"/>
	<path class="sdg0-10" d="M48.06,86.17a6.61,6.61,0,0,1-.15,1.42l5,1.43a11.83,11.83,0,0,0,.35-2.85q0-.37,0-.73l-5.16.49c0,.08,0,.16,0,.24"/>
	<path class="sdg0-11" d="M36.29,90.51l-4.12,3.13a12,12,0,0,0,2.69,2.44l2.72-4.4a6.76,6.76,0,0,1-1.29-1.17"/>
	<path class="sdg0-12" d="M34.77,85.11a6.61,6.61,0,0,1,.49-1.66l-4.63-2.31a11.79,11.79,0,0,0-1,3.51Z"/>
	<path class="sdg0-13" d="M47.38,96.4,44.66,92a6.66,6.66,0,0,1-1.59.64l1,5.09a11.78,11.78,0,0,0,3.35-1.34"/>
	<path class="sdg0-14" d="M47.71,88.32A6.69,6.69,0,0,1,47,89.81l4.14,3.12a11.82,11.82,0,0,0,1.57-3.18Z"/>
	<path class="sdg0-15" d="M42.34,92.79a6.63,6.63,0,0,1-1.74,0l-1,5.09a11.92,11.92,0,0,0,3.66,0Z"/>
	<path class="sdg0-16" d="M41.8,79.49a6.63,6.63,0,0,1,1.66.32L45.32,75a11.79,11.79,0,0,0-3.52-.67Z"/>
	<path class="sdg0-17" d="M39.86,92.69a6.64,6.64,0,0,1-1.64-.62l-2.72,4.41a11.82,11.82,0,0,0,3.41,1.3Z"/>
	<path class="sdg0-18" d="M39.36,79.79a6.63,6.63,0,0,1,1.69-.3V74.31a11.81,11.81,0,0,0-3.56.65Z"/>
	<path class="sdg0-19" d="M35.83,89.91A6.65,6.65,0,0,1,35,88.33l-5,1.43A11.82,11.82,0,0,0,31.71,93Z"/>
	<path class="sdg0-20" d="M37.23,80.92a6.7,6.7,0,0,1,1.43-.87l-1.87-4.83a11.87,11.87,0,0,0-3.05,1.87Z"/>
	<path class="sdg0-3" d="M64.82,22.42a9.39,9.39,0,0,1,.62,6.66,9.56,9.56,0,0,1-14.51,5.38A9.55,9.55,0,0,1,52,18a10,10,0,0,1,4.31-1A9.52,9.52,0,0,1,64.82,22.42Zm-8.34-4.94a6.64,6.64,0,0,1,0,1.31.2.2,0,0,1,0-.11c.07,0,.12,0,.15.07s0,.18,0,.22.09,0,.14,0a7.07,7.07,0,0,1,3,.91v0c.18-.09.42-.21.61,0,.23-.09.27.19.45.23a1,1,0,0,1,.5.64c0,.09.18.15.19.24a3.64,3.64,0,0,1,.72-.83l.16-.07a8.83,8.83,0,0,0-5-2.38A7.34,7.34,0,0,1,56.48,17.48Zm-.53,0a9.21,9.21,0,0,0-5.09,1.8c-.29.2-.54.5-.84.67h0a8.09,8.09,0,0,1,1,1l0-.07a7.51,7.51,0,0,1,4.84-2l0-.11V17.66Zm1.62.72-.68.29c-.06,0-.17-.05-.2,0s0,.06,0,.08c.25.32.69.14,1,.08a.6.6,0,0,0,.62-.16v0A1,1,0,0,0,57.57,18.24Zm-1.1,1.17,0,.09c0,.44,0,.91,0,1.32a1.5,1.5,0,0,1,.54,0,5.55,5.55,0,0,1,2.55,1,.68.68,0,0,1-.22-.34.05.05,0,0,1,.06,0c0-.15-.15-.22-.17-.36a.1.1,0,0,1,.1,0,3.06,3.06,0,0,1,.42.49c.1,0,.19,0,.27.08s.05.26.16.35c0,.28.36.44.34.71,0,.07.09,0,.11,0l.28.35a.14.14,0,0,0,0,.19c.13.06.2-.1.33-.08s0,.23,0,.34.16-.06.22,0-.09.17-.13.24.09.08.16.1a.13.13,0,0,1,.11.17c.24.25-.07.51,0,.77a.45.45,0,0,1-.12.46c0,.21-.18.34-.26.51l-.24,0c-.13.13.11.28,0,.36h.53l-.06-.06a.78.78,0,0,1,.07-.67,1.52,1.52,0,0,1,.25-.52S62,25,62,25a1,1,0,0,1-.08.49,1.45,1.45,0,0,1,.15.77c.47,0,.93,0,1.39,0l0-.09a6.8,6.8,0,0,0-.62-2.45c-.1,0-.17.09-.28.06a.09.09,0,0,1-.06-.09,6.7,6.7,0,0,0-.52-.58c-.24,0-.35-.26-.57-.28s-.06-.39-.34-.31a.46.46,0,0,1-.3-.32.78.78,0,0,0-.27-.67c-.17-.06-.24.17-.41.13s-.05-.17-.08-.25-.11-.12-.1-.22c.22-.29-.27-.29-.16-.58s-.24-.29-.35-.45a7.68,7.68,0,0,0-2.3-.66A1.59,1.59,0,0,1,56.47,19.41Zm4.28,0c-.1.09-.18-.09-.27,0a.19.19,0,0,0,0,.14c.2.07.22.36.48.29.08-.09,0-.18,0-.28A.28.28,0,0,0,60.75,19.42Zm-8.5,1.27c-.29.2-.56.47-.87.65a7.6,7.6,0,0,1,1,.89l0,.09a5.68,5.68,0,0,1,2.84-1.44,2.51,2.51,0,0,1,.75-.06,9.35,9.35,0,0,1,0-1.36A7.28,7.28,0,0,0,52.26,20.69Zm10.52-.43a10.92,10.92,0,0,1-.94,1l-.16,0c.1,0,.13.14.19.21.35.18.44.55.74.76s.56.63.58,1a7.51,7.51,0,0,1,.72,2.94l0,.06a.2.2,0,0,0,.11,0l1.36,0c-.09-.13-.05-.33-.08-.49A9.36,9.36,0,0,0,62.78,20.26Zm-13,0a9.31,9.31,0,0,0-2.42,5.17c-.05.28,0,.58-.08.87a9.45,9.45,0,0,1,1.46,0l0-.18a7.7,7.7,0,0,1,1.42-4.06,3.9,3.9,0,0,1,.63-.72c-.31-.29-.63-.62-1-.94Zm6.23,1-.08,0a5.53,5.53,0,0,0-3.16,1.34,12.69,12.69,0,0,1,1,.94l.07-.1a4.34,4.34,0,0,1,1.44-.75,2.15,2.15,0,0,1,.71-.08A6.26,6.26,0,0,1,56,21.28Zm.5,0,0,.1v1.28l.12,0a4.16,4.16,0,0,1,2.13.87l0,.1c.21-.3.53-.55.79-.84l.24-.14-.11,0a5.52,5.52,0,0,0-1.7-1A8.38,8.38,0,0,0,56.48,21.29ZM51,21.65v.09l-.51.65a7.55,7.55,0,0,0-1.35,3.93l1.3,0,.12,0c-.05,0,0-.09-.06-.14A5.71,5.71,0,0,1,52,22.65,9.5,9.5,0,0,1,51,21.65ZM60.11,23l0,.06c-.44.45-.91.92-1.33,1.39a.33.33,0,0,0,.13.14c0-.11.08-.21.09-.33s.28-.06.43,0a3.23,3.23,0,0,1,.67,0c.17.09.18.3.34.39a.13.13,0,0,1,0,.18c0,.35.22-.09.4,0s.17,0,.23.1.21.12.22.26-.09.09-.14.13-.15.23-.08.38c.27.05.28-.27.41-.41a2.55,2.55,0,0,0-.27-.71c-.16,0-.25-.22-.41-.25s0-.31,0-.49A5.69,5.69,0,0,0,60.11,23Zm-7.7,0a5.58,5.58,0,0,0-1.27,2.62,4.31,4.31,0,0,1-.11.71,1.19,1.19,0,0,1,.59,0c-.11-.06,0-.19-.08-.27s0-.27.08-.34.19-.29.21-.47.28-.07.39-.17,0-.1,0-.16.24-.12.35-.19a1,1,0,0,1,.32-.33c.28,0,.29-.39.56-.4A11.3,11.3,0,0,1,52.4,23Zm4.09.16a8.93,8.93,0,0,1,.07,1l.34.11c.1-.17.32-.2.41-.35s.13,0,.18.06a1,1,0,0,1-.06.38c-.13.26-.43.29-.6.47.11.06.17-.05.26-.08a.57.57,0,0,1,.32.21c.09,0,.17,0,.24,0,.05-.39.54-.34.69-.71l-.09,0c0-.05-.13,0-.13-.11a1,1,0,0,1,.28-.23,4.83,4.83,0,0,0-1.35-.62A4.5,4.5,0,0,1,56.49,23.17Zm-2.55,1H54c.11.11.3.09.38.24s-.08.08-.08.15.06,0,.08.06.07-.05.1-.09.14.11.25.11a.18.18,0,0,1,.25,0c.08-.07.24,0,.26-.13s.07-.4.28-.5,0,.11,0,.18.31-.12.43,0a3,3,0,0,1-.07-1A3.23,3.23,0,0,0,53.95,24.16Zm2.3.79c-.08-.09-.24,0-.34,0,.09.09.06.27.11.38a.9.9,0,0,1-.6.36c-.06.08,0,.24-.19.23s-.21.17-.15.32a2.92,2.92,0,0,0-.08.54c-.28.18-.2-.23-.34-.32l0,.08c-.06,0-.09,0-.13-.06s-.11,0-.15,0-.16.19-.13.33S54,26.87,54,27a2.7,2.7,0,0,0,.48-.07c.11,0,.2-.05.31-.06a.1.1,0,0,1,.07.11h0a.19.19,0,0,0,.08-.23c0-.1.12-.1.18-.13s0,.09,0,.14c.21.08-.05.24-.08.35s0,.29-.18.27a.07.07,0,0,1,0-.08h0a.24.24,0,0,0,.13.21c.13-.11.14-.29.33-.32s0-.27.1-.35.51-.11.71.09c0,.09,0,.12,0,.19a.94.94,0,0,1-.17.32.16.16,0,0,1,0,.18c-.07.29-.4.15-.59.25a1.5,1.5,0,0,0,1,.28c.2,0,.11-.26.22-.37.07-.33.37-.1.55-.19a1.33,1.33,0,0,0,.16-.44.31.31,0,0,1-.13-.36c-.08-.11-.07-.31-.25-.33a.09.09,0,0,1,0-.11c0-.1.1-.14.13-.22S57,25.89,57,25.8c-.18.05-.2-.19-.34-.24s-.15-.13-.25-.15-.27-.17-.44-.24c0-.05-.06-.13,0-.17s.2,0,.3,0Zm-4.11,1.17c-.38.12.06.41,0,.65s-.19,0-.29.07l0,.25c-.06.15-.24,0-.33.14s0,.19.06.27c-.13.3.3.4.29.67s0,.42.17.57c0,.31,0,.72.23,1l0,.29c.06.2-.24.15-.2.33.06,0,.07,0,.08.07h0a12.51,12.51,0,0,1,1.22-1.24L53.14,29a4.73,4.73,0,0,1-.73-1.62l-.14-.07c0,.15-.08.27-.07.42l0,.06c-.1,0-.16-.09-.25-.14s-.07-.14,0-.18a.16.16,0,0,1,.11,0c0-.05,0-.13,0-.19s-.09-.22,0-.32.16.1.19.16.16,0,.24-.08.11-.19,0-.24a1.12,1.12,0,0,0,0-.56C52.43,26.07,52.26,26.1,52.13,26.11Zm8.86.16s-.09,0-.14,0A.34.34,0,0,1,61,26.27Zm-.29.46.15.15c.15.1,0,.31.2.4s.25.31.33.47a.5.5,0,0,0,0-.14c.07-.26.06-.55.14-.81A2,2,0,0,1,60.7,26.74Zm3.24.07-.08-.06,0,.13a7.63,7.63,0,0,1-1.5,4.2,3.14,3.14,0,0,1-.56.61,10,10,0,0,1,1.06,1l0-.07a9.11,9.11,0,0,0,2.36-5.78l.06-.11-.07,0Zm-1.9,0a5.12,5.12,0,0,1-.07.85l.16.17a.17.17,0,0,1,0,.22.19.19,0,0,1-.22,0A6.19,6.19,0,0,1,61,29.81c-.16.2-.31.47-.51.58l.43.38s0-.06,0-.09,0-.12.1-.11.21.22.33.33.13.32.08.49a7,7,0,0,0,1.9-4.51l.07-.08c-.43,0-.88,0-1.32,0Zm-11,0,.07.11a3.83,3.83,0,0,1,.07.93c.05-.09.07-.21.18-.27s-.11-.11-.1-.19,0-.46.24-.54A.54.54,0,0,1,51,26.78Zm-2.28,0-.13,0H47.27A9.65,9.65,0,0,0,48.43,31a15.49,15.49,0,0,0,1.26,1.77l.94-1,.11,0a2.87,2.87,0,0,1-.44-.45.65.65,0,0,1-.4-.3c0-.05,0-.15-.06-.18l-.06.07c-.17.08-.23-.09-.34-.16s-.08-.36-.27-.31-.1-.09-.15-.14-.23-.18-.33-.28,0,.1-.06.13-.26-.19-.38-.28-.06.05-.1,0a.55.55,0,0,1-.19-.4c-.16-.18-.09-.45-.06-.67,0-.06.11-.09.09-.16s.15-.11.25-.11a.25.25,0,0,1,.09.09c.06,0,.2,0,.15-.13a.62.62,0,0,1,.31-.11,2,2,0,0,0,.21.29l-.07-.1a7.48,7.48,0,0,1-.23-1.44s-.06,0,0-.07h0A1.49,1.49,0,0,1,48.71,26.8Zm1.85,0-.1,0a11,11,0,0,1-1.32,0l.06.08.1.87a6.69,6.69,0,0,1,.18,1c.05-.07,0-.21.15-.23-.05-.1.1-.19,0-.28a1,1,0,0,1,.27-.62c.24,0,.26-.33.5-.34s.2.16.25.22A.9.9,0,0,1,50.56,26.8Zm2.43.58c.13.25.2.53.34.77s.27.39.36.6a3.28,3.28,0,0,1,.4-.46.25.25,0,0,0,0-.18c0-.1,0-.24-.08-.33s0,.17,0,.24a.08.08,0,0,1-.11-.06.31.31,0,0,1-.23-.21c.09-.06,0-.08,0-.13s-.05,0-.09,0a.12.12,0,0,1-.07,0C53.41,27.37,53.11,27.53,53,27.39Zm1.49.37a.68.68,0,0,1-.19.31h0c.11-.08.19-.23.34-.24Zm3.74.39a.35.35,0,0,0,.08.23c.18,0,.1.23.27.2s0-.11,0-.17-.17-.16-.26-.24,0-.05,0-.08S58.26,28.1,58.22,28.15Zm2.68,0c-.14,0-.3.07-.42,0s-.07,0-.07.06-.09.16-.2.13-.09-.13-.11-.19a.51.51,0,0,1,0,.15,1.62,1.62,0,0,0-.2.32c-.1.11-.26.07-.36.16s-.27.18-.41.25,0,0,0,.06a.18.18,0,0,0,.2,0c.2.05.16-.2.27-.28s.19-.1.3,0a.67.67,0,0,1,.11.48c-.11.11-.06.3-.14.43s-.17.23-.15.38a.33.33,0,0,1-.26.08,4.44,4.44,0,0,0-1.18-.27.08.08,0,0,0-.06.09c.17.09.38.09.56.17s.27.24.47.18.45.06.57-.12.13-.3.21-.45h.06c.09.1.09.25.13.35.13-.14.24-.3.36-.44a4.23,4.23,0,0,0,.69-1.46A1.41,1.41,0,0,0,60.9,28.16Zm-6,0a7.38,7.38,0,0,1-.88.94,3.61,3.61,0,0,0,1.7.79c0-.13,0-.29,0-.4s.18-.1.27-.08a.08.08,0,0,0,.06-.12c-.14,0-.08-.18-.12-.26s.09,0,.07-.1,0-.16,0-.24.06-.08.1-.08c-.3.16-.62,0-.89-.15S55,28.31,54.94,28.16Zm2.75.83s-.07.1,0,.13.36-.11.36-.28C57.88,28.81,57.8,28.9,57.69,29Zm.53.36c-.15,0-.22.11-.33.2s-.2-.14-.31-.09,0,0,0,0a.11.11,0,0,1,0,.14c-.16.15-.24-.07-.39-.06v.06s0,.09-.06.07-.29-.1-.38-.24-.12,0-.16,0-.18,0-.15.11c-.12,0-.13.17-.22.25s-.21.14-.35.14c0,0,0,.08,0,.08a.48.48,0,0,0,.27,0c.14-.23.38,0,.58-.12s0,.16.13.2.34.17.5,0c0-.22.24-.2.38-.26s.45-.3.43-.58Zm-4.57.13a7,7,0,0,1-.94,1c.15,0,.23.17.35.24a5.91,5.91,0,0,0,2.42,1.08l-.23-.1c-.17-.19-.41-.42-.42-.69.17-.06.15-.25.21-.37a1,1,0,0,1,.5-.27c-.48.2-.89-.16-1.29-.34A1.84,1.84,0,0,1,53.65,29.47Zm6.58,1.32,0-.09A.78.78,0,0,1,60,31c0,.08,0,.19.07.24s.44.18.48.41-.47.4-.23.63c.08.11-.11.16-.08.25l.07-.09a6.58,6.58,0,0,0,.84-.71h0c-.06,0-.13,0-.19,0a.3.3,0,0,1-.16-.32ZM52.62,31l0,0,0,.06Zm.15.2a.21.21,0,0,1-.11-.15Zm0,0c0,.11.18.18.14.33a.4.4,0,0,1-.38.13c-.27,0-.47.16-.72.19s-.31-.21-.53-.19a7.45,7.45,0,0,0,4.58,2l.13.09L56,33.56V32.31l-.11,0A5.48,5.48,0,0,1,52.8,31.22Zm8.75.89,0-.11a2.55,2.55,0,0,1-.65.62c-.31.31-.81.37-1,.82-.17.15-.22.39-.45.47s-.33.21-.46.38c-.4.36-.65-.23-1-.3l-.72.13a2.28,2.28,0,0,1-.74,0,11.14,11.14,0,0,1,0,1.49l.09-.06a9.22,9.22,0,0,0,5.94-2.5ZM51,32.09v.06l-1,1a9.59,9.59,0,0,0,5,2.36,7.85,7.85,0,0,1,.94.11L56,35.49V34.2l0-.07-.15,0A7.47,7.47,0,0,1,51,32.09Zm5.41.33.07.1a9.66,9.66,0,0,1,0,1.17,7.28,7.28,0,0,1,1.14-.16.4.4,0,0,1-.21-.12c-.22,0-.33-.25-.4-.42s.05-.23.1-.34-.39-.05-.56-.12S56.51,32.43,56.45,32.42Z"/>
	<path class="sdg0-3" d="M65.15,18.81a4.19,4.19,0,0,1,1.21,2.26l.11.27a10,10,0,0,1-2.57-2.73l-.79-.8A6.68,6.68,0,0,1,65.15,18.81Z"/>
	<path class="sdg0-3" d="M47.55,20A15.14,15.14,0,0,1,46,21.49a10,10,0,0,1,.7-1.83,4.52,4.52,0,0,1,2.58-1.72A11.71,11.71,0,0,0,47.55,20Z"/>
	<path class="sdg0-3" d="M67.61,21.09c.22,1-.1,2,.1,3h0C67.17,23,66,22.5,65.23,21.65a3.4,3.4,0,0,1-.77-1.78c.45,1.09,1.68,1.34,2.38,2.25a3,3,0,0,1,.46.75l0,0a20.49,20.49,0,0,1-.82-2.75,2.15,2.15,0,0,0-.8-1A2.76,2.76,0,0,1,67.61,21.09Z"/>
	<path class="sdg0-3" d="M46.69,19.23c-.94.64-.88,1.8-1.17,2.76-.09.36-.26.68-.34,1l0,0A3.25,3.25,0,0,1,46,21.92c.67-.62,1.65-1,2-1.91,0,1.26-1.07,2.26-2.08,3a4.21,4.21,0,0,0-1,1.25c0-.32,0-.64,0-1-.11-1.1-.19-2.36.59-3.18A2.35,2.35,0,0,1,46.69,19.23Z"/>
	<path class="sdg0-3" d="M68.21,21.31a4.44,4.44,0,0,1,.41,4.25,7.47,7.47,0,0,0-.48,1.75c0-.1-.05-.25-.09-.36-.33-1.27-1.54-2.18-2-3.39a6.31,6.31,0,0,1-.36-1.23c.53,1,1.84,1.49,2.19,2.57a4.91,4.91,0,0,1,.23.91,0,0,0,0,0,0,0,12.39,12.39,0,0,1,0-3.38,2.79,2.79,0,0,0-.4-1.63C68,20.89,68.06,21.12,68.21,21.31Z"/>
	<path class="sdg0-3" d="M44.69,21c-.72,1.09-.12,2.47-.16,3.72l-.09,1.27s0,0,0,0,.05-.29.08-.44a4.77,4.77,0,0,1,1.84-2.47,2,2,0,0,0,.4-.59,5.25,5.25,0,0,1-.44,1.5c-.61,1.18-1.73,2.15-1.93,3.51-.1-1.3-1-2.27-.89-3.65A4.38,4.38,0,0,1,44.63,21S44.66,20.95,44.69,21Z"/>
	<path class="sdg0-3" d="M69,28.68c-.5.71-1.1,1.36-1.56,2.08a4,4,0,0,0-.1-1.81,15.68,15.68,0,0,1-.83-3.61v-.49c.29,1.3,1.57,2.2,1.49,3.65a3.2,3.2,0,0,1-.15,1l0,0,.06-.07a14.5,14.5,0,0,1,.58-2.14,5.2,5.2,0,0,0,.73-3.09A5.25,5.25,0,0,1,69,28.68Z"/>
	<path class="sdg0-3" d="M44.32,28.22a12,12,0,0,0,.36,1.44s0,0,0,0c-.49-1.36.21-2.63.92-3.69A3.59,3.59,0,0,0,46,25a8,8,0,0,1-.17,2c-.17.81-.43,1.59-.65,2.38a3.72,3.72,0,0,0,0,1.57l-.07-.06c-.52-1-1.54-1.69-1.84-2.74A5.8,5.8,0,0,1,43,25.43a5.06,5.06,0,0,1,.29-1C43,25.88,44,26.94,44.32,28.22Z"/>
	<path class="sdg0-3" d="M67,30.92a3.4,3.4,0,0,1-.58,1.72h.06a21.69,21.69,0,0,1,1.34-1.8,4.7,4.7,0,0,0,1.77-2.71,4.66,4.66,0,0,1-2.28,4.5c-.63.41-1.27.8-1.87,1.26v-.06c.93-1.54.47-3.66,1-5.35l.21-.57C66.61,29,67.07,29.86,67,30.92Z"/>
	<path class="sdg0-3" d="M46.71,33c.1.35.3.66.44,1-1.41-1-3.33-1.87-4-3.64a4.38,4.38,0,0,1-.24-2.05c.11,1.57,1.8,2.4,2.58,3.69a4.28,4.28,0,0,0,.59.78c0-.17-.19-.31-.25-.48a3.37,3.37,0,0,1-.31-1.85,9.32,9.32,0,0,0,.28-2.39C46.53,29.56,46.32,31.41,46.71,33Z"/>
	<path class="sdg0-3" d="M64.93,34.18a4.69,4.69,0,0,1-1,1.16c.12,0,.23-.11.34-.18,1-1,2.34-1.3,3.44-2.12a3.32,3.32,0,0,0,1-1.31,5.15,5.15,0,0,1-3.46,3.76c-.81.22-1.69.29-2.48.56,1.34-1.15,1.26-2.93,2.16-4.28a13.83,13.83,0,0,1,.85-1.15C65.32,31.7,65.56,33.12,64.93,34.18Z"/>
	<path class="sdg0-3" d="M48,32.76c.47,1.16.65,2.48,1.75,3.36-1.18-.39-2.57-.28-3.61-1a5,5,0,0,1-2.37-3.2c.79,1.78,2.76,1.93,4.08,3a3.29,3.29,0,0,0,.77.53h0a4.55,4.55,0,0,1-.87-.94c-.77-1.07-.5-2.58-1.08-3.74A8.69,8.69,0,0,1,48,32.76Z"/>
	<path class="sdg0-3" d="M62.07,36.22a7.28,7.28,0,0,1-1,.36,10,10,0,0,0,1.24-.18c1.56-.25,3.35,0,4.45-1.33a4.2,4.2,0,0,1-2.35,2c-1.6.6-3.2-.14-4.73-.38l-.29,0h0a4.29,4.29,0,0,0,2-.91A20.69,20.69,0,0,1,64,33.45C63.31,34.35,63.23,35.64,62.07,36.22Z"/>
	<path class="sdg0-3" d="M51.12,35.79a4.41,4.41,0,0,0,2.1.93c-.18.07-.43,0-.62.1-1.38.34-2.91.89-4.37.4a4.24,4.24,0,0,1-2.41-2c1.26,1.43,3.32,1,5,1.33a2.35,2.35,0,0,0,.71.09c-.2-.13-.48-.11-.7-.23-1.32-.46-1.51-1.89-2.23-2.85A20.27,20.27,0,0,1,51.12,35.79Z"/>
	<path class="sdg0-3" d="M61.4,37.74a3.65,3.65,0,0,0,3.22-.35,3.83,3.83,0,0,1-1.7,1.19,4.25,4.25,0,0,1-4-.87c-.45-.28-.85-.7-1.43-.66a2,2,0,0,0-.59.06,11,11,0,0,1,3,2.08,4.49,4.49,0,0,1-.54.49,10.64,10.64,0,0,0-3-2.4,1.92,1.92,0,0,0-.61.26,9.13,9.13,0,0,0-2.43,2.17l-.57-.47a10.4,10.4,0,0,1,3-2.14c-1.08-.34-1.78.56-2.6,1A3.81,3.81,0,0,1,48,37.5a3.7,3.7,0,0,0,3.3.28c1.39-.6,2.83-1.36,4.5-1,.26,0,.52.27.76,0a5.34,5.34,0,0,1,3.72.47Z"/>
</svg>
