<svg id="English"
	xmlns="http://www.w3.org/2000/svg" viewBox="0 0 30.76 30.76">
	<title>SDG Logo</title>
<!--	<rect class="sdg0-1" width="30.76" height="30.76"/> -->
	<style>
		.sdg0-1{fill:#f1f1f1;}
		.sdg0-2{fill:#5fba47;}
		.sdg0-3{fill:#e4b632;}
		.sdg0-4{fill:#c4202f;}
		.sdg0-5{fill:#4b9f46;}
		.sdg0-6{fill:#418045;}
		.sdg0-7{fill:#f8c219;}
		.sdg0-8{fill:#ee422a;}
		.sdg0-9{fill:#f99e29;}
		.sdg0-10{fill:#1d95d3;}
		.sdg0-11{fill:#a21c44;}
		.sdg0-12{fill:#29bce1;}
		.sdg0-13{fill:#f16b2d;}
		.sdg0-14{fill:#e6253d;}
		.sdg0-15{fill:#dc1769;}
		.sdg0-16{fill:#16496b;}
		.sdg0-17{fill:#c5962e;}
		.sdg0-18{fill:#086a9d;}
	</style>
	<path class="sdg0-2" d="M9.25,11.91a7.15,7.15,0,0,1,1.12-1.45l-3.7-4A12.66,12.66,0,0,0,4.36,9.46Z" transform="translate(0 -0.11)"/>
	<path class="sdg0-3" d="M18.31,9a7.05,7.05,0,0,1,1.55,1l3.71-4a12.63,12.63,0,0,0-3.3-2.06Z" transform="translate(0 -0.11)"/>
	<path class="sdg0-4" d="M26.8,10.27l-4.92,2.45a7,7,0,0,1,.51,1.73l5.47-.52a12.47,12.47,0,0,0-1.06-3.67" transform="translate(0 -0.11)"/>
	<path class="sdg0-5" d="M21.54,12l4.91-2.45a12.64,12.64,0,0,0-2.3-3.05l-3.71,4A7.11,7.11,0,0,1,21.5,12" transform="translate(0 -0.11)"/>
	<path class="sdg0-6" d="M8.27,15.5V15.17L2.8,14.68V15.5a12.61,12.61,0,0,0,.36,3L8.46,17a7.1,7.1,0,0,1-.17-1.53" transform="translate(0 -0.11)"/>
	<path class="sdg0-7" d="M20.85,20a7.18,7.18,0,0,1-1.34,1.25l2.87,4.68a12.72,12.72,0,0,0,2.83-2.63Z" transform="translate(0 -0.11)"/>
	<path class="sdg0-8" d="M22.45,15.5A7,7,0,0,1,22.29,17l5.3,1.52a12.54,12.54,0,0,0,.37-3V14.72l-5.47.52V15.5" transform="translate(0 -0.11)"/>
	<path class="sdg0-9" d="M10,20.1L5.61,23.42A12.72,12.72,0,0,0,8.46,26l2.88-4.66A7.17,7.17,0,0,1,10,20.1" transform="translate(0 -0.11)"/>
	<path class="sdg0-10" d="M8.36,14.37a7,7,0,0,1,.52-1.76L4,10.16a12.5,12.5,0,0,0-1.06,3.72Z" transform="translate(0 -0.11)"/>
	<path class="sdg0-11" d="M21.73,26.34l-2.88-4.66a7.06,7.06,0,0,1-1.69.68l1.06,5.4a12.49,12.49,0,0,0,3.55-1.42" transform="translate(0 -0.11)"/>
	<path class="sdg0-12" d="M22.08,17.78a7.09,7.09,0,0,1-.75,1.58l4.39,3.31a12.53,12.53,0,0,0,1.66-3.37Z" transform="translate(0 -0.11)"/>
	<path class="sdg0-13" d="M16.39,22.51a7,7,0,0,1-1.84,0l-1.06,5.4a12.64,12.64,0,0,0,3.88,0Z" transform="translate(0 -0.11)"/>
	<path class="sdg0-14" d="M15.81,8.41a7,7,0,0,1,1.76.34l2-5.1a12.5,12.5,0,0,0-3.73-.71V8.41Z" transform="translate(0 -0.11)"/>
	<path class="sdg0-15" d="M13.76,22.41A7,7,0,0,1,12,21.75L9.14,26.43a12.53,12.53,0,0,0,3.62,1.38Z" transform="translate(0 -0.11)"/>
	<path class="sdg0-16" d="M13.23,8.73A7,7,0,0,1,15,8.41V2.92a12.52,12.52,0,0,0-3.77.69Z" transform="translate(0 -0.11)"/>
	<path class="sdg0-17" d="M9.49,19.46a7.05,7.05,0,0,1-.88-1.68L3.3,19.3a12.53,12.53,0,0,0,1.81,3.43Z" transform="translate(0 -0.11)"/>
	<path class="sdg0-18" d="M11,9.93A7.1,7.1,0,0,1,12.49,9l-2-5.12a12.58,12.58,0,0,0-3.23,2Z" transform="translate(0 -0.11)"/>
</svg>
