<svg
    xmlns="http://www.w3.org/2000/svg" viewBox="0 0 111.76 111.77">
    <title>SDG12 Responsible Consumption and Production</title>
    <g id="English">
        <rect class="sdg12-1" x="-1.55" y="-1.83" width="117.41" height="118.33"/>
        <path class="sdg12-2" d="M84.26,57.95A18.33,18.33,0,0,0,70.4,54.54l-.28.06c-2.76.65-7.15,1.73-12.29,8.11l-.09.11-.07.08a.42.42,0,0,0,0,.46l.12.2c.65,1.08,1.46,2.47,2.15,3.75l0,0a.44.44,0,0,0,.39.24.43.43,0,0,0,.3-.12l.09-.13c4.56-6.31,8.15-7.18,10.57-7.75l.29-.07A13.28,13.28,0,0,1,81.09,62c2.7,2.13,4.07,5.52,4.07,10.07,0,7.64-3.71,10.62-6.83,11.79a12.74,12.74,0,0,1-9.49-.63l-.21-.1C66,81.94,62,79.54,58.29,72.05c-7.52-15.1-13.81-16.52-18-17.47l-.22,0a18,18,0,0,0-13.65,3.4c-2.7,2.16-5.92,6.35-5.92,14.07,0,4.71,1,7.81,3.45,11.08.54.74,6.11,7.9,16.88,5.84a16.17,16.17,0,0,0,6.62-3.08L49.85,88a.39.39,0,0,0,.54,0,.36.36,0,0,0,.09-.26v0L52.2,77.15V77a.38.38,0,0,0-.13-.28.35.35,0,0,0-.25-.09h-.18L41.56,79.49l-.18,0a.35.35,0,0,0-.19.11.38.38,0,0,0,0,.55l.12.11,2.26,2a10.51,10.51,0,0,1-3.7,1.56c-7.79,1.49-11.63-3.62-11.78-3.82L28.06,80c-1.81-2.38-2.42-4.4-2.42-8,0-4.57,1.34-8,4-10.07A12.89,12.89,0,0,1,39,59.52l.23.05c3.41.77,8.08,1.83,14.52,14.76C57,81,61.24,85.43,66.51,87.74a18.61,18.61,0,0,0,8,1.86,16,16,0,0,0,5.59-1c3.05-1.14,10.16-5,10.16-16.58,0-7.72-3.27-11.92-6-14.08"/>
        <path class="sdg12-3" d="M84.26,57.95A18.33,18.33,0,0,0,70.4,54.54l-.28.06c-2.76.65-7.15,1.73-12.29,8.11l-.09.11-.07.08a.42.42,0,0,0,0,.46l.12.2c.65,1.08,1.46,2.47,2.15,3.75l0,0a.44.44,0,0,0,.39.24.43.43,0,0,0,.3-.12l.09-.13c4.56-6.31,8.15-7.18,10.57-7.75l.29-.07A13.28,13.28,0,0,1,81.09,62c2.7,2.13,4.07,5.52,4.07,10.07,0,7.64-3.71,10.62-6.83,11.79a12.74,12.74,0,0,1-9.49-.63l-.21-.1C66,81.94,62,79.54,58.29,72.05c-7.52-15.1-13.81-16.52-18-17.47l-.22,0a18,18,0,0,0-13.65,3.4c-2.7,2.16-5.92,6.35-5.92,14.07,0,4.71,1,7.81,3.45,11.08.54.74,6.11,7.9,16.88,5.84a16.17,16.17,0,0,0,6.62-3.08L49.85,88a.39.39,0,0,0,.54,0,.36.36,0,0,0,.09-.26v0L52.2,77.15V77a.38.38,0,0,0-.13-.28.35.35,0,0,0-.25-.09h-.18L41.56,79.49l-.18,0a.35.35,0,0,0-.19.11.38.38,0,0,0,0,.55l.12.11,2.26,2a10.51,10.51,0,0,1-3.7,1.56c-7.79,1.49-11.63-3.62-11.78-3.82L28.06,80c-1.81-2.38-2.42-4.4-2.42-8,0-4.57,1.34-8,4-10.07A12.89,12.89,0,0,1,39,59.52l.23.05c3.41.77,8.08,1.83,14.52,14.76C57,81,61.24,85.43,66.51,87.74a18.61,18.61,0,0,0,8,1.86,16,16,0,0,0,5.59-1c3.05-1.14,10.16-5,10.16-16.58,0-7.72-3.27-11.92-6-14.08"/>
        <path class="sdg12-2" d="M37.54,14.48v4.32H36V9.38h2.3c1.6,0,2.18.79,2.18,2.11V12.7c0,1-.36,1.61-1.26,1.82l1.51,4.28H39Zm0-3.8V13.6h.53a.69.69,0,0,0,.78-.78V11.44c0-.51-.24-.76-.78-.76Z"/>
        <path class="sdg12-2" d="M41.11,9.38h3.78v1.29H42.69v2.69h1.57v1.28H42.69V17.5h2.19v1.29H41.11Z"/>
        <path class="sdg12-2" d="M45.38,16.77V15.5h1.47V16.8c0,.53.24.83.78.83s.72-.33.72-.83v-.36a1.7,1.7,0,0,0-.71-1.33l-.93-.93a3.17,3.17,0,0,1-1.32-2.51v-.32a2,2,0,0,1,2.22-2.07c1.58,0,2.21.78,2.21,2.14v.76H48.38v-.82c0-.54-.25-.81-.75-.81a.69.69,0,0,0-.75.78v.19c0,.53.29.83.75,1.28l1,1a3.16,3.16,0,0,1,1.28,2.44v.46a2,2,0,0,1-2.3,2.21A2,2,0,0,1,45.38,16.77Z"/>
        <path class="sdg12-2" d="M50.56,9.38H52.9c1.6,0,2.18.79,2.18,2.11v2c0,1.32-.58,2.12-2.18,2.12h-.76v3.19H50.56Zm1.58,1.29v3.71h.58a.68.68,0,0,0,.78-.78V11.44c0-.51-.24-.76-.78-.76Z"/>
        <path class="sdg12-2" d="M55.71,16.36V11.81a2.4,2.4,0,1,1,4.79,0v4.55a2.4,2.4,0,1,1-4.79,0Zm3.21.25V11.56c0-.57-.25-1-.82-1s-.81.4-.81,1v5.05c0,.57.25,1,.81,1S58.92,17.18,58.92,16.61Z"/>
        <path class="sdg12-2" d="M62.54,12.88v5.91H61.2V9.38h1.55l1.71,5.4V9.38h1.32v9.41H64.4Z"/>
        <path class="sdg12-2" d="M66.41,16.77V15.5h1.47V16.8c0,.53.24.83.78.83s.72-.33.72-.83v-.36a1.7,1.7,0,0,0-.71-1.33l-.93-.93a3.17,3.17,0,0,1-1.32-2.51v-.32a2,2,0,0,1,2.22-2.07c1.58,0,2.21.78,2.21,2.14v.76H69.41v-.82c0-.54-.25-.81-.75-.81a.69.69,0,0,0-.75.78v.19c0,.53.29.83.75,1.28l1,1a3.16,3.16,0,0,1,1.28,2.44v.46a2,2,0,0,1-2.31,2.21A2,2,0,0,1,66.41,16.77Z"/>
        <path class="sdg12-2" d="M71.59,9.38h1.58v9.41H71.59Z"/>
        <path class="sdg12-2" d="M73.89,9.38h2.29c1.58,0,2.11.74,2.11,2.07v1a1.37,1.37,0,0,1-.94,1.5,1.43,1.43,0,0,1,1.18,1.57v1.25c0,1.33-.6,2.07-2.18,2.07H73.89Zm1.58,4H76a.67.67,0,0,0,.75-.76V11.44a.67.67,0,0,0-.76-.76h-.54Zm0,1.21V17.5h.69a.68.68,0,0,0,.78-.76V15.32c0-.5-.24-.76-.79-.76Z"/>
        <path class="sdg12-2" d="M79.12,9.38h1.58V17.5h1.89v1.29H79.12Z"/>
        <path class="sdg12-2" d="M83.12,9.38H86.9v1.29H84.7v2.69h1.57v1.28H84.7V17.5H86.9v1.29H83.12Z"/>
        <path class="sdg12-2" d="M36,29.55V25c0-1.47.69-2.54,2.36-2.54s2.24,1,2.24,2.36v1.11H39.11V24.69c0-.58-.19-.92-.76-.92s-.81.4-.81,1V29.8c0,.57.24,1,.81,1s.76-.36.76-.92V28.12h1.44v1.62c0,1.35-.56,2.35-2.24,2.35A2.23,2.23,0,0,1,36,29.55Z"/>
        <path class="sdg12-2" d="M41.22,29.55V25A2.4,2.4,0,1,1,46,25v4.55a2.4,2.4,0,1,1-4.79,0Zm3.21.25V24.75c0-.57-.25-1-.82-1s-.81.4-.81,1V29.8c0,.57.25,1,.81,1S44.42,30.37,44.42,29.8Z"/>
        <path class="sdg12-2" d="M48,26.07V32H46.71V22.57h1.55L50,28v-5.4h1.32V32H49.91Z"/>
        <path class="sdg12-2" d="M51.92,30V28.69h1.47V30c0,.53.24.83.78.83s.72-.33.72-.83v-.36a1.7,1.7,0,0,0-.71-1.33l-.93-.93a3.17,3.17,0,0,1-1.32-2.51v-.32a2,2,0,0,1,2.22-2.07c1.58,0,2.21.78,2.21,2.14v.76H54.92v-.82c0-.54-.25-.81-.75-.81a.69.69,0,0,0-.75.78v.19c0,.53.29.83.75,1.28l1,1a3.16,3.16,0,0,1,1.28,2.44v.46a2,2,0,0,1-2.3,2.21A2,2,0,0,1,51.92,30Z"/>
        <path class="sdg12-2" d="M61.69,22.57v7.12c0,1.46-.62,2.4-2.24,2.4a2.12,2.12,0,0,1-2.36-2.4V22.57h1.58v7.27c0,.56.22.93.78.93s.78-.37.78-.93V22.57Z"/>
        <path class="sdg12-2" d="M66.76,25.87h0L65.65,32h-.74l-1.18-6.11h0V32H62.4V22.57h1.85l1,5.3h0l.92-5.3h2V32H66.76Z"/>
        <path class="sdg12-2" d="M68.91,22.57h2.35c1.6,0,2.18.79,2.18,2.11v2c0,1.32-.58,2.12-2.18,2.12h-.76V32H68.91Zm1.58,1.29v3.71h.58a.68.68,0,0,0,.78-.78V24.62c0-.51-.24-.76-.78-.76Z"/>
        <path class="sdg12-2" d="M73.81,22.57H78v1.29H76.71V32h-1.6V23.86h-1.3Z"/>
        <path class="sdg12-2" d="M78.55,22.57h1.58V32H78.55Z"/>
        <path class="sdg12-2" d="M80.86,29.55V25a2.4,2.4,0,1,1,4.79,0v4.55a2.4,2.4,0,1,1-4.79,0Zm3.21.25V24.75c0-.57-.25-1-.82-1s-.81.4-.81,1V29.8c0,.57.25,1,.81,1S84.06,30.37,84.06,29.8Z"/>
        <path class="sdg12-2" d="M87.69,26.07V32H86.35V22.57h1.55L89.62,28v-5.4h1.32V32H89.55Z"/>
        <path class="sdg12-2" d="M35.71,45.17l1.78-9.41h1.8l1.79,9.41H39.45l-.29-1.72H37.48l-.28,1.72Zm2-3H39l-.62-3.78h0Z"/>
        <path class="sdg12-2" d="M42.87,39.25v5.91H41.54V35.75h1.55l1.71,5.4v-5.4h1.32v9.41H44.73Z"/>
        <path class="sdg12-2" d="M51.56,38.28v4.36c0,1.44-.6,2.53-2.29,2.53H46.82V35.75h2.44C51,35.75,51.56,36.82,51.56,38.28Zm-2.48,5.6c.65,0,.9-.39.9-1V38a.82.82,0,0,0-.9-.94h-.67v6.83Z"/>
        <path class="sdg12-2" d="M53.53,35.75h2.35c1.6,0,2.18.79,2.18,2.11v2c0,1.32-.58,2.12-2.18,2.12h-.76v3.19H53.53ZM55.11,37v3.71h.58a.68.68,0,0,0,.78-.78V37.81c0-.51-.24-.76-.78-.76Z"/>
        <path class="sdg12-2" d="M60.26,40.85v4.32H58.68V35.75H61c1.6,0,2.18.79,2.18,2.11v1.21c0,1-.36,1.61-1.26,1.82l1.51,4.28H61.74Zm0-3.8V40h.53a.69.69,0,0,0,.78-.78V37.81c0-.51-.24-.76-.78-.76Z"/>
        <path class="sdg12-2" d="M63.83,42.74V38.18a2.4,2.4,0,1,1,4.79,0v4.55a2.4,2.4,0,1,1-4.79,0ZM67,43V37.93c0-.57-.25-1-.82-1s-.81.4-.81,1V43c0,.57.25,1,.81,1S67,43.56,67,43Z"/>
        <path class="sdg12-2" d="M74.06,38.28v4.36c0,1.44-.6,2.53-2.29,2.53H69.32V35.75h2.44C73.46,35.75,74.06,36.82,74.06,38.28Zm-2.48,5.6c.65,0,.9-.39.9-1V38a.82.82,0,0,0-.9-.94h-.67v6.83Z"/>
        <path class="sdg12-2" d="M79.36,35.75v7.12c0,1.46-.62,2.4-2.24,2.4a2.12,2.12,0,0,1-2.36-2.4V35.75h1.58V43c0,.56.22.93.78.93s.78-.37.78-.93V35.75Z"/>
        <path class="sdg12-2" d="M80.07,42.74V38.18c0-1.47.69-2.54,2.36-2.54s2.24,1,2.24,2.36v1.11H83.22V37.88c0-.58-.19-.92-.76-.92s-.81.4-.81,1V43c0,.57.24,1,.81,1s.76-.36.76-.92V41.31h1.44v1.62c0,1.35-.56,2.35-2.24,2.35A2.23,2.23,0,0,1,80.07,42.74Z"/>
        <path class="sdg12-2" d="M85,35.75h4.21V37H87.91v8.12h-1.6V37H85Z"/>
        <path class="sdg12-2" d="M89.75,35.75h1.58v9.41H89.75Z"/>
        <path class="sdg12-2" d="M92.06,42.74V38.18a2.4,2.4,0,1,1,4.79,0v4.55a2.4,2.4,0,1,1-4.79,0Zm3.21.25V37.93c0-.57-.25-1-.82-1s-.81.4-.81,1V43c0,.57.25,1,.81,1S95.27,43.56,95.27,43Z"/>
        <path class="sdg12-2" d="M98.89,39.25v5.91H97.55V35.75h1.55l1.71,5.4v-5.4h1.32v9.41h-1.39Z"/>
    </g>
    <g id="NUMBERS_ONLY" data-name="NUMBERS ONLY">
        <polygon class="sdg12-2" points="11.23 14.68 11.26 14.68 11.26 31.91 15.05 31.91 15.05 9.39 12.03 9.39 8.54 13.48 8.54 17.43 8.57 17.43 11.23 14.68"/>
        <path class="sdg12-2" d="M17.31,14v2.72h3.45V13.94c0-1.36.67-1.76,1.46-1.76s1.36.3,1.36,1.69v1.86c0,1.86-.17,2.59-1.4,3.89l-2.12,2.26c-2.06,2.19-2.82,3.65-2.82,5.88v4.15h9.83V28.82H20.86V27.76a4.3,4.3,0,0,1,1.59-3.45l2.42-2.56c2-2.09,2.39-3.42,2.39-5.68V13.88c0-3.22-1.56-4.75-4.95-4.75s-5,1.76-5,4.92"/>
    </g>
</svg>
