<svg xmlns="http://www.w3.org/2000/svg" viewBox="0 0 111.76 111.76">
	<title>SDG1 No Poverty</title>
	<g id="English">
		<rect class="sdg1-1" x="-2.49" y="-2.17" width="117.33" height="117.33" />
		<path class="sdg1-2" d="M86.07,53.32a3.09,3.09,0,1,1,3.1,3.09,3.1,3.1,0,0,1-3.1-3.09"/>
		<path class="sdg1-2" d="M92.78,57.61a4.12,4.12,0,0,1,3.74,4.11V70.3a1.2,1.2,0,0,1-2.4,0V62.93c0-.28-.08-.65-.59-.65-.35,0-.42.37-.43.61V85a1.72,1.72,0,0,1-3.45,0V72.24a.47.47,0,0,0-.49-.51h0a.47.47,0,0,0-.5.51V85a1.72,1.72,0,1,1-3.45,0V62.89c0-.24-.09-.61-.43-.61-.51,0-.58.37-.58.65V70.3a1.2,1.2,0,0,1-2.4,0V61.72a4.12,4.12,0,0,1,3.75-4.11l.23,0h6.76l.24,0"/>
		<path class="sdg1-2" d="M67.67,54.95a2.93,2.93,0,1,0-2.93,2.93,2.93,2.93,0,0,0,2.93-2.93"/>
		<path class="sdg1-2" d="M58.84,61.59l-2.44,7.93s-.43,1.45.8,1.82,1.6-1.06,1.6-1.06l2-6.62s.11-.51.49-.4.24.65.24.65l-3.42,12.4h3.18V85.2a1.53,1.53,0,0,0,3.05,0V76.31h.87V85.2a1.53,1.53,0,0,0,3.05,0V76.31h3.18L68,63.91s-.14-.54.24-.65.49.4.49.4l2,6.62s.37,1.42,1.6,1.06.8-1.82.8-1.82l-2.44-7.93s-.87-2.29-2.8-2.29H61.64c-1.93,0-2.8,2.29-2.8,2.29"/>
		<path class="sdg1-2" d="M50.13,54.95a2.93,2.93,0,1,0-2.93,2.93,2.93,2.93,0,0,0,2.93-2.93"/>
		<path class="sdg1-2" d="M41.29,61.59l-2.43,7.93s-.44,1.45.8,1.82,1.6-1.06,1.6-1.06l2-6.62s.11-.51.49-.4.24.65.24.65l-3.42,12.4h3.18V85.2a1.53,1.53,0,0,0,3.05,0V76.31h.87V85.2a1.53,1.53,0,0,0,3.05,0V76.31h3.18l-3.41-12.4s-.15-.54.24-.65.49.4.49.4l2,6.62s.37,1.42,1.6,1.06.8-1.82.8-1.82L53.1,61.59s-.87-2.29-2.8-2.29H44.09c-1.93,0-2.8,2.29-2.8,2.29"/>
		<path class="sdg1-2" d="M77.51,71.35a2.44,2.44,0,1,0-2.44-2.44,2.44,2.44,0,0,0,2.44,2.44"/>
		<path class="sdg1-2" d="M71.67,78.92A.85.85,0,0,0,72,80.08a.81.81,0,0,0,1-.34l1.33-4.23s.23-.28.23,0v10h0a1.25,1.25,0,1,0,2.5,0V81.54s-.07-.56.38-.56.38.56.38.56v3.93a1.25,1.25,0,0,0,2.51,0v-10c0-.29.15-.08.15-.08l1,2.9a6.92,6.92,0,0,0,.59,1.35.92.92,0,0,0,1.21-.5.91.91,0,0,0-.1-.89h0c0-.09-1.55-3.83-1.73-4.35C81,72.32,80,72.34,79,72.31s-1.54,0-1.54,0-.62,0-1.89,0-1.67.69-3.07,4.3c-.2.52-.88,2.2-.89,2.3Z"/>
		<path class="sdg1-2" d="M24,53.32a3.09,3.09,0,1,0-3.1,3.09A3.1,3.1,0,0,0,24,53.32"/>
		<path class="sdg1-2" d="M17.25,57.61a4.13,4.13,0,0,0-3.75,4.11V70.3a1.2,1.2,0,0,0,2.4,0V62.93c0-.28.08-.65.59-.65.35,0,.42.37.44.61V85a1.72,1.72,0,1,0,3.44,0V72.24a.47.47,0,0,1,.49-.51h0a.47.47,0,0,1,.5.51V85a1.72,1.72,0,1,0,3.45,0V62.89c0-.24.09-.61.43-.61.51,0,.58.37.58.65V70.3a1.2,1.2,0,0,0,2.4,0V61.72a4.12,4.12,0,0,0-3.75-4.11l-.23,0H17.49l-.24,0"/>
		<line class="sdg1-3" x1="14.55" y1="71.54" x2="11.8" y2="86.11"/>
		<path class="sdg1-2" d="M29.69,70.07a.89.89,0,0,0-1.64.47,1.62,1.62,0,0,0,.09.39l2.46,4.45a1.57,1.57,0,0,1,.15.59v9.55h0a1.2,1.2,0,1,0,2.4,0V81.75s-.07-.53.36-.53.36.53.36.53v3.77a1.2,1.2,0,0,0,2.41,0V76a1.59,1.59,0,0,1,.15-.59l2.27-4.11a4,4,0,0,0,.28-.73.89.89,0,0,0-1.64-.47h0c-.07.06-1.21,2.09-1.59,2.46a1,1,0,0,1-.75.36H32a1,1,0,0,1-.75-.36c-.38-.38-1.51-2.4-1.59-2.46Z"/>
		<path class="sdg1-2" d="M33.52,71.35a2.44,2.44,0,1,0-2.44-2.44,2.44,2.44,0,0,0,2.44,2.44"/>
		<polygon class="sdg1-2" points="33.52 74.77 36.28 76.78 37.59 81.6 33.52 81.6 29.45 81.6 30.76 76.78 33.52 74.77"/>
		<polygon class="sdg1-2" points="33.43 12.65 33.43 18.39 32.14 18.39 32.14 9.25 33.65 9.25 35.3 14.5 35.3 9.25 36.59 9.25 36.59 18.39 35.24 18.39 33.43 12.65"/>
		<path class="sdg1-2" d="M39.91,18.5A2.18,2.18,0,0,0,42.24,16V11.61a2.33,2.33,0,1,0-4.65,0V16a2.18,2.18,0,0,0,2.32,2.47m-.78-7.13c0-.55.24-.94.78-.94s.8.39.8.94v4.91c0,.55-.24.94-.8.94s-.78-.39-.78-.94Z"/>
		<path class="sdg1-2" d="M33.67,28.8h.74c1.55,0,2.12-.78,2.12-2.06V24.81c0-1.28-.57-2-2.12-2H32.14V31.9h1.54Zm0-4.78h.57c.53,0,.75.24.75.74v2.1a.66.66,0,0,1-.75.76h-.57Z"/>
		<path class="sdg1-2" d="M39.77,32a2.18,2.18,0,0,0,2.33-2.47V25.12a2.33,2.33,0,1,0-4.65,0v4.42A2.18,2.18,0,0,0,39.77,32M39,24.87c0-.55.24-.94.78-.94s.8.39.8.94v4.9c0,.55-.24.94-.8.94s-.78-.39-.78-.94Z"/>
		<polygon class="sdg1-2" points="46.02 31.9 47.76 22.76 46.31 22.76 45.24 29.13 45.22 29.13 44.17 22.76 42.61 22.76 44.35 31.9 46.02 31.9"/>
		<polygon class="sdg1-2" points="52.19 30.64 50.06 30.64 50.06 27.86 51.59 27.86 51.59 26.63 50.06 26.63 50.06 24.01 52.19 24.01 52.19 22.76 48.52 22.76 48.52 31.9 52.19 31.9 52.19 30.64"/>
		<path class="sdg1-2" d="M54.67,27.7l1.44,4.19h1.62l-1.47-4.15c.88-.2,1.23-.78,1.23-1.77V24.81c0-1.28-.57-2-2.12-2H53.13V31.9h1.54Zm0-3.69h.51c.53,0,.76.24.76.74V26.1a.67.67,0,0,1-.76.75h-.51Z"/>
		<polygon class="sdg1-2" points="59.4 31.9 60.95 31.9 60.95 24.01 62.22 24.01 62.22 22.76 58.13 22.76 58.13 24.01 59.4 24.01 59.4 31.9"/>
		<polygon class="sdg1-2" points="64.52 31.9 66.06 31.9 66.06 28.42 67.75 22.76 66.29 22.76 65.36 26.22 65.34 26.22 64.41 22.76 62.81 22.76 64.52 28.42 64.52 31.9"/>
	</g>
		<g id="NUMBERS_ONLY" data-name="NUMBERS ONLY">
		<polygon class="sdg1-2" points="15.61 13.46 15.64 13.46 15.64 30.71 19.43 30.71 19.43 8.18 16.4 8.18 12.91 12.27 12.91 16.22 12.95 16.22 15.61 13.46"/>
	</g>
</svg>
