<svg
    xmlns="http://www.w3.org/2000/svg" viewBox="0 0 111.76 111.77">
    <title>SDG10 Reduced Inequalities</title>
    <g id="English">
        <rect class="sdg10-1" x="-2.55" y="-1.83" width="118.82" height="118.33"/>
        <path class="sdg10-2" d="M67.42,73.83H45.08a.24.24,0,0,0-.24.24v5.06a.24.24,0,0,0,.24.24H67.42a.24.24,0,0,0,.25-.24V74.07a.24.24,0,0,0-.25-.24"/>
        <path class="sdg10-2" d="M67.67,64.56a.24.24,0,0,0-.25-.24H45.08a.24.24,0,0,0-.24.24v5.06a.24.24,0,0,0,.24.24H67.42a.24.24,0,0,0,.25-.24Z"/>
        <path class="sdg10-2" d="M80.59,66.54a25.82,25.82,0,0,0-4.79-9.77l-.05,0a24.15,24.15,0,0,1,1.91,3.39A23.72,23.72,0,0,1,37.59,85.41a22.39,22.39,0,0,1,32.5-30.52l.14.13a.84.84,0,0,0,.51.19A.86.86,0,0,0,71.3,55l.09-.09,2.84-2.81.19-.18a.82.82,0,0,0,0-1.08l-.09-.08A27.51,27.51,0,1,0,38.94,92.86,26,26,0,0,0,80.59,66.54"/>
        <path class="sdg10-2" d="M37.23,14.36l1.46,4.26h1.64L38.85,14.4c.89-.2,1.25-.79,1.25-1.79V11.42c0-1.3-.58-2.08-2.15-2.08H35.67v9.28h1.56Zm0-3.75h.52c.54,0,.77.25.77.75v1.37a.68.68,0,0,1-.77.77h-.52Z"/>
        <polygon class="sdg10-2" points="44.8 17.35 42.64 17.35 42.64 14.53 44.19 14.53 44.19 13.27 42.64 13.27 42.64 10.61 44.8 10.61 44.8 9.34 41.08 9.34 41.08 18.62 44.8 18.62 44.8 17.35"/>
        <path class="sdg10-2" d="M48.19,9.34H45.78v9.28h2.41c1.67,0,2.26-1.07,2.26-2.49v-4.3c0-1.44-.59-2.49-2.26-2.49m.7,7.06c0,.56-.25.94-.89.94h-.66V10.61H48a.81.81,0,0,1,.89.93Z"/>
        <path class="sdg10-2" d="M53,9.34H51.47v7a2.09,2.09,0,0,0,2.33,2.37c1.59,0,2.2-.93,2.2-2.37v-7H54.56v7.17c0,.55-.22.92-.77.92s-.76-.37-.76-.92Z"/>
        <path class="sdg10-2" d="M57,11.74v4.49a2.2,2.2,0,0,0,2.33,2.51c1.66,0,2.2-1,2.2-2.31v-1.6H60.14v1.71c0,.55-.19.9-.75.9s-.79-.4-.79-1v-5c0-.56.23-1,.79-1s.75.33.75.9v1.22h1.42V11.56c0-1.37-.48-2.33-2.2-2.33A2.19,2.19,0,0,0,57,11.74"/>
        <polygon class="sdg10-2" points="62.55 18.62 66.27 18.62 66.27 17.35 64.11 17.35 64.11 14.53 65.65 14.53 65.65 13.27 64.11 13.27 64.11 10.61 66.27 10.61 66.27 9.34 62.55 9.34 62.55 18.62"/>
        <path class="sdg10-2" d="M67.24,9.34v9.28h2.41c1.67,0,2.26-1.07,2.26-2.49v-4.3c0-1.44-.59-2.49-2.26-2.49Zm3.11,2.2V16.4c0,.56-.25.94-.89.94H68.8V10.61h.66a.81.81,0,0,1,.89.93"/>
        <rect class="sdg10-2" x="35.67" y="22.62" width="1.56" height="9.28"/>
        <polygon class="sdg10-2" points="42.77 22.62 41.47 22.62 41.47 27.94 39.78 22.62 38.25 22.62 38.25 31.9 39.56 31.9 39.56 26.07 41.4 31.9 42.77 31.9 42.77 22.62"/>
        <polygon class="sdg10-2" points="47.37 23.89 47.37 22.62 43.64 22.62 43.64 31.9 47.37 31.9 47.37 30.63 45.2 30.63 45.2 27.81 46.75 27.81 46.75 26.55 45.2 26.55 45.2 23.89 47.37 23.89"/>
        <path class="sdg10-2" d="M50.29,22.51A2.21,2.21,0,0,0,47.94,25V29.5a2.14,2.14,0,0,0,1.78,2.4v.63l2.94.55V31.91l-1.15-.22a2.23,2.23,0,0,0,1.15-2.19V25a2.21,2.21,0,0,0-2.37-2.5m.81,7.32c0,.55-.25,1-.81,1s-.79-.41-.79-1V24.77c0-.56.25-1,.79-1s.81.4.81,1Z"/>
        <path class="sdg10-2" d="M53.54,22.62v7A2.09,2.09,0,0,0,55.86,32c1.59,0,2.2-.93,2.2-2.37v-7H56.63v7.17c0,.55-.22.92-.77.92s-.77-.37-.77-.92V22.62Z"/>
        <path class="sdg10-2" d="M60.32,22.62,58.57,31.9h1.48l.27-1.7H62l.29,1.7h1.6L62.1,22.62ZM60.53,29l.62-3.72h0L61.77,29Z"/>
        <polygon class="sdg10-2" points="64.5 22.62 64.5 31.9 67.92 31.9 67.92 30.63 66.06 30.63 66.06 22.62 64.5 22.62"/>
        <rect class="sdg10-2" x="68.62" y="22.62" width="1.56" height="9.28"/>
        <polygon class="sdg10-2" points="73.75 31.9 73.75 23.89 75.04 23.89 75.04 22.62 70.89 22.62 70.89 23.89 72.18 23.89 72.18 31.9 73.75 31.9"/>
        <rect class="sdg10-2" x="75.75" y="22.62" width="1.56" height="9.28"/>
        <polygon class="sdg10-2" points="81.92 30.63 79.76 30.63 79.76 27.81 81.31 27.81 81.31 26.55 79.76 26.55 79.76 23.89 81.92 23.89 81.92 22.62 78.2 22.62 78.2 31.9 81.92 31.9 81.92 30.63"/>
        <path class="sdg10-2" d="M82.54,28.66V29.9A1.93,1.93,0,0,0,84.74,32,2,2,0,0,0,87,29.83v-.45A3.12,3.12,0,0,0,85.76,27l-1-1c-.45-.44-.74-.74-.74-1.26v-.19a.68.68,0,0,1,.74-.77c.49,0,.74.26.74.79v.81h1.42v-.75c0-1.34-.62-2.11-2.18-2.11a1.94,1.94,0,0,0-2.19,2v.32a3.12,3.12,0,0,0,1.3,2.48l.92.92a1.67,1.67,0,0,1,.7,1.31v.36c0,.49-.22.82-.71.82s-.77-.3-.77-.82V28.66Z"/>
    </g>
    <g id="NUMBERS_ONLY">
        <polygon class="sdg10-2" points="12.1 14.66 12.1 31.84 15.87 31.84 15.87 9.39 12.86 9.39 9.38 13.47 9.38 17.41 9.42 17.41 12.06 14.66 12.1 14.66"/>
        <path class="sdg10-2" d="M29.64,26V15.19c0-3.51-1.75-6.06-5.59-6.06s-5.56,2.55-5.56,6.06V26c0,3.47,1.76,6.06,5.56,6.06s5.59-2.58,5.59-6.06m-7.38.6V14.59c0-1.36.5-2.32,1.79-2.32s1.82,1,1.82,2.32V26.64C25.87,28,25.37,29,24,29s-1.79-1-1.79-2.32"/>
    </g>
</svg>
