<svg
    xmlns="http://www.w3.org/2000/svg" viewBox="0 0 111.76 111.77">
    <title>SDG14 Live Below Water</title>
    <g id="English">
        <rect class="sdg14-1" x="-2.05" y="-3.3" width="116.17" height="119.24"/>
        <path class="sdg14-2" d="M85.75,81.49C84.34,79.59,75.26,68,62.54,68,51.48,68,39.66,78,39.66,78s-4.44-9.09-13.53-10H25.9a.37.37,0,0,0-.35.36,1,1,0,0,0,.14.33c1.17,1.94,4.16,7.48,4.16,13s-3,11.09-4.17,13l-.08.12a.36.36,0,0,0,.28.55h.19c9.11-.85,13.57-10,13.57-10s11.82,10,22.88,10C75.26,95.5,84.34,83.92,85.75,82l.1-.13a.38.38,0,0,0,0-.14.37.37,0,0,0,0-.14l-.1-.13M69.61,83.22a3.71,3.71,0,1,1,3.72-3.72,3.72,3.72,0,0,1-3.72,3.72"/>
        <path class="sdg14-2" d="M25.84,46.26l-.07,0a.37.37,0,0,0-.37.37v2.53a.36.36,0,0,0,.11.26c6.14,5.34,12,.34,13.31-1a.34.34,0,0,1,.1-.1.37.37,0,0,1,.2-.07.36.36,0,0,1,.25.1l0,0c6.94,6.62,14.22,1.26,15.73,0l.15-.14a.32.32,0,0,1,.14,0,.34.34,0,0,1,.14,0l.15.14c1.51,1.26,8.79,6.62,15.73,0v0a.35.35,0,0,1,.25-.1.36.36,0,0,1,.2.07.38.38,0,0,1,.1.1c1.35,1.32,7.16,6.32,13.31,1a.37.37,0,0,0,.11-.26V46.61a.36.36,0,0,0-.36-.37l-.08,0-.18.1a11.18,11.18,0,0,1-13.07-1.84l-.15-.15a.39.39,0,0,0-.16,0l-.11,0a.41.41,0,0,0-.19.14c-1.59,1.21-8.86,6.14-15.34.09l-.09-.09a.4.4,0,0,0-.26-.11.39.39,0,0,0-.25.11l-.1.09c-6.48,6-13.76,1.12-15.35-.09a.39.39,0,0,0-.18-.14l-.12,0a.41.41,0,0,0-.15,0l-.16.15A11.18,11.18,0,0,1,26,46.35l-.19-.1"/>
        <path class="sdg14-2" d="M38.82,57.64a.39.39,0,0,1,.1-.1.38.38,0,0,1,.2-.07.36.36,0,0,1,.25.1l0,0c6.94,6.61,14.22,1.25,15.73,0l.15-.14.14,0a.4.4,0,0,1,.15,0l.15.14c1.51,1.25,8.79,6.61,15.73,0v0a.35.35,0,0,1,.25-.1.37.37,0,0,1,.2.07.4.4,0,0,1,.1.1c1.34,1.32,7.16,6.33,13.31,1a.36.36,0,0,0,.11-.26V55.83a.36.36,0,0,0-.36-.36l-.08,0-.18.09a11.19,11.19,0,0,1-13.07-1.83l-.15-.15a.3.3,0,0,0-.16,0,.23.23,0,0,0-.11,0,.31.31,0,0,0-.19.14c-1.58,1.21-8.86,6.14-15.35.09l-.09-.09a.37.37,0,0,0-.26-.1.36.36,0,0,0-.25.1l-.1.09c-6.48,6-13.76,1.12-15.35-.09a.3.3,0,0,0-.18-.14l-.12,0a.3.3,0,0,0-.15,0l-.16.15A11.19,11.19,0,0,1,26,55.57l-.19-.09-.07,0a.36.36,0,0,0-.37.36v2.54a.35.35,0,0,0,.11.26c6.15,5.34,12,.34,13.31-1"/>
        <path class="sdg14-2" d="M36.47,9.27h1.58v8.12h1.89v1.29H36.47Z"/>
        <path class="sdg14-2" d="M40.67,9.27h1.58v9.41H40.67Z"/>
        <path class="sdg14-2" d="M43.16,9.27h3.71v1.29H44.75v2.69h1.58v1.28H44.75v4.15H43.16Z"/>
        <path class="sdg14-2" d="M47.57,9.27h3.78v1.29H49.15v2.69h1.57v1.28H49.15v2.86h2.19v1.29H47.57Z"/>
        <path class="sdg14-2" d="M36.47,22.46h2.29c1.58,0,2.11.74,2.11,2.07v1a1.37,1.37,0,0,1-.94,1.5,1.43,1.43,0,0,1,1.18,1.57V29.8c0,1.33-.6,2.07-2.18,2.07H36.47Zm1.58,4h.56a.67.67,0,0,0,.75-.76V24.51a.67.67,0,0,0-.76-.76h-.54Zm0,1.21v2.94h.69a.68.68,0,0,0,.78-.76V28.4c0-.5-.24-.76-.79-.76Z"/>
        <path class="sdg14-2" d="M41.9,22.46h3.78v1.29H43.48v2.69h1.57v1.28H43.48v2.86h2.19v1.29H41.9Z"/>
        <path class="sdg14-2" d="M46.52,22.46h1.58v8.12H50v1.29H46.52Z"/>
        <path class="sdg14-2" d="M50.65,29.44V24.89a2.4,2.4,0,1,1,4.79,0v4.55a2.4,2.4,0,1,1-4.79,0Zm3.21.25V24.64c0-.57-.25-1-.82-1s-.81.4-.81,1v5.05c0,.57.25,1,.81,1S53.85,30.26,53.85,29.69Z"/>
        <path class="sdg14-2" d="M59.61,26.05l-.89,5.82H57.24L56,22.46H57.5l.74,6h0l.79-6h1.29l.87,6h0l.72-6h1.33l-1.22,9.41h-1.5l-.93-5.82Z"/>
        <path class="sdg14-2" d="M68.83,26.05l-.89,5.82H66.45l-1.26-9.41h1.53l.74,6h0l.79-6h1.29l.87,6h0l.72-6h1.33l-1.22,9.41h-1.5l-.93-5.82Z"/>
        <path class="sdg14-2" d="M72.37,31.87l1.78-9.41h1.8l1.79,9.41H76.12l-.29-1.72H74.14l-.28,1.72Zm2-3h1.26L75,25.11h0Z"/>
        <path class="sdg14-2" d="M77.52,22.46h4.21v1.29H80.42v8.12h-1.6V23.75h-1.3Z"/>
        <path class="sdg14-2" d="M82.46,22.46h3.78v1.29H84v2.69h1.57v1.28H84v2.86h2.19v1.29H82.46Z"/>
        <path class="sdg14-2" d="M88.66,27.55v4.32H87.08V22.46h2.3c1.6,0,2.18.79,2.18,2.11v1.21c0,1-.36,1.61-1.26,1.82l1.51,4.28H90.15Zm0-3.8v2.93h.53A.69.69,0,0,0,90,25.9V24.51c0-.51-.24-.76-.78-.76Z"/>
    </g>
    <g id="NUMBERS_ONLY" data-name="NUMBERS ONLY">
        <polygon class="sdg14-2" points="14.55 9.4 14.55 31.91 10.77 31.91 10.77 14.68 10.73 14.68 8.08 17.43 8.04 17.43 8.04 13.48 11.53 9.4 14.55 9.4"/>
        <path class="sdg14-2" d="M26.08,30.91V27.26H27.6v-3H26.08V8.39H22.36L15.81,24.93v2.33h6.68v3.65ZM19.13,24.3,22.52,15h0V24.3Z"/>
    </g>
</svg>
