<svg
    xmlns="http://www.w3.org/2000/svg" viewBox="0 0 111.76 111.77">
    <title>SDG17 Partnerships for the Goals</title>
    <g id="English">
        <rect class="sdg17-1" x="-2.55" y="-3.3" width="118.82" height="119.24"/>
        <path class="sdg17-2" d="M84.29,67.79a14.57,14.57,0,0,0-14-14.55,14.56,14.56,0,0,0-27.45,0,14.55,14.55,0,0,0-8.4,26,14.55,14.55,0,0,0,22.2,16A14.55,14.55,0,0,0,78.69,79.24a14.54,14.54,0,0,0,5.59-11.46m-16.12-9.7a11.63,11.63,0,0,1-9.91,11.48A11.52,11.52,0,0,1,68,56.3a11.56,11.56,0,0,1,.15,1.79M56.59,91.53A11.59,11.59,0,0,1,56.49,75a11.59,11.59,0,0,1,.11,16.56M45.07,56.3a11.51,11.51,0,0,1,9.76,13.27A11.52,11.52,0,0,1,45.07,56.3M53.73,73A11.58,11.58,0,0,1,38,78.1,11.58,11.58,0,0,1,53.73,73m5.57-.08a11.59,11.59,0,0,1,15.8,5.17,11.59,11.59,0,0,1-15.8-5.17M56.54,46.46a11.64,11.64,0,0,1,10.66,7,14.6,14.6,0,0,0-10.66,8.18,14.59,14.59,0,0,0-10.66-8.18,11.64,11.64,0,0,1,10.66-7M31.73,67.79A11.64,11.64,0,0,1,42.11,56.23,14.78,14.78,0,0,0,42,58.09a14.53,14.53,0,0,0,4.76,10.75A14.59,14.59,0,0,0,35.58,76.4a11.59,11.59,0,0,1-3.85-8.62m5,15.52A11.51,11.51,0,0,1,37,80.89a14.53,14.53,0,0,0,13.36-.37,14.49,14.49,0,0,0,3.86,12.8,11.6,11.6,0,0,1-17.48-10m39.54-.1A11.61,11.61,0,0,1,59,93.3a14.5,14.5,0,0,0,3.73-12.79,14.52,14.52,0,0,0,13.4.37,11.52,11.52,0,0,1,.24,2.32M66.43,68.75A14.52,14.52,0,0,0,71.1,58.09,14.78,14.78,0,0,0,71,56.23a11.61,11.61,0,0,1,6.56,20.15,14.58,14.58,0,0,0-11.1-7.62"/>
        <path class="sdg17-2" d="M35.66,9.35h2.28c1.55,0,2.11.77,2.11,2v1.93c0,1.28-.57,2.06-2.11,2.06H37.2v3.1H35.66Zm1.54,1.25v3.6h.56a.66.66,0,0,0,.75-.75v-2.1c0-.5-.23-.74-.75-.74Z"/>
        <path class="sdg17-2" d="M40.25,18.49,42,9.35h1.75l1.74,9.14H43.88l-.28-1.67H42l-.27,1.67Zm1.93-2.9H43.4l-.61-3.67h0Z"/>
        <path class="sdg17-2" d="M47.76,14.3v4.19H46.23V9.35h2.24c1.55,0,2.11.77,2.11,2v1.17c0,1-.35,1.56-1.23,1.77l1.47,4.15H49.2Zm0-3.69v2.84h.51A.67.67,0,0,0,49,12.7V11.35c0-.5-.23-.74-.76-.74Z"/>
        <polygon class="sdg17-2" points="51.13 9.35 55.21 9.35 55.21 10.61 53.94 10.61 53.94 18.49 52.39 18.49 52.39 10.61 51.13 10.61 51.13 9.35"/>
        <polygon class="sdg17-2" points="57.48 12.75 57.48 18.49 56.18 18.49 56.18 9.35 57.69 9.35 59.35 14.6 59.35 9.35 60.63 9.35 60.63 18.49 59.28 18.49 57.48 12.75"/>
        <polygon class="sdg17-2" points="61.89 9.35 65.55 9.35 65.55 10.61 63.43 10.61 63.43 13.22 64.95 13.22 64.95 14.46 63.43 14.46 63.43 17.24 65.55 17.24 65.55 18.49 61.89 18.49 61.89 9.35"/>
        <path class="sdg17-2" d="M68,14.3v4.19H66.51V9.35h2.24c1.55,0,2.12.77,2.12,2v1.17c0,1-.35,1.56-1.23,1.77l1.47,4.15H69.49Zm0-3.69v2.84h.51a.67.67,0,0,0,.75-.75V11.35c0-.5-.23-.74-.75-.74Z"/>
        <path class="sdg17-2" d="M71.63,16.52V15.3h1.43v1.25c0,.51.23.81.75.81s.7-.32.7-.81V16.2a1.65,1.65,0,0,0-.69-1.3l-.9-.9a3.08,3.08,0,0,1-1.28-2.44v-.31a1.91,1.91,0,0,1,2.16-2c1.54,0,2.14.75,2.14,2.08v.74h-1.4v-.8c0-.53-.24-.78-.73-.78a.67.67,0,0,0-.73.76v.19c0,.51.28.81.73,1.24l1,1A3.07,3.07,0,0,1,76,16v.44A2,2,0,0,1,73.8,18.6a1.9,1.9,0,0,1-2.17-2.08"/>
        <polygon class="sdg17-2" points="80 14.46 78.52 14.46 78.52 18.49 76.98 18.49 76.98 9.35 78.52 9.35 78.52 13.22 80 13.22 80 9.35 81.54 9.35 81.54 18.49 80 18.49 80 14.46"/>
        <rect class="sdg17-2" x="82.56" y="9.35" width="1.54" height="9.14"/>
        <path class="sdg17-2" d="M85.12,9.35h2.28c1.55,0,2.11.77,2.11,2v1.93c0,1.28-.57,2.06-2.11,2.06h-.74v3.1H85.12Zm1.54,1.25v3.6h.56a.66.66,0,0,0,.76-.75v-2.1c0-.5-.23-.74-.76-.74Z"/>
        <path class="sdg17-2" d="M90.11,16.52V15.3h1.43v1.25c0,.51.23.81.76.81s.7-.32.7-.81V16.2a1.65,1.65,0,0,0-.69-1.3l-.9-.9a3.08,3.08,0,0,1-1.28-2.44v-.31a1.91,1.91,0,0,1,2.15-2c1.54,0,2.14.75,2.14,2.08v.74H93v-.8c0-.53-.24-.78-.73-.78a.67.67,0,0,0-.73.76v.19c0,.51.28.81.73,1.24l1,1A3.07,3.07,0,0,1,94.51,16v.44a2,2,0,0,1-2.24,2.14,1.9,1.9,0,0,1-2.17-2.08"/>
        <polygon class="sdg17-2" points="35.67 22.63 39.32 22.63 39.32 23.9 37.23 23.9 37.23 26.56 38.79 26.56 38.79 27.81 37.23 27.81 37.23 31.91 35.67 31.91 35.67 22.63"/>
        <path class="sdg17-2" d="M39.87,29.51V25a2.36,2.36,0,1,1,4.72,0v4.49a2.36,2.36,0,1,1-4.72,0m3.16.25v-5c0-.56-.25-1-.81-1s-.79.4-.79,1v5c0,.56.25,1,.79,1s.81-.4.81-1"/>
        <path class="sdg17-2" d="M47.16,27.65v4.25H45.6V22.63h2.27c1.57,0,2.15.78,2.15,2.08V25.9c0,1-.36,1.59-1.25,1.79l1.49,4.21H48.62Zm0-3.75v2.89h.52a.68.68,0,0,0,.77-.77V24.65c0-.51-.23-.75-.77-.75Z"/>
        <polygon class="sdg17-2" points="52.49 22.63 56.63 22.63 56.63 23.9 55.35 23.9 55.35 31.91 53.77 31.91 53.77 23.9 52.49 23.9 52.49 22.63"/>
        <polygon class="sdg17-2" points="60.42 27.81 58.92 27.81 58.92 31.91 57.36 31.91 57.36 22.63 58.92 22.63 58.92 26.56 60.42 26.56 60.42 22.63 62 22.63 62 31.91 60.42 31.91 60.42 27.81"/>
        <polygon class="sdg17-2" points="63.01 22.63 66.73 22.63 66.73 23.9 64.57 23.9 64.57 26.56 66.12 26.56 66.12 27.81 64.57 27.81 64.57 30.63 66.73 30.63 66.73 31.91 63.01 31.91 63.01 22.63"/>
        <path class="sdg17-2" d="M71.72,27h2.22v5H72.81v-1A1.4,1.4,0,0,1,71.32,32c-1.34,0-2-1.07-2-2.5V25a2.2,2.2,0,0,1,2.34-2.5c1.72,0,2.23,1,2.23,2.33v.82H72.51v-.94c0-.58-.22-.9-.78-.9s-.81.4-.81,1v5c0,.56.23,1,.77,1s.77-.29.77-.89V28.18h-.74Z"/>
        <path class="sdg17-2" d="M74.82,29.51V25a2.36,2.36,0,1,1,4.72,0v4.49a2.36,2.36,0,1,1-4.72,0m3.16.25v-5c0-.56-.25-1-.81-1s-.79.4-.79,1v5c0,.56.25,1,.79,1s.81-.4.81-1"/>
        <path class="sdg17-2" d="M80,31.91l1.75-9.28h1.78l1.76,9.28h-1.6l-.29-1.7H81.73l-.27,1.7Zm2-2.94h1.25l-.62-3.72h0Z"/>
        <polygon class="sdg17-2" points="86.17 22.63 87.73 22.63 87.73 30.63 89.59 30.63 89.59 31.91 86.17 31.91 86.17 22.63"/>
        <path class="sdg17-2" d="M90.15,29.91V28.66H91.6v1.27c0,.52.23.82.76.82s.71-.33.71-.82v-.36a1.68,1.68,0,0,0-.7-1.31l-.92-.92a3.13,3.13,0,0,1-1.3-2.48v-.31a1.93,1.93,0,0,1,2.19-2c1.56,0,2.18.77,2.18,2.11v.75H93.1v-.81c0-.53-.25-.79-.74-.79a.68.68,0,0,0-.74.77v.19c0,.52.29.82.74,1.26l1,1a3.11,3.11,0,0,1,1.26,2.41v.45A2,2,0,0,1,92.35,32a1.93,1.93,0,0,1-2.2-2.11"/>
    </g>
    <g id="NUMBERS_ONLY" data-name="NUMBERS ONLY">
        <polygon class="sdg17-2" points="17.39 8.48 17.39 30.9 13.62 30.9 13.62 13.74 13.59 13.74 10.94 16.48 10.91 16.48 10.91 12.55 14.38 8.48 17.39 8.48"/>
        <polygon class="sdg17-2" points="19.11 8.48 28.57 8.48 28.57 11.95 23.64 30.9 19.91 30.9 24.93 11.56 19.11 11.56 19.11 8.48"/>
    </g>
</svg>
