<svg
    xmlns="http://www.w3.org/2000/svg" viewBox="0 0 111.76 111.77">
    <title>SDG11 Sustainable Cities and Communities</title>
    <g id="English">
        <rect class="sdg11-1" x="-1.23" y="-1.83" width="117.51" height="118.33"/>
        <path class="sdg11-2" d="M19.23,85.09H36a.41.41,0,0,0,.3-.69l0,0L28,73.55l-.08-.09a.41.41,0,0,0-.3-.13.42.42,0,0,0-.27.11l-.05.06-.08.09L19,84.29l-.13.15a.41.41,0,0,0-.07.23A.41.41,0,0,0,19.23,85.09Z"/>
        <path class="sdg11-2" d="M36,86.61H19.14a.41.41,0,0,0-.41.41v13.18a.41.41,0,0,0,.41.41h5.42V92.33a.41.41,0,0,1,.41-.41h5a.41.41,0,0,1,.41.41v8.29H36a.41.41,0,0,0,.41-.41V87A.41.41,0,0,0,36,86.61Z"/>
        <path class="sdg11-2" d="M94.21,83.16H77.53a.4.4,0,0,0-.41.4V100.4a.4.4,0,0,0,.41.4H94.21a.4.4,0,0,0,.41-.4V83.56a.4.4,0,0,0-.41-.4m-9.12,11a.4.4,0,0,1-.41.4h-5a.4.4,0,0,1-.41-.4v-3a.4.4,0,0,1,.41-.4h5a.4.4,0,0,1,.41.4Zm0-5.59a.4.4,0,0,1-.41.4h-5a.4.4,0,0,1-.41-.4v-3a.4.4,0,0,1,.41-.4h5a.4.4,0,0,1,.41.4Zm7.61,5.59a.4.4,0,0,1-.41.4h-5a.4.4,0,0,1-.41-.4v-3a.4.4,0,0,1,.41-.4h5a.4.4,0,0,1,.41.4Zm0-5.59a.4.4,0,0,1-.41.4h-5a.4.4,0,0,1-.41-.4v-3a.4.4,0,0,1,.41-.4h5a.4.4,0,0,1,.41.4Z"/>
        <path class="sdg11-2" d="M55.45,44.09H39.13a.4.4,0,0,0-.4.4v55.76a.4.4,0,0,0,.4.4H55.45a.4.4,0,0,0,.4-.4V44.49a.4.4,0,0,0-.4-.4M45.74,94.29a.21.21,0,0,1-.21.21H41.79a.21.21,0,0,1-.21-.21V90.13a.21.21,0,0,1,.21-.21h3.74a.21.21,0,0,1,.21.21Zm0-9.56a.21.21,0,0,1-.21.21H41.79a.21.21,0,0,1-.21-.21V80.57a.21.21,0,0,1,.21-.21h3.74a.21.21,0,0,1,.21.21Zm0-9.56a.21.21,0,0,1-.21.21H41.79a.21.21,0,0,1-.21-.21V71a.21.21,0,0,1,.21-.21h3.74a.21.21,0,0,1,.21.21Zm0-9.56a.21.21,0,0,1-.21.21H41.79a.21.21,0,0,1-.21-.21V61.45a.21.21,0,0,1,.21-.21h3.74a.21.21,0,0,1,.21.21Zm0-9.56a.21.21,0,0,1-.21.21H41.79a.21.21,0,0,1-.21-.21V51.89a.21.21,0,0,1,.21-.21h3.74a.21.21,0,0,1,.21.21Zm7.33,38.24a.22.22,0,0,1-.22.21H49.12a.21.21,0,0,1-.21-.21V90.13a.21.21,0,0,1,.21-.21h3.73a.21.21,0,0,1,.22.21Zm0-9.56a.21.21,0,0,1-.22.21H49.12a.21.21,0,0,1-.21-.21V80.57a.21.21,0,0,1,.21-.21h3.73a.21.21,0,0,1,.22.21Zm0-9.56a.22.22,0,0,1-.22.21H49.12a.21.21,0,0,1-.21-.21V71a.21.21,0,0,1,.21-.21h3.73a.22.22,0,0,1,.22.21Zm0-9.56a.22.22,0,0,1-.22.21H49.12a.21.21,0,0,1-.21-.21V61.45a.21.21,0,0,1,.21-.21h3.73a.21.21,0,0,1,.22.21Zm0-9.56a.21.21,0,0,1-.22.21H49.12a.21.21,0,0,1-.21-.21V51.89a.21.21,0,0,1,.21-.21h3.73a.21.21,0,0,1,.22.21Z"/>
        <rect class="sdg11-2" x="77.14" y="77.78" width="17.45" height="4.03" rx="0.34" ry="0.34"/>
        <path class="sdg11-2" d="M75.16,54.62a.43.43,0,0,0-.41-.31.42.42,0,0,0-.23.08l0,0-.14.17-16,20.34-.07.1a.46.46,0,0,0-.14.32v25a.4.4,0,0,0,.4.4H74.8a.4.4,0,0,0,.4-.4V54.78A.4.4,0,0,0,75.16,54.62Zm-6.75,11,.11-.14c1.1-1.41,2.95-3.68,3.85-4.79l.12-.14a.47.47,0,0,1,.36-.17.46.46,0,0,1,.44.37v5.15a.46.46,0,0,1-.44.46H68.76a.46.46,0,0,1-.35-.73ZM65.87,94.15a.4.4,0,0,1-.4.4H60.61a.4.4,0,0,1-.4-.4v-3a.4.4,0,0,1,.4-.4h4.86a.4.4,0,0,1,.4.4Zm0-5.62a.4.4,0,0,1-.4.4H60.61a.4.4,0,0,1-.4-.4v-3a.4.4,0,0,1,.4-.4h4.86a.4.4,0,0,1,.4.4Zm0-5.62a.4.4,0,0,1-.4.4H60.61a.4.4,0,0,1-.4-.4v-3a.4.4,0,0,1,.4-.4h4.86a.4.4,0,0,1,.4.4Zm0-12.33v6.71a.4.4,0,0,1-.4.4H60.62a.4.4,0,0,1-.4-.4v-.84a.45.45,0,0,1,0-.15l0,0,0-.05,0-.06c.62-.89,3.43-4.34,4.6-5.79l.12-.14a.47.47,0,0,1,.36-.17.46.46,0,0,1,.44.37ZM73.3,94.15a.4.4,0,0,1-.4.4H68a.4.4,0,0,1-.4-.4v-3a.4.4,0,0,1,.4-.4H72.9a.4.4,0,0,1,.4.4Zm0-5.62a.4.4,0,0,1-.4.4H68a.4.4,0,0,1-.4-.4v-3a.4.4,0,0,1,.4-.4H72.9a.4.4,0,0,1,.4.4Zm0-5.62a.4.4,0,0,1-.4.4H68a.4.4,0,0,1-.4-.4v-3a.4.4,0,0,1,.4-.4H72.9a.4.4,0,0,1,.4.4Zm0-5.63a.4.4,0,0,1-.4.4H68a.4.4,0,0,1-.4-.4v-3a.4.4,0,0,1,.4-.4H72.9a.4.4,0,0,1,.4.4Zm0-5.63a.4.4,0,0,1-.4.4H68a.4.4,0,0,1-.4-.4v-3a.4.4,0,0,1,.4-.4H72.9a.4.4,0,0,1,.4.4Z"/>
        <path class="sdg11-2" d="M32.7,18.6a2,2,0,0,0,2.24-2.14V16a3.07,3.07,0,0,0-1.24-2.37l-1-1c-.44-.43-.73-.73-.73-1.24v-.19a.67.67,0,0,1,.73-.76c.48,0,.73.26.73.78v.79h1.4v-.74c0-1.32-.6-2.08-2.14-2.08a1.91,1.91,0,0,0-2.16,2v.31A3.08,3.08,0,0,0,31.82,14l.9.9a1.65,1.65,0,0,1,.69,1.29v.35c0,.49-.22.81-.7.81s-.75-.3-.75-.81V15.3H30.53v1.23A1.9,1.9,0,0,0,32.7,18.6"/>
        <path class="sdg11-2" d="M40.06,16.27V9.35H38.65v7.06c0,.54-.22.9-.76.9s-.75-.36-.75-.9V9.35H35.6v6.92a2.06,2.06,0,0,0,2.29,2.33c1.56,0,2.17-.92,2.17-2.33"/>
        <path class="sdg11-2" d="M45.25,16.45V16A3.08,3.08,0,0,0,44,13.64l-1-1c-.44-.43-.73-.73-.73-1.24v-.19a.68.68,0,0,1,.73-.76c.49,0,.73.25.73.78v.79h1.4v-.74c0-1.32-.6-2.08-2.14-2.08a1.91,1.91,0,0,0-2.16,2v.31A3.08,3.08,0,0,0,42.14,14l.9.9a1.65,1.65,0,0,1,.69,1.29v.35c0,.48-.21.81-.7.81s-.75-.3-.75-.81V15.3H40.85v1.23A1.9,1.9,0,0,0,43,18.6a2,2,0,0,0,2.24-2.14"/>
        <polygon class="sdg11-2" points="49.7 9.35 45.62 9.35 45.62 10.61 46.89 10.61 46.89 18.49 48.44 18.49 48.44 10.61 49.7 10.61 49.7 9.35"/>
        <path class="sdg11-2" d="M52.89,9.35H51.14l-1.72,9.14h1.46l.27-1.67h1.63l.28,1.67h1.58Zm-1.55,6.24.6-3.67h0l.61,3.67Z"/>
        <rect class="sdg11-2" x="55.25" y="9.35" width="1.54" height="9.14"/>
        <polygon class="sdg11-2" points="62.11 18.49 62.11 9.35 60.83 9.35 60.83 14.59 59.17 9.35 57.66 9.35 57.66 18.49 58.95 18.49 58.95 12.75 60.76 18.49 62.11 18.49"/>
        <path class="sdg11-2" d="M64.33,16.82H66l.28,1.67h1.58L66.08,9.35H64.33L62.6,18.49h1.46Zm.81-4.89h0l.61,3.67H64.53Z"/>
        <path class="sdg11-2" d="M72.58,12.29v-.93c0-1.29-.51-2-2-2H68.31v9.14H70.7c1.54,0,2.11-.71,2.11-2V15.27a1.39,1.39,0,0,0-1.14-1.52,1.33,1.33,0,0,0,.92-1.46m-2.73-1.68h.53a.65.65,0,0,1,.74.74v1.12a.65.65,0,0,1-.73.74h-.54Zm1.43,5.89a.66.66,0,0,1-.75.74h-.67V14.38h.66c.54,0,.77.26.77.74Z"/>
        <polygon class="sdg11-2" points="74.98 9.35 73.44 9.35 73.44 18.49 76.81 18.49 76.81 17.24 74.98 17.24 74.98 9.35"/>
        <polygon class="sdg11-2" points="81.04 10.61 81.04 9.35 77.37 9.35 77.37 18.49 81.04 18.49 81.04 17.24 78.91 17.24 78.91 14.46 80.43 14.46 80.43 13.22 78.91 13.22 78.91 10.61 81.04 10.61"/>
        <path class="sdg11-2" d="M85.91,18.6c1.63,0,2.17-1,2.17-2.28V14.74h-1.4v1.69c0,.54-.19.89-.74.89s-.78-.39-.78-.94V11.47c0-.55.23-.94.78-.94s.74.32.74.89v1.2h1.4V11.54c0-1.35-.47-2.29-2.17-2.29a2.16,2.16,0,0,0-2.29,2.47v4.42a2.16,2.16,0,0,0,2.29,2.47"/>
        <rect class="sdg11-2" x="88.8" y="9.35" width="1.53" height="9.14"/>
        <polygon class="sdg11-2" points="93.74 18.49 93.74 10.61 95 10.61 95 9.35 90.92 9.35 90.92 10.61 92.19 10.61 92.19 18.49 93.74 18.49"/>
        <rect class="sdg11-2" x="95.61" y="9.35" width="1.53" height="9.14"/>
        <polygon class="sdg11-2" points="97.93 18.49 101.59 18.49 101.59 17.24 99.47 17.24 99.47 14.46 100.99 14.46 100.99 13.22 99.47 13.22 99.47 10.61 101.59 10.61 101.59 9.35 97.93 9.35 97.93 18.49"/>
        <path class="sdg11-2" d="M104.2,12.67c-.44-.43-.73-.73-.73-1.24v-.19a.67.67,0,0,1,.73-.76c.49,0,.73.26.73.78v.79h1.4v-.74c0-1.32-.61-2.08-2.14-2.08a1.9,1.9,0,0,0-2.15,2v.31A3.08,3.08,0,0,0,103.31,14l.9.9a1.64,1.64,0,0,1,.69,1.29v.35c0,.49-.21.81-.7.81s-.75-.3-.75-.81V15.3H102v1.23a1.9,1.9,0,0,0,2.17,2.08,2,2,0,0,0,2.24-2.14V16a3.08,3.08,0,0,0-1.24-2.37Z"/>
        <path class="sdg11-2" d="M32.28,22.77,30.55,31.9H32l.27-1.67h1.63l.28,1.67h1.58L34,22.77Zm.2,6.24.6-3.67h0L33.7,29Z"/>
        <polygon class="sdg11-2" points="39.7 28.01 38.04 22.77 36.53 22.77 36.53 31.9 37.83 31.9 37.83 26.16 39.63 31.9 40.98 31.9 40.98 22.77 39.7 22.77 39.7 28.01"/>
        <path class="sdg11-2" d="M44.36,22.76H42V31.9h2.37c1.64,0,2.22-1.05,2.22-2.45V25.22c0-1.41-.58-2.45-2.22-2.45m.69,7c0,.55-.24.93-.87.93h-.65V24h.65a.8.8,0,0,1,.87.92Z"/>
        <path class="sdg11-2" d="M51.44,22.66a2.16,2.16,0,0,0-2.29,2.47v4.42A2.16,2.16,0,0,0,51.44,32c1.63,0,2.17-1,2.17-2.28V28.16H52.2v1.68c0,.54-.19.89-.74.89s-.78-.39-.78-.94V24.88c0-.55.23-.94.78-.94s.74.32.74.89V26h1.4V24.95c0-1.35-.47-2.29-2.17-2.29"/>
        <path class="sdg11-2" d="M56.9,22.66a2.17,2.17,0,0,0-2.32,2.47v4.42a2.33,2.33,0,1,0,4.65,0V25.12a2.18,2.18,0,0,0-2.33-2.47m.79,7.13c0,.55-.24.94-.79.94s-.78-.39-.78-.94V24.88c0-.55.24-.94.78-.94s.79.39.79.94Z"/>
        <polygon class="sdg11-2" points="63.04 27.91 63.02 27.91 62.03 22.76 60.24 22.76 60.24 31.9 61.5 31.9 61.5 25.97 61.53 25.97 62.67 31.9 63.39 31.9 64.42 25.97 64.47 25.97 64.47 31.9 65.87 31.9 65.87 22.76 63.93 22.76 63.04 27.91"/>
        <polygon class="sdg11-2" points="69.68 27.91 69.67 27.91 68.67 22.76 66.88 22.76 66.88 31.9 68.15 31.9 68.15 25.97 68.17 25.97 69.32 31.9 70.03 31.9 71.07 25.97 71.11 25.97 71.11 31.9 72.51 31.9 72.51 22.76 70.57 22.76 69.68 27.91"/>
        <path class="sdg11-2" d="M76.57,29.83c0,.54-.21.9-.75.9s-.75-.36-.75-.9V22.77H73.52v6.91A2.06,2.06,0,0,0,75.81,32c1.56,0,2.17-.92,2.17-2.33V22.77H76.57Z"/>
        <polygon class="sdg11-2" points="82.16 28.01 80.5 22.77 78.99 22.77 78.99 31.9 80.29 31.9 80.29 26.16 82.09 31.9 83.44 31.9 83.44 22.77 82.16 22.77 82.16 28.01"/>
        <rect class="sdg11-2" x="84.45" y="22.76" width="1.54" height="9.14"/>
        <polygon class="sdg11-2" points="86.82 24.02 88.09 24.02 88.09 31.9 89.64 31.9 89.64 24.02 90.91 24.02 90.91 22.76 86.82 22.76 86.82 24.02"/>
        <rect class="sdg11-2" x="91.75" y="22.76" width="1.54" height="9.14"/>
        <polygon class="sdg11-2" points="94.32 31.9 97.98 31.9 97.98 30.65 95.85 30.65 95.85 27.87 97.38 27.87 97.38 26.63 95.85 26.63 95.85 24.02 97.98 24.02 97.98 22.76 94.32 22.76 94.32 31.9"/>
        <path class="sdg11-2" d="M101,26.08c-.44-.43-.73-.73-.73-1.24v-.19a.67.67,0,0,1,.73-.75c.49,0,.73.26.73.78v.8h1.4v-.74c0-1.32-.61-2.08-2.14-2.08a1.91,1.91,0,0,0-2.16,2V25a3.08,3.08,0,0,0,1.28,2.44l.9.9a1.65,1.65,0,0,1,.69,1.29V30c0,.48-.22.81-.7.81s-.75-.3-.75-.81V28.71H98.78v1.23A1.9,1.9,0,0,0,100.95,32a2,2,0,0,0,2.24-2.14v-.45a3.07,3.07,0,0,0-1.24-2.37Z"/>
    </g>
    <g id="NUMBERS_ONLY">
        <polygon class="sdg11-2" points="8.72 13.2 8.72 17.13 8.75 17.13 11.4 14.39 11.43 14.39 11.43 31.55 15.2 31.55 15.2 9.13 12.19 9.13 8.72 13.2"/>
        <polygon class="sdg11-2" points="17.32 13.2 17.32 17.13 17.35 17.13 20 14.39 20.03 14.39 20.03 31.55 23.8 31.55 23.8 9.13 20.79 9.13 17.32 13.2"/>
    </g>
</svg>
