<svg
    xmlns="http://www.w3.org/2000/svg" viewBox="0 0 111.76 111.76">
    <title>SDG3 Good Health and Well-Being</title>
    <g id="English">
        <rect class="sdg3-1" x="-2.83" y="-1.93" width="118.46" height="117.08"/>
        <path class="sdg3-2" d="M60.06,94.51H60a1.28,1.28,0,0,1-1.19-1.07l-4-23.16-6,11.17a1.29,1.29,0,0,1-2.4-.43L43.83,63.15,39.15,73.66a1.29,1.29,0,0,1-1.17.76H19.79a1.29,1.29,0,1,1,0-2.57H37.14L43.3,58a1.29,1.29,0,0,1,2.45.34L48.38,76.8l5.94-11a1.29,1.29,0,0,1,2.4.39L60.4,87.63,73.82,43a1.29,1.29,0,0,1,2.39-.19L83.27,57.5A1.29,1.29,0,0,1,81,58.61L75.33,46.95l-14,46.65A1.28,1.28,0,0,1,60.06,94.51Z"/>
        <path class="sdg3-2" d="M33.55,13.52H35.8v5H34.66v-1a1.43,1.43,0,0,1-1.51,1.14c-1.36,0-2-1.08-2-2.54V11.57A2.23,2.23,0,0,1,33.54,9c1.75,0,2.26,1,2.26,2.36v.83H34.36v-1c0-.58-.22-.92-.79-.92s-.82.4-.82,1v5.05c0,.57.24,1,.78,1s.78-.29.78-.9V14.77h-.75Z"/>
        <path class="sdg3-2" d="M36.7,16.12V11.57a2.4,2.4,0,1,1,4.79,0v4.55a2.4,2.4,0,1,1-4.79,0Zm3.21.25V11.32c0-.57-.25-1-.82-1s-.81.4-.81,1v5.05c0,.57.25,1,.81,1S39.91,16.94,39.91,16.37Z"/>
        <path class="sdg3-2" d="M42.39,16.12V11.57a2.4,2.4,0,1,1,4.79,0v4.55a2.4,2.4,0,1,1-4.79,0Zm3.21.25V11.32c0-.57-.25-1-.82-1s-.81.4-.81,1v5.05c0,.57.25,1,.81,1S45.6,16.94,45.6,16.37Z"/>
        <path class="sdg3-2" d="M52.82,11.66V16c0,1.44-.6,2.53-2.29,2.53H48.08V9.14h2.44C52.22,9.14,52.82,10.21,52.82,11.66Zm-2.48,5.6c.65,0,.9-.39.9-1V11.37a.82.82,0,0,0-.9-.94h-.67v6.83Z"/>
        <path class="sdg3-2" d="M58.28,14.4H56.76v4.15H55.17V9.14h1.58v4h1.53v-4h1.6v9.41h-1.6Z"/>
        <path class="sdg3-2" d="M60.78,9.14h3.78v1.29H62.36v2.69h1.57V14.4H62.36v2.86h2.19v1.29H60.78Z"/>
        <path class="sdg3-2" d="M65.15,18.55l1.78-9.41h1.8l1.79,9.41H68.9l-.29-1.72H66.93l-.28,1.72Zm2-3H68.4l-.62-3.78h0Z"/>
        <path class="sdg3-2" d="M71.18,9.14h1.58v8.12h1.89v1.29H71.18Z"/>
        <path class="sdg3-2" d="M74.29,9.14h4.21v1.29H77.19v8.12h-1.6V10.43h-1.3Z"/>
        <path class="sdg3-2" d="M82.34,14.4H80.81v4.15H79.23V9.14h1.58v4h1.53v-4h1.6v9.41h-1.6Z"/>
        <path class="sdg3-2" d="M30.91,31.74l1.78-9.41h1.8l1.79,9.41H34.66L34.37,30H32.69l-.28,1.72Zm2-3h1.26L33.54,25h0Z"/>
        <path class="sdg3-2" d="M38.27,25.82v5.91H36.94V22.32h1.55l1.71,5.4v-5.4h1.32v9.41H40.13Z"/>
        <path class="sdg3-2" d="M47.15,24.85v4.36c0,1.44-.6,2.53-2.29,2.53H42.42V22.32h2.44C46.55,22.32,47.15,23.39,47.15,24.85Zm-2.48,5.6c.65,0,.9-.39.9-1V24.56a.82.82,0,0,0-.9-.94H44v6.83Z"/>
        <path class="sdg3-2" d="M52.93,25.92,52,31.74H50.55l-1.26-9.41h1.53l.74,6h0l.79-6h1.29l.87,6h0l.72-6h1.33l-1.22,9.41h-1.5l-.93-5.82Z"/>
        <path class="sdg3-2" d="M57.27,22.32H61v1.29H58.85v2.69h1.57v1.28H58.85v2.86H61v1.29H57.27Z"/>
        <path class="sdg3-2" d="M61.89,22.32h1.58v8.12h1.89v1.29H61.89Z"/>
        <path class="sdg3-2" d="M66.08,22.32h1.58v8.12h1.89v1.29H66.08Z"/>
        <path class="sdg3-2" d="M72.6,22.32h2.29c1.58,0,2.11.74,2.11,2.07v1a1.37,1.37,0,0,1-.94,1.5,1.43,1.43,0,0,1,1.18,1.57v1.25c0,1.33-.6,2.07-2.18,2.07H72.6Zm1.58,4h.56a.67.67,0,0,0,.75-.76V24.38a.67.67,0,0,0-.76-.76h-.54Zm0,1.21v2.94h.69a.68.68,0,0,0,.78-.76V28.26c0-.5-.24-.76-.79-.76Z"/>
        <path class="sdg3-2" d="M78,22.32H81.8v1.29H79.61v2.69h1.57v1.28H79.61v2.86H81.8v1.29H78Z"/>
        <path class="sdg3-2" d="M82.65,22.32h1.58v9.41H82.65Z"/>
        <path class="sdg3-2" d="M86.48,25.82v5.91H85.15V22.32H86.7l1.71,5.4v-5.4h1.32v9.41H88.34Z"/>
        <path class="sdg3-2" d="M93,26.71h2.25v5H94.13v-1a1.43,1.43,0,0,1-1.51,1.14c-1.36,0-2-1.08-2-2.54V24.75A2.23,2.23,0,0,1,93,22.21c1.75,0,2.26,1,2.26,2.36v.83H93.82v-1c0-.58-.22-.92-.79-.92s-.82.4-.82,1v5.05c0,.57.24,1,.78,1s.78-.29.78-.9V28H93Z"/>
        <path class="sdg3-2" d="M68.94,26.12h2.24v1.29H68.94Z"/>
    </g>
    <g id="NUMBERS_ONLY">
        <path class="sdg3-2" d="M16,31.22c3.82,0,5.48-2,5.48-5.15V22.76c0-2.06-.9-3.39-2.79-3.82a3.6,3.6,0,0,0,2.59-3.65v-2c0-3.19-1.53-5.15-5-5.15C12.32,8.18,11,10.5,11,13.82v2h3.45V13.52c0-1.39.43-2.19,1.63-2.19s1.63.8,1.63,2v2.42c0,1.2-.8,1.83-2,1.83H14.22V20.5h1.6c1.33,0,1.86.63,1.86,1.83V26c0,1.19-.53,2-1.69,2s-1.76-.86-1.76-2.19V22.66H10.77v3c0,3.42,1.36,5.61,5.21,5.61"/>
        <path class="sdg3-2" d="M93.39,69.84c0-3.14-2-5.69-5.07-5.69-1.53,0-3.37,1.67-4.37,2.7-1-1-2.72-2.7-4.25-2.7-3.05,0-5.19,2.55-5.19,5.69a5.75,5.75,0,0,0,1.62,4h0L84,81.71l7.82-7.83h0A5.76,5.76,0,0,0,93.39,69.84Z"/>
    </g>
</svg>
