<svg
    xmlns="http://www.w3.org/2000/svg" viewBox="0 0 111.76 111.77">
    <title>SDG5 Gender Equality</title>
    <g id="English">
        <rect class="sdg5-1" x="-1.93" y="-1.93" width="117.68" height="117.09"/>
        <path class="sdg5-2" d="M81.41,42.29H67.52a.18.18,0,0,0-.18.18v4.62a.18.18,0,0,0,.18.18H73L66.91,53.4A18.19,18.19,0,1,0,53.34,85.75v5.32H47.86a.18.18,0,0,0-.18.18v4.95a.18.18,0,0,0,.18.18h5.48v5.23a.18.18,0,0,0,.18.18h4.95a.18.18,0,0,0,.18-.18V96.37h5.48a.18.18,0,0,0,.18-.18V91.24a.18.18,0,0,0-.18-.18H58.64V85.66A18.18,18.18,0,0,0,70.56,57.25l6.05-6.05v5.17a.18.18,0,0,0,.18.18h4.61a.18.18,0,0,0,.18-.18V42.47a.18.18,0,0,0-.18-.18M55.69,81.1A13.39,13.39,0,1,1,69.08,67.71,13.41,13.41,0,0,1,55.69,81.1"/>
        <path class="sdg5-2" d="M63.87,62.22H47.63a.17.17,0,0,0-.18.16v3.93a.17.17,0,0,0,.18.16H63.87a.17.17,0,0,0,.18-.16V62.37a.17.17,0,0,0-.18-.16"/>
        <path class="sdg5-2" d="M63.87,69.24H47.63a.17.17,0,0,0-.18.16v3.93a.17.17,0,0,0,.18.16H63.87a.17.17,0,0,0,.18-.16V69.4a.17.17,0,0,0-.18-.16"/>
        <path class="sdg5-2" d="M33.84,18.6a1.38,1.38,0,0,0,1.47-1.1v1h1.1V13.61H34.23v1.21H35v1.62c0,.59-.26.88-.76.88s-.75-.39-.75-.94V11.47c0-.55.24-.94.8-.94s.77.32.77.89v.93h1.4v-.81c0-1.35-.5-2.29-2.19-2.29a2.16,2.16,0,0,0-2.3,2.47v4.42c0,1.41.61,2.47,1.92,2.47"/>
        <polygon class="sdg5-2" points="41.09 17.24 38.96 17.24 38.96 14.46 40.48 14.46 40.48 13.22 38.96 13.22 38.96 10.61 41.09 10.61 41.09 9.35 37.43 9.35 37.43 18.49 41.09 18.49 41.09 17.24"/>
        <polygon class="sdg5-2" points="43.34 12.75 45.15 18.49 46.49 18.49 46.49 9.35 45.22 9.35 45.22 14.6 43.56 9.35 42.05 9.35 42.05 18.49 43.34 18.49 43.34 12.75"/>
        <path class="sdg5-2" d="M52.1,16V11.81c0-1.41-.58-2.45-2.22-2.45H47.51v9.14h2.37c1.64,0,2.22-1.05,2.22-2.45M49,17.24V10.61h.65a.8.8,0,0,1,.87.92v4.79c0,.55-.24.93-.87.93Z"/>
        <polygon class="sdg5-2" points="56.77 17.24 54.65 17.24 54.65 14.46 56.17 14.46 56.17 13.22 54.65 13.22 54.65 10.61 56.77 10.61 56.77 9.35 53.11 9.35 53.11 18.49 56.77 18.49 56.77 17.24"/>
        <path class="sdg5-2" d="M59.26,14.3l1.44,4.19h1.62l-1.47-4.15c.87-.2,1.23-.78,1.23-1.77V11.4c0-1.28-.57-2-2.11-2H57.72v9.14h1.54Zm0-3.69h.51c.53,0,.75.24.75.74v1.35a.66.66,0,0,1-.75.76h-.51Z"/>
        <polygon class="sdg5-2" points="35.58 30.64 33.45 30.64 33.45 27.86 34.97 27.86 34.97 26.62 33.45 26.62 33.45 24 35.58 24 35.58 22.75 31.92 22.75 31.92 31.89 35.58 31.89 35.58 30.64"/>
        <path class="sdg5-2" d="M38.28,31.89v.62l2.89.54V31.9L40,31.69a2.19,2.19,0,0,0,1.13-2.16V25.11a2.33,2.33,0,1,0-4.65,0v4.42a2.1,2.1,0,0,0,1.75,2.36m-.22-7c0-.55.24-.94.78-.94s.79.39.79.94v5c0,.54-.24.94-.79.94s-.78-.4-.78-.94Z"/>
        <path class="sdg5-2" d="M42.17,22.75v6.91A2.06,2.06,0,0,0,44.46,32c1.56,0,2.17-.92,2.17-2.33V22.75H45.21v7.06c0,.54-.22.9-.76.9s-.75-.36-.75-.9V22.75Z"/>
        <path class="sdg5-2" d="M49.11,30.22h1.63L51,31.89H52.6l-1.74-9.14H49.11l-1.72,9.14h1.46Zm.81-4.89h0l.6,3.67H49.31Z"/>
        <polygon class="sdg5-2" points="53.35 22.75 53.35 31.89 56.72 31.89 56.72 30.64 54.89 30.64 54.89 22.75 53.35 22.75"/>
        <rect class="sdg5-2" x="57.54" y="22.75" width="1.54" height="9.14"/>
        <polygon class="sdg5-2" points="62.73 31.89 62.73 24 64 24 64 22.75 59.92 22.75 59.92 24 61.18 24 61.18 31.89 62.73 31.89"/>
        <polygon class="sdg5-2" points="66.29 31.89 67.83 31.89 67.83 28.41 69.52 22.75 68.05 22.75 67.12 26.22 67.11 26.22 66.18 22.75 64.58 22.75 66.29 28.41 66.29 31.89"/>
    </g>
    <g id="NUMBERS_ONLY">
        <path class="sdg5-2" d="M18.48,15.29a3.4,3.4,0,0,0-3.17,1.55h0V11.25h6.48V8.18H11.84V20.81h3.44v-.5c0-1.32.6-2.05,1.65-2.05s1.62.79,1.62,2V25.7c0,1.19-.43,2-1.59,2s-1.75-.86-1.75-2.18V22.73H11.77v2.55c0,3.41,1.36,5.59,5.19,5.59s5.36-2,5.36-5.13V20.25c0-3.54-1.82-5-3.84-5"/>
    </g>
</svg>
