<svg
    xmlns="http://www.w3.org/2000/svg" viewBox="0 0 111.76 111.77">
    <title>SDG6 Clean Water and Sanitation</title>
    <g id="English">
        <rect class="sdg6-1" x="-1.97" y="-1.93" width="117.83" height="117.09"/>
        <path class="sdg6-2" d="M76.46,45.19A.49.49,0,0,0,76.1,45H35.55a.46.46,0,0,0-.47.54l6.81,41.2a.48.48,0,0,0,.47.4h8.36l.57,6.71H47.78L56,102.08l8.21-8.2H60.65l.57-6.7h8.51a.47.47,0,0,0,.47-.4l6.37-41.19A.48.48,0,0,0,76.46,45.19Zm-15.67,33A6.51,6.51,0,0,1,56,79.87a6.51,6.51,0,0,1-4.84-1.69c-3-3-2-6.81-.9-8.76.65-1.22,5.32-8.23,5.72-8.83v0l0,0,0,0v0c.39.6,5.07,7.61,5.72,8.83C62.75,71.37,63.83,75.14,60.79,78.18ZM73.66,53.86a5,5,0,0,0-3.83.23c-5,2-8.45,2.77-13.75,1.12-3.33-1-6.45-3.23-10.14-1.9A20.88,20.88,0,0,1,38.45,55l-1.6-8.19H74.8Z"/>
        <path class="sdg6-2" d="M34.25,18.52c1.63,0,2.17-1,2.17-2.28V14.67H35v1.69c0,.54-.19.89-.74.89s-.78-.39-.78-.94V11.39c0-.55.23-.94.78-.94s.74.32.74.89v1.2h1.4V11.46c0-1.35-.47-2.29-2.17-2.29A2.16,2.16,0,0,0,32,11.64v4.42a2.16,2.16,0,0,0,2.29,2.47"/>
        <polygon class="sdg6-2" points="40.76 17.16 38.93 17.16 38.93 9.28 37.39 9.28 37.39 18.42 40.76 18.42 40.76 17.16"/>
        <polygon class="sdg6-2" points="45.26 17.16 43.13 17.16 43.13 14.39 44.66 14.39 44.66 13.14 43.13 13.14 43.13 10.53 45.26 10.53 45.26 9.28 41.6 9.28 41.6 18.42 45.26 18.42 45.26 17.16"/>
        <path class="sdg6-2" d="M47.7,16.75h1.63l.28,1.67h1.58L49.45,9.28H47.7L46,18.42h1.46Zm.81-4.89h0l.61,3.66H47.9Z"/>
        <polygon class="sdg6-2" points="53.25 12.67 55.06 18.42 56.4 18.42 56.4 9.28 55.13 9.28 55.13 14.52 53.47 9.28 51.96 9.28 51.96 18.42 53.25 18.42 53.25 12.67"/>
        <polygon class="sdg6-2" points="62.11 18.42 62.98 12.77 62.99 12.77 63.89 18.42 65.35 18.42 66.53 9.28 65.24 9.28 64.54 15.07 64.52 15.07 63.68 9.28 62.42 9.28 61.66 15.07 61.64 15.07 60.93 9.28 59.44 9.28 60.67 18.42 62.11 18.42"/>
        <path class="sdg6-2" d="M68.28,16.75h1.63l.28,1.67h1.58L70,9.28H68.28l-1.72,9.14H68Zm.81-4.89h0l.61,3.66H68.48Z"/>
        <polygon class="sdg6-2" points="72.84 18.42 74.39 18.42 74.39 10.53 75.66 10.53 75.66 9.28 71.57 9.28 71.57 10.53 72.84 10.53 72.84 18.42"/>
        <polygon class="sdg6-2" points="80.05 17.16 77.92 17.16 77.92 14.39 79.44 14.39 79.44 13.14 77.92 13.14 77.92 10.53 80.05 10.53 80.05 9.28 76.38 9.28 76.38 18.42 80.05 18.42 80.05 17.16"/>
        <path class="sdg6-2" d="M82.41,14.22l1.44,4.19h1.62L84,14.26c.88-.2,1.23-.78,1.23-1.76V11.33c0-1.28-.57-2.05-2.12-2.05H80.88v9.14h1.54Zm0-3.69h.51c.52,0,.75.24.75.74v1.35a.67.67,0,0,1-.75.76h-.51Z"/>
        <path class="sdg6-2" d="M33.51,30.22h1.63l.28,1.67H37l-1.74-9.14H33.51l-1.72,9.14h1.46Zm.81-4.89h0l.6,3.67H33.71Z"/>
        <polygon class="sdg6-2" points="37.63 22.75 37.63 31.89 38.92 31.89 38.92 26.15 40.73 31.89 42.07 31.89 42.07 22.75 40.8 22.75 40.8 28 39.14 22.75 37.63 22.75"/>
        <path class="sdg6-2" d="M43.2,31.89h2.37c1.64,0,2.22-1.05,2.22-2.45V25.21c0-1.41-.58-2.45-2.22-2.45H43.2ZM44.73,24h.65a.8.8,0,0,1,.87.92v4.79c0,.55-.24.93-.87.93h-.65Z"/>
        <path class="sdg6-2" d="M51.2,28.7v1.23A1.9,1.9,0,0,0,53.37,32a2,2,0,0,0,2.24-2.14v-.44A3.07,3.07,0,0,0,54.37,27l-1-1c-.44-.43-.73-.73-.73-1.24v-.19a.67.67,0,0,1,.73-.75c.49,0,.73.26.73.78v.8h1.4v-.74c0-1.32-.61-2.08-2.14-2.08a1.91,1.91,0,0,0-2.15,2V25A3.08,3.08,0,0,0,52.5,27.4l.9.9a1.64,1.64,0,0,1,.69,1.29V30c0,.48-.21.81-.7.81s-.75-.3-.75-.81V28.7Z"/>
        <path class="sdg6-2" d="M57.5,31.89l.27-1.67H59.4l.28,1.67h1.58l-1.74-9.14H57.77L56,31.89Zm1.08-6.56h0L59.2,29H58Z"/>
        <polygon class="sdg6-2" points="65.18 28 63.53 22.75 62.02 22.75 62.02 31.89 63.31 31.89 63.31 26.15 65.12 31.89 66.46 31.89 66.46 22.75 65.18 22.75 65.18 28"/>
        <rect class="sdg6-2" x="67.71" y="22.75" width="1.54" height="9.14"/>
        <polygon class="sdg6-2" points="72.76 31.89 72.76 24.01 74.03 24.01 74.03 22.75 69.94 22.75 69.94 24.01 71.21 24.01 71.21 31.89 72.76 31.89"/>
        <path class="sdg6-2" d="M77.15,22.75H75.4l-1.73,9.14h1.45l.27-1.67H77l.28,1.67h1.58ZM75.6,29l.61-3.67h0L76.83,29Z"/>
        <polygon class="sdg6-2" points="82.48 22.75 78.4 22.75 78.4 24.01 79.67 24.01 79.67 31.89 81.22 31.89 81.22 24.01 82.48 24.01 82.48 22.75"/>
        <rect class="sdg6-2" x="83.32" y="22.75" width="1.54" height="9.14"/>
        <path class="sdg6-2" d="M88.17,32a2.18,2.18,0,0,0,2.33-2.47V25.11a2.33,2.33,0,1,0-4.65,0v4.42A2.18,2.18,0,0,0,88.17,32m-.78-7.13c0-.55.24-.94.78-.94s.79.39.79.94v4.91c0,.55-.24.94-.79.94s-.78-.39-.78-.94Z"/>
        <polygon class="sdg6-2" points="95.94 31.89 95.94 22.75 94.66 22.75 94.66 28 93.01 22.75 91.5 22.75 91.5 31.89 92.79 31.89 92.79 26.15 94.6 31.89 95.94 31.89"/>
    </g>
    <g id="NUMBERS_ONLY" data-name="NUMBERS ONLY">
        <path class="sdg6-2" d="M17,31.13c4,0,5.56-2.18,5.56-5.66V22.16c0-3.67-1.46-5.52-4.17-5.52a3.23,3.23,0,0,0-3.11,1.82h0V13.63c0-1.36.43-2.32,1.79-2.32s1.75.8,1.75,2.18V15h3.44V13.8c0-3.31-1.09-5.62-5.26-5.62-4,0-5.46,2.55-5.46,6.05V25.14c0,3.47,1.52,6,5.49,6M15.21,21.7c.07-1.26.6-2,1.79-2s1.79.79,1.79,2.25v3.9c0,1.42-.53,2.25-1.82,2.25s-1.75-.86-1.75-2.25Z"/>
    </g>
</svg>
