<svg
    xmlns="http://www.w3.org/2000/svg" viewBox="0 0 111.76 111.77">
    <title>SDG8 Decent Work and Economic Growth</title>
    <g id="English">
        <rect class="sdg8-1" x="-2.05" y="-1.83" width="119.92" height="118.33"/>
        <path class="sdg8-2" d="M77.09,55,65.73,65.79a1.88,1.88,0,0,0-.65,1.62V97.7a.65.65,0,0,0,.65.65H77.46a.65.65,0,0,0,.65-.65V55.26c0-.36-.28-1-1-.27"/>
        <path class="sdg8-2" d="M44.36,69.07,33,79.87a1.88,1.88,0,0,0-.65,1.62V97.7a.65.65,0,0,0,.65.65H44.74a.65.65,0,0,0,.65-.65V69.34c0-.36-.28-1-1-.27"/>
        <path class="sdg8-2" d="M82.25,41.88a.32.32,0,0,0-.1-.25.34.34,0,0,0-.21-.09h-.16l-8.7,2-.16,0a.35.35,0,0,0-.17.09.33.33,0,0,0,0,.47l.1.1,2,2L55.14,65.88,46,56.78a.26.26,0,0,0-.37,0l-2.47,2.47h0L28.6,73.84a.26.26,0,0,0,0,.37l2.47,2.47a.26.26,0,0,0,.37,0L45.85,62.28l6.61,6.61,0,0L55,71.38a.26.26,0,0,0,.37,0L77.69,49l2.09,2.08a.33.33,0,0,0,.46,0,.32.32,0,0,0,.09-.21v0L82.25,42Z"/>
        <path class="sdg8-2" d="M60.79,71l-5.5,5.54a.26.26,0,0,1-.35,0l-5-5.08c-.91-.91-1.11-.17-1.11.19V97.7a.64.64,0,0,0,.64.65H61.23a.65.65,0,0,0,.65-.65V71.17c0-.36-.28-1-1.09-.2"/>
        <path class="sdg8-2" d="M30,22.77H33.7V24H31.57v2.61H33.1v1.24H31.57v2.77H33.7V31.9H30Z"/>
        <path class="sdg8-2" d="M34.38,29.55V25.13a2.15,2.15,0,0,1,2.29-2.46c1.7,0,2.17.94,2.17,2.29V26h-1.4v-1.2c0-.57-.19-.89-.74-.89s-.78.39-.78.94v4.9c0,.55.23.94.78.94s.74-.35.74-.89V28.16h1.4v1.58C38.84,31,38.3,32,36.67,32A2.16,2.16,0,0,1,34.38,29.55Z"/>
        <path class="sdg8-2" d="M39.67,29.55V25.13a2.33,2.33,0,1,1,4.65,0v4.42a2.33,2.33,0,1,1-4.65,0Zm3.11.24v-4.9c0-.55-.24-.94-.79-.94s-.78.39-.78.94v4.9c0,.55.24.94.78.94S42.78,30.34,42.78,29.79Z"/>
        <path class="sdg8-2" d="M46.49,26.17V31.9H45.2V22.77H46.7L48.36,28V22.77h1.28V31.9H48.29Z"/>
        <path class="sdg8-2" d="M50.52,29.55V25.13a2.33,2.33,0,1,1,4.65,0v4.42a2.33,2.33,0,1,1-4.65,0Zm3.11.24v-4.9c0-.55-.24-.94-.79-.94s-.78.39-.78.94v4.9c0,.55.24.94.78.94S53.63,30.34,53.63,29.79Z"/>
        <path class="sdg8-2" d="M60.27,26h0l-1,5.93h-.71L57.34,26h0V31.9H56V22.77h1.79l1,5.15h0l.89-5.15h1.94V31.9h-1.4Z"/>
        <path class="sdg8-2" d="M62.55,22.77h1.54V31.9H62.55Z"/>
        <path class="sdg8-2" d="M64.95,29.55V25.13a2.15,2.15,0,0,1,2.29-2.46c1.7,0,2.17.94,2.17,2.29V26H68v-1.2c0-.57-.19-.89-.74-.89s-.78.39-.78.94v4.9c0,.55.23.94.78.94s.74-.35.74-.89V28.16h1.4v1.58c0,1.31-.54,2.28-2.17,2.28A2.16,2.16,0,0,1,64.95,29.55Z"/>
        <path class="sdg8-2" d="M74.34,27h2.18V31.9h-1.1v-1A1.38,1.38,0,0,1,73.95,32C72.63,32,72,31,72,29.55V25.13a2.16,2.16,0,0,1,2.3-2.46c1.7,0,2.2.94,2.2,2.29v.81h-1.4v-.93c0-.57-.22-.89-.77-.89s-.79.39-.79.94v4.9c0,.55.23.94.75.94s.75-.28.75-.88V28.24h-.73Z"/>
        <path class="sdg8-2" d="M78.93,27.72V31.9H77.4V22.77h2.24c1.55,0,2.11.77,2.11,2V26c0,1-.35,1.56-1.23,1.76L82,31.9H80.37Zm0-3.69v2.84h.51a.66.66,0,0,0,.75-.75V24.77c0-.5-.23-.74-.75-.74Z"/>
        <path class="sdg8-2" d="M82.45,29.55V25.13a2.33,2.33,0,1,1,4.65,0v4.42a2.33,2.33,0,1,1-4.65,0Zm3.11.24v-4.9c0-.55-.24-.94-.79-.94s-.78.39-.78.94v4.9c0,.55.24.94.78.94S85.56,30.34,85.56,29.79Z"/>
        <path class="sdg8-2" d="M91,26.26l-.86,5.64H88.73L87.5,22.77H89l.71,5.79h0l.77-5.79h1.25l.85,5.79h0l.7-5.79h1.29L93.4,31.9H91.95L91,26.26Z"/>
        <path class="sdg8-2" d="M95.06,22.77h4.08V24H97.88V31.9H96.33V24H95.06Z"/>
        <path class="sdg8-2" d="M102.63,27.88h-1.48v4H99.61V22.77h1.54v3.87h1.48V22.77h1.55V31.9h-1.55Z"/>
        <path class="sdg8-2" d="M34.63,11.81V16c0,1.4-.58,2.45-2.22,2.45H30V9.36h2.37C34.05,9.36,34.63,10.39,34.63,11.81Zm-2.41,5.43c.63,0,.88-.38.88-.93V11.52a.8.8,0,0,0-.88-.92h-.65v6.63Z"/>
        <path class="sdg8-2" d="M35.6,9.36h3.66v1.25H37.14v2.61h1.52v1.24H37.14v2.77h2.13v1.25H35.6Z"/>
        <path class="sdg8-2" d="M40,16.13V11.71a2.15,2.15,0,0,1,2.29-2.46c1.7,0,2.17.94,2.17,2.29v1.08h-1.4v-1.2c0-.57-.19-.89-.74-.89s-.78.39-.78.94v4.9c0,.55.23.94.78.94s.74-.35.74-.89V14.74h1.4v1.58c0,1.31-.54,2.28-2.17,2.28A2.16,2.16,0,0,1,40,16.13Z"/>
        <path class="sdg8-2" d="M45.44,9.36H49.1v1.25H47v2.61H48.5v1.24H47v2.77H49.1v1.25H45.44Z"/>
        <path class="sdg8-2" d="M51.31,12.75v5.74H50V9.36h1.51l1.66,5.24V9.36h1.28v9.13H53.12Z"/>
        <path class="sdg8-2" d="M55.26,9.36h4.08v1.25H58.08v7.88H56.53V10.61H55.26Z"/>
        <path class="sdg8-2" d="M65,12.84l-.86,5.64H62.67L61.45,9.36h1.48l.71,5.79h0l.77-5.79h1.25l.85,5.79h0l.7-5.79h1.29l-1.19,9.13H65.89L65,12.84Z"/>
        <path class="sdg8-2" d="M69.15,16.13V11.71a2.33,2.33,0,1,1,4.65,0v4.42a2.33,2.33,0,1,1-4.65,0Zm3.11.24v-4.9c0-.55-.24-.94-.79-.94s-.78.39-.78.94v4.9c0,.55.24.94.78.94S72.26,16.93,72.26,16.37Z"/>
        <path class="sdg8-2" d="M76.31,14.3v4.19H74.77V9.36H77c1.55,0,2.11.77,2.11,2v1.17c0,1-.35,1.56-1.23,1.76l1.47,4.15H77.75Zm0-3.69v2.84h.51a.66.66,0,0,0,.75-.75V11.35c0-.5-.23-.74-.75-.74Z"/>
        <path class="sdg8-2" d="M81.59,14v4.44H80.05V9.36h1.54v4l1.67-4h1.51L83,13.46l1.82,5H83.19Z"/>
        <path class="sdg8-2" d="M87,18.49l1.72-9.13h1.75l1.74,9.13H90.59l-.28-1.67H88.67l-.27,1.67Zm1.93-2.9H90.1l-.61-3.66h0Z"/>
        <path class="sdg8-2" d="M94,12.75v5.74H92.68V9.36h1.51l1.66,5.24V9.36h1.28v9.13H95.77Z"/>
        <path class="sdg8-2" d="M102.73,11.81V16c0,1.4-.58,2.45-2.22,2.45H98.13V9.36h2.37C102.15,9.36,102.73,10.39,102.73,11.81Zm-2.41,5.43c.63,0,.88-.38.88-.93V11.52a.8.8,0,0,0-.88-.92h-.65v6.63Z"/>
    </g>
    <g id="NUMBERS_ONLY">
        <path class="sdg8-2" d="M24.21,26.29V23.85c0-2.15-.76-3.7-2.51-4.5a4,4,0,0,0,2.18-3.9v-.93c0-3.51-1.82-5.39-5.29-5.39S13.36,11,13.36,14.52v.93a4,4,0,0,0,2.12,3.9c-1.75.79-2.48,2.35-2.48,4.5v2.45c0,3.41,1.62,5.79,5.59,5.79s5.62-2.38,5.62-5.79m-7.31-12c0-1.36.46-2.15,1.69-2.15s1.72.79,1.72,2.15v1.52c0,1.36-.46,2.15-1.72,2.15s-1.69-.8-1.69-2.15Zm3.54,12.4c0,1.36-.5,2.32-1.85,2.32s-1.82-1-1.82-2.32V23.05c0-1.36.5-2.31,1.82-2.31s1.85,1,1.85,2.31Z"/>
    </g>
</svg>
