<svg
    xmlns="http://www.w3.org/2000/svg" viewBox="0 0 111.76 111.77">
    <title>Industry, Innovation and Infrastructure</title>
    <g id="English">
        <rect class="sdg9-1" x="-2.75" y="-1.83" width="118.29" height="118.33"/>
        <path class="sdg9-2" d="M84.43,73.46,71.15,65.79V50.45a.91.91,0,0,0-.45-.79L57,41.74a.91.91,0,0,0-.91,0L42.31,49.67a.91.91,0,0,0-.45.79V65.79L28.58,73.46a.91.91,0,0,0-.45.78V90.11a.91.91,0,0,0,.45.79l13.74,7.93a.91.91,0,0,0,.91,0L56.5,91.16l13.28,7.67a.91.91,0,0,0,.91,0L84.43,90.9a.91.91,0,0,0,.45-.79V74.25A.91.91,0,0,0,84.43,73.46ZM55.6,88.54l-11-6.36,11-6.36ZM68.43,66.32l-11,6.36V60ZM55.6,72.68l-11-6.36L55.6,60Zm2.72,1.57,11.92-6.88,11.93,6.88L70.24,81.13Zm11-9.5-11-6.36,11-6.36ZM54.69,58.39l-11,6.36V52ZM41.86,96.47,29.94,89.59V75.82L41.86,82.7Zm1.81,0V83.75l11,6.36Zm39.4-6.88L71.15,96.47V82.7l11.93-6.89Z"/>
        <path class="sdg9-2" d="M26.39,9.55h1.46v8.71H26.39Z"/>
        <path class="sdg9-2" d="M29.75,12.78v5.47H28.51V9.55H30l1.58,5v-5h1.22v8.71H31.47Z"/>
        <path class="sdg9-2" d="M37.78,11.88v4c0,1.34-.55,2.34-2.12,2.34H33.4V9.55h2.26C37.22,9.55,37.78,10.54,37.78,11.88Zm-2.3,5.18c.6,0,.83-.36.83-.89V11.62a.76.76,0,0,0-.83-.87h-.62v6.32Z"/>
        <path class="sdg9-2" d="M42.67,9.55v6.59c0,1.35-.58,2.22-2.07,2.22a2,2,0,0,1-2.18-2.22V9.55h1.46v6.73c0,.51.21.86.72.86s.72-.35.72-.86V9.55Z"/>
        <path class="sdg9-2" d="M43.24,16.38V15.21H44.6v1.19c0,.49.22.77.72.77s.67-.31.67-.77v-.33a1.57,1.57,0,0,0-.65-1.23L44.47,14a2.94,2.94,0,0,1-1.22-2.32v-.3a1.82,1.82,0,0,1,2.06-1.91c1.46,0,2,.72,2,2v.71H46v-.76c0-.5-.23-.75-.69-.75a.64.64,0,0,0-.69.72v.18c0,.49.27.77.69,1.18l.94.92a2.92,2.92,0,0,1,1.18,2.26v.42a1.89,1.89,0,0,1-2.13,2A1.81,1.81,0,0,1,43.24,16.38Z"/>
        <path class="sdg9-2" d="M47.53,9.55h3.89v1.19H50.21v7.51H48.74V10.74H47.53Z"/>
        <path class="sdg9-2" d="M53.37,14.26v4H51.91V9.55H54c1.48,0,2,.73,2,2v1.12c0,.94-.33,1.49-1.17,1.68l1.4,4H54.75Zm0-3.52v2.71h.49a.63.63,0,0,0,.72-.72V11.45c0-.48-.22-.71-.72-.71Z"/>
        <path class="sdg9-2" d="M59.19,14.94v3.31H57.73V14.94L56.1,9.55h1.53l.89,3.3h0l.89-3.3h1.4Z"/>
        <path class="sdg9-2" d="M62.07,17l-.74,2h-.82l.18-2.08h1.39Z"/>
        <path class="sdg9-2" d="M63.87,9.55h1.46v8.71H63.87Z"/>
        <path class="sdg9-2" d="M67.23,12.78v5.47H66V9.55h1.44l1.58,5v-5h1.22v8.71H68.95Z"/>
        <path class="sdg9-2" d="M72.11,12.78v5.47H70.88V9.55h1.44l1.58,5v-5h1.22v8.71H73.83Z"/>
        <path class="sdg9-2" d="M75.76,16V11.8a2.22,2.22,0,1,1,4.43,0V16a2.22,2.22,0,1,1-4.43,0Zm3,.23V11.56c0-.53-.23-.9-.76-.9s-.75.37-.75.9v4.68c0,.53.23.9.75.9S78.73,16.77,78.73,16.24Z"/>
        <path class="sdg9-2" d="M85.52,9.55l-1.66,8.71H82.27L80.62,9.55h1.49l1,6.08h0l1-6.08Z"/>
        <path class="sdg9-2" d="M85.06,18.26l1.64-8.71h1.67L90,18.26h-1.5l-.27-1.59H86.71l-.26,1.59Zm1.84-2.76h1.17L87.49,12h0Z"/>
        <path class="sdg9-2" d="M89.63,9.55h3.89v1.19H92.32v7.51H90.84V10.74H89.63Z"/>
        <path class="sdg9-2" d="M94,9.55h1.46v8.71H94Z"/>
        <path class="sdg9-2" d="M96.14,16V11.8a2.22,2.22,0,1,1,4.43,0V16a2.22,2.22,0,1,1-4.43,0Zm3,.23V11.56c0-.53-.23-.9-.76-.9s-.75.37-.75.9v4.68c0,.53.23.9.75.9S99.1,16.77,99.1,16.24Z"/>
        <path class="sdg9-2" d="M102.44,12.78v5.47h-1.23V9.55h1.44l1.58,5v-5h1.22v8.71h-1.28Z"/>
        <path class="sdg9-2" d="M26.16,31.68,27.8,23h1.67l1.66,8.71h-1.5l-.27-1.59H27.8l-.26,1.59ZM28,28.92h1.17l-.58-3.49h0Z"/>
        <path class="sdg9-2" d="M32.9,26.21v5.47H31.67V23h1.44l1.58,5V23h1.22v8.71H34.62Z"/>
        <path class="sdg9-2" d="M41.06,25.31v4c0,1.34-.55,2.34-2.12,2.34H36.68V23h2.26C40.51,23,41.06,24,41.06,25.31Zm-2.3,5.18c.6,0,.83-.36.83-.89V25a.76.76,0,0,0-.83-.87h-.62v6.32Z"/>
        <path class="sdg9-2" d="M43.12,23h1.46v8.71H43.12Z"/>
        <path class="sdg9-2" d="M46.6,26.21v5.47H45.36V23H46.8l1.58,5V23H49.6v8.71H48.32Z"/>
        <path class="sdg9-2" d="M50.38,23h3.43v1.19h-2v2.49H53.3v1.18H51.84v3.84H50.38Z"/>
        <path class="sdg9-2" d="M55.85,27.69v4H54.38V23h2.13c1.48,0,2,.73,2,2V26c0,.94-.33,1.49-1.17,1.68l1.4,4H57.22Zm0-3.52v2.71h.49a.63.63,0,0,0,.72-.72V24.87c0-.48-.22-.71-.72-.71Z"/>
        <path class="sdg9-2" d="M59,31.68,60.68,23h1.67L64,31.68H62.5l-.27-1.59H60.68l-.26,1.59Zm1.84-2.76H62l-.58-3.49h0Z"/>
        <path class="sdg9-2" d="M64.34,29.81V28.64H65.7v1.19c0,.49.22.77.72.77s.67-.31.67-.77V29.5a1.58,1.58,0,0,0-.65-1.23l-.86-.86a2.94,2.94,0,0,1-1.22-2.32v-.3a1.82,1.82,0,0,1,2.06-1.91c1.46,0,2,.72,2,2v.71H67.12V24.8c0-.5-.23-.75-.69-.75a.64.64,0,0,0-.69.72V25c0,.49.27.77.69,1.18l.94.92a2.92,2.92,0,0,1,1.18,2.26v.42a1.89,1.89,0,0,1-2.13,2A1.81,1.81,0,0,1,64.34,29.81Z"/>
        <path class="sdg9-2" d="M68.89,23h3.89v1.19H71.57v7.51H70.1V24.17H68.89Z"/>
        <path class="sdg9-2" d="M74.86,27.69v4H73.4V23h2.13c1.48,0,2,.73,2,2V26c0,.94-.33,1.49-1.17,1.68l1.4,4H76.24Zm0-3.52v2.71h.49a.63.63,0,0,0,.72-.72V24.87c0-.48-.22-.71-.72-.71Z"/>
        <path class="sdg9-2" d="M82.53,23v6.59c0,1.35-.58,2.22-2.07,2.22a2,2,0,0,1-2.18-2.22V23h1.46V29.7c0,.51.21.86.72.86s.72-.35.72-.86V23Z"/>
        <path class="sdg9-2" d="M83.31,29.43V25.22a2.05,2.05,0,0,1,2.18-2.35c1.62,0,2.07.9,2.07,2.18v1H86.22V24.94c0-.54-.18-.85-.71-.85s-.75.37-.75.9v4.68c0,.53.22.9.75.9s.71-.33.71-.85V28.11h1.34v1.5c0,1.25-.51,2.17-2.07,2.17A2.06,2.06,0,0,1,83.31,29.43Z"/>
        <path class="sdg9-2" d="M87.8,23h3.89v1.19H90.49v7.51H89V24.17H87.8Z"/>
        <path class="sdg9-2" d="M96.56,23v6.59c0,1.35-.58,2.22-2.07,2.22a2,2,0,0,1-2.18-2.22V23h1.46V29.7c0,.51.21.86.72.86s.72-.35.72-.86V23Z"/>
        <path class="sdg9-2" d="M98.8,27.69v4H97.34V23h2.13c1.48,0,2,.73,2,2V26c0,.94-.33,1.49-1.17,1.68l1.4,4h-1.54Zm0-3.52v2.71h.49a.63.63,0,0,0,.72-.72V24.87c0-.48-.22-.71-.72-.71Z"/>
        <path class="sdg9-2" d="M102.22,23h3.49v1.19h-2v2.49h1.45v1.18h-1.45v2.65h2v1.19h-3.49Z"/>
    </g>
    <g id="NUMBERS_ONLY">
        <path class="sdg9-2" d="M22.35,15.11c0-3.47-1.52-6-5.49-6s-5.55,2.18-5.55,5.65v3.31c0,3.67,1.45,5.52,4.17,5.52a3.22,3.22,0,0,0,3.11-1.82h0v4.82c0,1.36-.53,2.31-1.88,2.31s-1.85-.79-1.85-2.18V25.26H11.44v1.19c0,3.3,1.19,5.62,5.36,5.62,4,0,5.55-2.55,5.55-6Zm-3.74,3.44c-.07,1.26-.59,2-1.78,2S15,19.81,15,18.35v-3.9c0-1.42.53-2.25,1.82-2.25s1.75.86,1.75,2.25Z"/>
    </g>
</svg>
