<svg
    xmlns="http://www.w3.org/2000/svg" viewBox="0 0 111.76 111.77">
    <title>SDG16 Peace, Justice and Strong Institutions</title>
    <g id="English">
        <rect class="sdg16-1" x="-0.95" y="-3.3" width="118.19" height="119.24"/>
        <path class="sdg16-2" d="M80.18,50a4.22,4.22,0,0,0-.81,3,4.22,4.22,0,0,0,2,2.35,4.21,4.21,0,0,0,.81-3,4.21,4.21,0,0,0-2-2.35"/>
        <path class="sdg16-2" d="M78.32,58.64a4.22,4.22,0,0,0,.81-3,4.21,4.21,0,0,0-2-2.35,4.21,4.21,0,0,0-.81,3,4.22,4.22,0,0,0,2,2.35"/>
        <path class="sdg16-2" d="M83,57a3.75,3.75,0,0,0,2.57,1.09A3.91,3.91,0,0,0,88,56.58a3.75,3.75,0,0,0-2.57-1.09A3.92,3.92,0,0,0,83,57"/>
        <path class="sdg16-2" d="M85,50.53a4.53,4.53,0,0,0-1,3.13,4.33,4.33,0,0,0,3.08-1,4.53,4.53,0,0,0,1-3.13,4.33,4.33,0,0,0-3.08,1"/>
        <path class="sdg16-2" d="M82.52,61.52a3.91,3.91,0,0,0,2.65-1,3.75,3.75,0,0,0-2.3-1.6,3.92,3.92,0,0,0-2.65,1,3.75,3.75,0,0,0,2.3,1.59"/>
        <path class="sdg16-2" d="M83.74,83.48H73.53a1.44,1.44,0,1,0,0,2.89H83.74a1.44,1.44,0,0,0,0-2.89"/>
        <path class="sdg16-2" d="M83.74,99.41H73.53a1.44,1.44,0,1,0,0,2.89H83.74a1.44,1.44,0,0,0,0-2.89"/>
        <path class="sdg16-2" d="M37.81,80a6.36,6.36,0,0,0-.71-.18s.26.08.71.18"/>
        <path class="sdg16-2" d="M83.36,87.38H73.9a.82.82,0,0,0-.82.82v2.87l-6.18.68-9-.21V86a24.83,24.83,0,0,0,3.59-.73C70.15,82.85,72,77.44,71.86,72.47s1.43-7,3.76-7.9a10.5,10.5,0,0,1,1.93-.51,15.48,15.48,0,0,0,.83,4.41l.62-.05A14.64,14.64,0,0,1,78.14,64a10.83,10.83,0,0,1,2.06-.06,13.09,13.09,0,0,1-2-1.4c.39-2.4,1.82-3.87,3.29-5.37a17.67,17.67,0,0,0,2.3-2.7l-.51-.33a17.05,17.05,0,0,1-2.23,2.61c-1.43,1.47-2.88,3-3.37,5.35a19.42,19.42,0,0,1-1.49-1.5c-2.14-2.4-4.9-.64-8.83,3s-8.88,3.78-13.71-1.16c-6.37-6.53-11.93-6.49-15.75-6.12,2.61,1.11,3.52,3.55,4.84,9.74,1.38,6.5,4.87,9.44,9.65,9.85-2.21.36-2.79.67-6.34,3.12-2.78,1.92-6.69,1.31-8.27,1,2.91.91,6.35,4,9.44,5a22.83,22.83,0,0,0,5.63,1.15v5.28l-17.12-.37v3.68L66.9,94l6.18.68v2.86a.82.82,0,0,0,.82.82h9.46a.83.83,0,0,0,.82-.82V88.2A.82.82,0,0,0,83.36,87.38Zm-29-1.15c.67,0,1.35,0,2-.05v5.33l-2,0Z"/>
        <path class="sdg16-2" d="M34.88,94.13a1.32,1.32,0,0,1-1.21,1.41h-.73a1.32,1.32,0,0,1-1.21-1.41V91.58a1.32,1.32,0,0,1,1.21-1.41h.73a1.32,1.32,0,0,1,1.21,1.41Z"/>
        <path class="sdg16-2" d="M35.39,9.14h2.37c1.61,0,2.2.8,2.2,2.13v2c0,1.33-.59,2.14-2.2,2.14H37v3.22h-1.6Zm1.6,1.3v3.74h.59a.69.69,0,0,0,.78-.79V11.21c0-.52-.24-.77-.78-.77Z"/>
        <path class="sdg16-2" d="M40.52,9.14h3.81v1.3H42.11v2.72H43.7v1.29H42.11v2.89h2.21v1.3H40.52Z"/>
        <path class="sdg16-2" d="M44.66,18.64l1.79-9.5h1.82l1.81,9.5H48.44l-.29-1.74h-1.7l-.28,1.74Zm2-3h1.27l-.63-3.81h0Z"/>
        <path class="sdg16-2" d="M50.26,16.19V11.59c0-1.48.7-2.56,2.38-2.56s2.25,1,2.25,2.38v1.12H53.44V11.28c0-.59-.2-.92-.77-.92s-.81.41-.81,1v5.1c0,.57.24,1,.81,1s.77-.36.77-.92V14.74H54.9v1.64c0,1.36-.56,2.37-2.25,2.37A2.25,2.25,0,0,1,50.26,16.19Z"/>
        <path class="sdg16-2" d="M55.5,9.14h3.81v1.3H57.1v2.72h1.58v1.29H57.1v2.89h2.21v1.3H55.5Z"/>
        <path class="sdg16-2" d="M61.53,17.24l-.81,2.14h-.9l.2-2.27h1.51Z"/>
        <path class="sdg16-2" d="M67.62,9.14v7.34a2,2,0,0,1-2.2,2.27c-1.65,0-2.1-.91-2.1-2.12V14.74h1.51v1.92c0,.48.17.76.59.76s.6-.28.6-.77V9.14Z"/>
        <path class="sdg16-2" d="M72.89,9.14v7.19c0,1.47-.63,2.42-2.25,2.42a2.14,2.14,0,0,1-2.38-2.42V9.14h1.6v7.34c0,.56.22.94.78.94s.78-.38.78-.94V9.14Z"/>
        <path class="sdg16-2" d="M73.45,16.59V15.32h1.48v1.3c0,.53.24.84.78.84s.73-.34.73-.84v-.36a1.71,1.71,0,0,0-.71-1.34L74.79,14a3.2,3.2,0,0,1-1.33-2.54v-.32A2,2,0,0,1,75.7,9c1.6,0,2.23.78,2.23,2.16V12H76.47v-.83c0-.55-.25-.81-.76-.81a.7.7,0,0,0-.76.78v.2c0,.53.29.84.76,1.29l1,1A3.19,3.19,0,0,1,78,16.06v.46a2.06,2.06,0,0,1-2.33,2.23A2,2,0,0,1,73.45,16.59Z"/>
        <path class="sdg16-2" d="M78.21,9.14h4.24v1.3H81.13v8.19H79.52V10.44H78.21Z"/>
        <path class="sdg16-2" d="M82.92,9.14h1.6v9.5h-1.6Z"/>
        <path class="sdg16-2" d="M85.18,16.19V11.59c0-1.48.7-2.56,2.38-2.56s2.25,1,2.25,2.38v1.12H88.36V11.28c0-.59-.2-.92-.77-.92s-.81.41-.81,1v5.1c0,.57.24,1,.81,1s.77-.36.77-.92V14.74h1.46v1.64c0,1.36-.56,2.37-2.25,2.37A2.25,2.25,0,0,1,85.18,16.19Z"/>
        <path class="sdg16-2" d="M90.41,9.14h3.81v1.3H92v2.72h1.58v1.29H92v2.89h2.21v1.3H90.41Z"/>
        <path class="sdg16-2" d="M35.14,31.34l1.79-9.5h1.82l1.81,9.5H38.92l-.29-1.74h-1.7l-.28,1.74Zm2-3h1.27l-.63-3.81h0Z"/>
        <path class="sdg16-2" d="M42.3,25.37v6H41v-9.5h1.57l1.72,5.45V21.84h1.33v9.5h-1.4Z"/>
        <path class="sdg16-2" d="M51,24.39v4.4c0,1.46-.6,2.55-2.31,2.55H46.22v-9.5h2.46C50.39,21.84,51,22.92,51,24.39ZM48.48,30c.66,0,.91-.39.91-1v-5a.83.83,0,0,0-.91-1h-.67V30Z"/>
        <path class="sdg16-2" d="M52.75,29.29V28h1.48v1.3c0,.53.24.84.78.84s.73-.34.73-.84V29A1.71,1.71,0,0,0,55,27.61l-.94-.94a3.2,3.2,0,0,1-1.33-2.54v-.32A2,2,0,0,1,55,21.73c1.6,0,2.23.78,2.23,2.16v.77H55.78v-.83c0-.55-.25-.81-.76-.81a.7.7,0,0,0-.76.78V24c0,.53.29.84.76,1.29l1,1a3.19,3.19,0,0,1,1.29,2.47v.46A2.06,2.06,0,0,1,55,31.45,2,2,0,0,1,52.75,29.29Z"/>
        <path class="sdg16-2" d="M57.51,21.84h4.24v1.3H60.44v8.19H58.83V23.14H57.51Z"/>
        <path class="sdg16-2" d="M63.83,27v4.36h-1.6v-9.5h2.33c1.61,0,2.2.8,2.2,2.13v1.22c0,1-.36,1.63-1.28,1.84L67,31.34H65.33Zm0-3.84v3h.53a.69.69,0,0,0,.78-.78v-1.4c0-.52-.24-.77-.78-.77Z"/>
        <path class="sdg16-2" d="M67.36,28.89V24.29a2.42,2.42,0,1,1,4.83,0v4.59a2.42,2.42,0,1,1-4.83,0Zm3.24.25V24c0-.57-.25-1-.83-1s-.81.41-.81,1v5.1c0,.57.25,1,.81,1S70.59,29.71,70.59,29.14Z"/>
        <path class="sdg16-2" d="M74.17,25.37v6H72.83v-9.5H74.4l1.72,5.45V21.84h1.33v9.5h-1.4Z"/>
        <path class="sdg16-2" d="M80.5,26.27h2.27v5.07H81.62v-1a1.44,1.44,0,0,1-1.53,1.15c-1.37,0-2-1.09-2-2.56V24.29a2.25,2.25,0,0,1,2.39-2.56c1.77,0,2.28,1,2.28,2.38V25H81.32V24c0-.59-.22-.92-.8-.92s-.83.41-.83,1v5.1c0,.57.24,1,.78,1s.78-.29.78-.91V27.53H80.5Z"/>
        <path class="sdg16-2" d="M35.39,34.54H37V44h-1.6Z"/>
        <path class="sdg16-2" d="M39,38.07v6H37.65v-9.5h1.57L40.94,40V34.54h1.33V44h-1.4Z"/>
        <path class="sdg16-2" d="M42.83,42V40.72h1.48V42c0,.53.24.84.78.84s.73-.34.73-.84v-.36a1.71,1.71,0,0,0-.71-1.34l-.94-.94a3.2,3.2,0,0,1-1.33-2.54v-.32a2,2,0,0,1,2.24-2.09c1.6,0,2.23.78,2.23,2.16v.77H45.85v-.83c0-.55-.25-.81-.76-.81a.7.7,0,0,0-.76.78v.2c0,.53.29.84.76,1.29l1,1a3.19,3.19,0,0,1,1.29,2.47v.46a2.06,2.06,0,0,1-2.33,2.23A2,2,0,0,1,42.83,42Z"/>
        <path class="sdg16-2" d="M47.59,34.54h4.24v1.3H50.52V44H48.9V35.84H47.59Z"/>
        <path class="sdg16-2" d="M52.31,34.54h1.6V44h-1.6Z"/>
        <path class="sdg16-2" d="M54.38,34.54h4.24v1.3H57.3V44H55.69V35.84H54.38Z"/>
        <path class="sdg16-2" d="M63.73,34.54v7.19c0,1.47-.63,2.42-2.25,2.42a2.14,2.14,0,0,1-2.38-2.42V34.54h1.6v7.34c0,.56.22.94.78.94s.78-.38.78-.94V34.54Z"/>
        <path class="sdg16-2" d="M64.19,34.54h4.24v1.3H67.12V44H65.51V35.84H64.19Z"/>
        <path class="sdg16-2" d="M68.91,34.54h1.6V44h-1.6Z"/>
        <path class="sdg16-2" d="M71.16,41.59V37A2.42,2.42,0,1,1,76,37v4.59a2.42,2.42,0,1,1-4.83,0Zm3.24.25v-5.1c0-.57-.25-1-.83-1s-.81.41-.81,1v5.1c0,.57.25,1,.81,1S74.4,42.41,74.4,41.84Z"/>
        <path class="sdg16-2" d="M78,38.07v6H76.64v-9.5h1.57L79.93,40V34.54h1.33V44h-1.4Z"/>
        <path class="sdg16-2" d="M81.82,42V40.72H83.3V42c0,.53.24.84.78.84s.73-.34.73-.84v-.36a1.71,1.71,0,0,0-.71-1.34l-.94-.94a3.2,3.2,0,0,1-1.33-2.54v-.32a2,2,0,0,1,2.24-2.09c1.6,0,2.23.78,2.23,2.16v.77H84.84v-.83c0-.55-.25-.81-.76-.81a.7.7,0,0,0-.76.78v.2c0,.53.29.84.76,1.29l1,1a3.19,3.19,0,0,1,1.29,2.47v.46a2.06,2.06,0,0,1-2.33,2.23A2,2,0,0,1,81.82,42Z"/>
    </g>
    <g id="NUMBERS_ONLY">
        <polygon class="sdg16-2" points="8.59 12.45 8.59 16.41 8.63 16.41 11.28 13.65 11.32 13.65 11.32 30.89 15.1 30.89 15.1 8.37 12.08 8.37 8.59 12.45"/>
        <path class="sdg16-2" d="M28.36,25.47V22.15c0-3.69-1.46-5.55-4.18-5.55A3.24,3.24,0,0,0,21,18.43h0V13.58c0-1.36.43-2.33,1.79-2.33s1.76.8,1.76,2.19v1.5H28v-1.2c0-3.32-1.1-5.65-5.28-5.65-4,0-5.48,2.56-5.48,6.08v11c0,3.49,1.53,6,5.51,6s5.58-2.19,5.58-5.68m-3.75.33c0,1.43-.53,2.26-1.83,2.26S21,27.2,21,25.81V21.69c.07-1.26.6-2.06,1.79-2.06s1.79.8,1.79,2.26Z"/>
    </g>
</svg>
