<svg
    xmlns="http://www.w3.org/2000/svg" viewBox="0 0 111.76 111.77">
    <title>SDG4 Quality Education</title>
    <g id="English">
        <rect class="sdg4-1" x="0.11" y="-1.93" width="115.21" height="117.09"/>
        <polygon class="sdg4-2" points="49.56 59.93 29.52 48.35 29.52 85.8 49.56 91.84 49.56 59.93"/>
        <polygon class="sdg4-2" points="51.76 60.01 51.76 91.86 71.94 85.79 71.94 48.36 51.76 60.01"/>
        <path class="sdg4-2" d="M87.67,47.41a2.37,2.37,0,1,0-4.74,0V50h4.74Z"/>
        <polygon class="sdg4-2" points="83.52 85.13 82.93 85.13 85.31 93.42 87.67 85.13 87.08 85.13 87.67 85.13 87.67 51.82 87.08 51.82 86.5 51.82 85.87 51.82 84.69 51.82 84.11 51.82 83.52 51.82 82.93 51.82 82.93 85.13 83.52 85.13"/>
        <polygon class="sdg4-2" points="76.24 49.96 74.1 48.27 74.1 86.81 51.82 94.01 50.79 94.01 50.59 94.01 49.56 94.01 27.39 87.81 27.39 48.27 25.24 49.96 25.24 89.32 49.46 96.03 50.59 96.03 50.79 96.03 51.92 96.03 74.27 88.93 76.24 88.35 76.24 49.96"/>
        <path class="sdg4-2" d="M33.67,18.49v.62l2.9.54V18.51l-1.13-.22a2.19,2.19,0,0,0,1.13-2.16V11.71a2.33,2.33,0,1,0-4.65,0v4.42a2.1,2.1,0,0,0,1.75,2.36m-.21-7c0-.55.24-.94.78-.94s.79.39.79.94v5c0,.54-.24.94-.79.94s-.78-.41-.78-.94Z"/>
        <path class="sdg4-2" d="M39.87,18.6c1.56,0,2.17-.92,2.17-2.33V9.35H40.62v7.06c0,.54-.22.9-.75.9s-.75-.36-.75-.9V9.35H37.57v6.92a2.06,2.06,0,0,0,2.29,2.33"/>
        <path class="sdg4-2" d="M44.31,16.82h1.63l.28,1.67H47.8L46.06,9.35H44.31l-1.73,9.14H44Zm.81-4.89h0l.61,3.67H44.51Z"/>
        <polygon class="sdg4-2" points="51.94 17.24 50.11 17.24 50.11 9.35 48.57 9.35 48.57 18.49 51.94 18.49 51.94 17.24"/>
        <rect class="sdg4-2" x="52.65" y="9.35" width="1.54" height="9.14"/>
        <polygon class="sdg4-2" points="56.18 18.49 57.72 18.49 57.72 10.61 58.99 10.61 58.99 9.35 54.91 9.35 54.91 10.61 56.18 10.61 56.18 18.49"/>
        <polygon class="sdg4-2" points="61.17 18.49 62.71 18.49 62.71 15.01 64.41 9.35 62.94 9.35 62.01 12.82 61.99 12.82 61.06 9.35 59.46 9.35 61.17 15.01 61.17 18.49"/>
        <polygon class="sdg4-2" points="35.58 30.64 33.45 30.64 33.45 27.86 34.97 27.86 34.97 26.62 33.45 26.62 33.45 24.01 35.58 24.01 35.58 22.75 31.91 22.75 31.91 31.89 35.58 31.89 35.58 30.64"/>
        <path class="sdg4-2" d="M41.11,29.44V25.21c0-1.42-.58-2.45-2.22-2.45H36.52v9.14h2.37c1.64,0,2.22-1.05,2.22-2.45m-3.06,1.2V24h.65a.8.8,0,0,1,.87.92v4.79c0,.55-.24.93-.87.93Z"/>
        <path class="sdg4-2" d="M42.13,22.75v6.92A2.06,2.06,0,0,0,44.42,32c1.56,0,2.17-.92,2.17-2.33V22.75H45.17v7.06c0,.54-.22.9-.76.9s-.75-.36-.75-.9V22.75Z"/>
        <path class="sdg4-2" d="M47.6,29.53A2.16,2.16,0,0,0,49.89,32c1.63,0,2.17-1,2.17-2.28V28.14h-1.4v1.68c0,.54-.19.89-.74.89s-.78-.39-.78-.94V24.87c0-.55.23-.94.78-.94s.74.32.74.89V26h1.4V24.94c0-1.35-.47-2.29-2.17-2.29a2.16,2.16,0,0,0-2.29,2.47Z"/>
        <path class="sdg4-2" d="M54.25,30.22h1.63l.28,1.67h1.58L56,22.75H54.25l-1.73,9.14H54Zm.81-4.89h0L55.68,29H54.45Z"/>
        <polygon class="sdg4-2" points="57.55 24.01 58.81 24.01 58.81 31.89 60.36 31.89 60.36 24.01 61.63 24.01 61.63 22.75 57.55 22.75 57.55 24.01"/>
        <rect class="sdg4-2" x="62.48" y="22.75" width="1.54" height="9.14"/>
        <path class="sdg4-2" d="M67.36,32a2.18,2.18,0,0,0,2.33-2.47V25.11a2.33,2.33,0,1,0-4.65,0v4.42A2.18,2.18,0,0,0,67.36,32m-.78-7.13c0-.55.24-.94.78-.94s.79.39.79.94v4.91c0,.55-.24.94-.79.94s-.78-.39-.78-.94Z"/>
        <polygon class="sdg4-2" points="71.99 26.15 73.8 31.89 75.15 31.89 75.15 22.75 73.86 22.75 73.86 28 72.21 22.75 70.7 22.75 70.7 31.89 71.99 31.89 71.99 26.15"/>
    </g>
    <g id="NUMBERS_ONLY">
        <path class="sdg4-2" d="M18.79,30.6h3.57V27h1.52V24H22.36V8.18h-3.7L12.14,24.65V27h6.65ZM15.45,24l3.37-9.23h0V24Z"/>
    </g>
</svg>
