<svg xmlns="http://www.w3.org/2000/svg" viewBox="0 0 111.76 111.77">
    <title>SDG2 Zero Hunger</title>
    <g id="English">
        <rect class="sdg2-1" x="-2.33" y="-3.25" width="119.95" height="118.41"/>
        <path class="sdg2-2" d="M44.58,95v1.57a.12.12,0,0,0,0,.07.74.74,0,0,0,.73.71h18.5a.74.74,0,0,0,.73-.74h0V94.79C74.91,91.39,82.69,83,84.4,72.73v-.06a.59.59,0,0,0,0-.1.74.74,0,0,0-.75-.75H24.91a.74.74,0,0,0-.75.75l0,.33C26,83.25,34,91.71,44.58,95"/>
        <path class="sdg2-2" d="M64.52,46.74c-.24.34-5.92,8.52.13,15.13,2.77,3,2.53,5.71,1.74,7.52h3.88c.79-2.67.46-6-2.69-9.46-4.45-4.87.06-11.45.12-11.55a1.45,1.45,0,0,0-.63-2.17,2.06,2.06,0,0,0-2.55.54"/>
        <path class="sdg2-2" d="M54.69,69.38h3.88c.78-2.67.46-6-2.69-9.46-4.46-4.87.05-11.45.12-11.56a1.45,1.45,0,0,0-.63-2.17,2.06,2.06,0,0,0-2.55.54c-.24.34-5.93,8.52.13,15.13,2.77,3,2.53,5.71,1.74,7.52"/>
        <path class="sdg2-2" d="M41.13,46.74c-.25.34-5.92,8.52.12,15.13,2.77,3,2.53,5.71,1.74,7.52h3.88c.78-2.67.46-6-2.69-9.46-4.46-4.87.06-11.45.13-11.56a1.45,1.45,0,0,0-.63-2.17,2.05,2.05,0,0,0-2.55.54"/>
        <path class="sdg2-2" d="M33.42,17.25h2.33V18.5H31.82V17.25l2.41-6.63H32.06V9.37h3.79v1.25Z"/>
        <path class="sdg2-2" d="M36.79,9.37h3.66v1.25H38.33v2.61h1.52v1.24H38.33v2.77h2.13V18.5H36.79Z"/>
        <path class="sdg2-2" d="M42.95,14.31V18.5H41.41V9.37h2.24c1.55,0,2.11.77,2.11,2v1.17c0,1-.35,1.56-1.23,1.76L46,18.5H44.39Zm0-3.69v2.84h.51a.66.66,0,0,0,.75-.75V11.36c0-.5-.23-.74-.75-.74Z"/>
        <path class="sdg2-2" d="M46.74,16.14V11.73a2.33,2.33,0,1,1,4.65,0v4.42a2.33,2.33,0,1,1-4.65,0Zm3.11.24v-4.9c0-.55-.24-.94-.79-.94s-.78.39-.78.94v4.9c0,.55.24.94.78.94S49.85,16.94,49.85,16.39Z"/>
        <path class="sdg2-2" d="M34.92,27.86H33.44v4H31.91V22.75h1.54v3.87h1.48V22.75h1.55v9.13H34.92Z"/>
        <path class="sdg2-2" d="M41.94,22.75v6.91c0,1.41-.61,2.33-2.17,2.33a2.06,2.06,0,0,1-2.29-2.33V22.75H39v7.06c0,.54.22.9.75.9s.75-.36.75-.9V22.75Z"/>
        <path class="sdg2-2" d="M44.25,26.15v5.74H43V22.75h1.51L46.12,28V22.75H47.4v9.13H46.05Z"/>
        <path class="sdg2-2" d="M50.73,27h2.18v4.88h-1.1v-1A1.38,1.38,0,0,1,50.34,32c-1.32,0-1.93-1.05-1.93-2.47V25.11a2.16,2.16,0,0,1,2.3-2.46c1.7,0,2.2.94,2.2,2.29v.81h-1.4v-.93c0-.57-.22-.89-.77-.89s-.79.39-.79.94v4.9c0,.55.23.94.75.94s.75-.28.75-.88V28.22h-.73Z"/>
        <path class="sdg2-2" d="M53.92,22.75h3.66V24H55.46v2.61H57v1.24H55.46v2.77h2.13v1.25H53.92Z"/>
        <path class="sdg2-2" d="M60.08,27.7v4.19H58.54V22.75h2.24c1.55,0,2.11.77,2.11,2V26c0,1-.35,1.56-1.23,1.76l1.47,4.15H61.52Zm0-3.69v2.84h.51a.66.66,0,0,0,.75-.75V24.75c0-.5-.23-.74-.75-.74Z"/>
    </g>
    <g id="NUMBERS_ONLY">
        <path class="sdg2-2" d="M23.4,27.79H17.22V26.73a4.28,4.28,0,0,1,1.59-3.44l2.41-2.55c2-2.08,2.38-3.41,2.38-5.66V12.91c0-3.21-1.55-4.73-4.93-4.73s-5,1.75-5,4.9v2.71h3.44V13c0-1.35.66-1.75,1.46-1.75s1.36.3,1.36,1.69v1.85c0,1.85-.17,2.58-1.39,3.87l-2.12,2.25c-2,2.18-2.81,3.64-2.81,5.85v4.13H23.4Z"/>
    </g>
</svg>
