<svg xmlns="http://www.w3.org/2000/svg" viewBox="0 0 111.76 111.77"><defs><style>.cls-1{fill:#5cba47;}.cls-2{fill:#fff;}</style></defs><title>Artboard 23</title><g id="English"><rect class="cls-1" x="-2.55" y="-3.3" width="117.67" height="119.24"/><rect class="cls-2" x="42.74" y="75.57" width="3.79" height="8.63" rx="0.25" ry="0.25"/><path class="cls-2" d="M82.45,87.7H28.18a.25.25,0,0,0-.25.26v3.32a.25.25,0,0,0,.25.24H82.45a.25.25,0,0,0,.25-.24V88a.26.26,0,0,0-.25-.26"/><path class="cls-2" d="M82.45,94.29H28.18a.25.25,0,0,0-.25.24v3.33a.25.25,0,0,0,.25.24H82.45a.25.25,0,0,0,.25-.24V94.53a.25.25,0,0,0-.25-.24"/><path class="cls-2" d="M72.12,66.56a8,8,0,0,0-4.69-1.77,6.27,6.27,0,0,0-4.36,1.85.47.47,0,0,0-.15.34v.3a.47.47,0,0,0,.15.37.44.44,0,0,0,.38.09l.1,0a.73.73,0,0,0,.27-.17A4.38,4.38,0,0,1,66,67.09a8.21,8.21,0,0,1,5.59,2.34l.05,0a.65.65,0,0,0,.47.2.64.64,0,0,0,.46-.19l0,0a8.24,8.24,0,0,1,5.6-2.35,4.39,4.39,0,0,1,2.18.45.8.8,0,0,0,.3.18.67.67,0,0,0,.32,0,.47.47,0,0,0,.34-.45V67a.47.47,0,0,0-.15-.34,6.29,6.29,0,0,0-4.41-1.9,8,8,0,0,0-4.69,1.77"/><path class="cls-2" d="M68.75,44.93a.45.45,0,0,0-.24.29l-.05.18a.46.46,0,0,0,.07.41.45.45,0,0,0,.34.18h.07a.59.59,0,0,0,.26-.07,1.37,1.37,0,0,1,.33,0,4.71,4.71,0,0,1,3.88,2.53l0,0a.56.56,0,0,0,.35.28l.17,0a.58.58,0,0,0,.27-.07l0,0a5.41,5.41,0,0,1,2.42-.6,3.69,3.69,0,0,1,2.47.79.63.63,0,0,0,.18.2l.18.08h.13a.47.47,0,0,0,.22-.05.46.46,0,0,0,.23-.28l0-.16a.42.42,0,0,0,0-.13.44.44,0,0,0-.06-.23A4.08,4.08,0,0,0,76.4,46.1a5.79,5.79,0,0,0-2,.37,4.74,4.74,0,0,0-3.66-2.05,4.51,4.51,0,0,0-2,.52"/><path class="cls-2" d="M57.29,53.28l0,.24a.46.46,0,0,0,.58.42l.08,0a.59.59,0,0,0,.23-.17,4,4,0,0,1,2.07-.47,6.71,6.71,0,0,1,4.29,1.62l0,0a.64.64,0,0,0,.42.16h0a.63.63,0,0,0,.43-.2l0,0a6.52,6.52,0,0,1,4.76-2.2,3.23,3.23,0,0,1,1.41.26.71.71,0,0,0,.28.15.63.63,0,0,0,.2,0l.11,0a.46.46,0,0,0,.31-.47v-.21a.46.46,0,0,0-.16-.32,5.32,5.32,0,0,0-3.47-1.37,6.47,6.47,0,0,0-4.06,1.68,6.78,6.78,0,0,0-3.62-1.2,5.18,5.18,0,0,0-3.85,1.78.48.48,0,0,0-.13.35"/><path class="cls-2" d="M29.82,57.64a5.88,5.88,0,0,1,5.88-5.88l.38,0a8,8,0,1,1,15.09,4.07,8.89,8.89,0,0,1-1.93,17.58l-11.87-.07h0a6.29,6.29,0,0,1-4.58-10.61A5.88,5.88,0,0,1,29.82,57.64Z"/><polygon class="cls-2" points="35.72 9.36 35.72 18.5 39.09 18.5 39.09 17.24 37.25 17.24 37.25 9.36 35.72 9.36"/><rect class="cls-2" x="39.92" y="9.36" width="1.54" height="9.14"/><polygon class="cls-2" points="42.47 18.5 44 18.5 44 14.46 45.54 14.46 45.54 13.22 44 13.22 44 10.61 46.06 10.61 46.06 9.36 42.47 9.36 42.47 18.5"/><polygon class="cls-2" points="46.87 18.5 50.54 18.5 50.54 17.24 48.41 17.24 48.41 14.46 49.93 14.46 49.93 13.22 48.41 13.22 48.41 10.61 50.54 10.61 50.54 9.36 46.87 9.36 46.87 18.5"/><path class="cls-2" d="M35.71,29.54v-4.4a2.32,2.32,0,1,1,4.63,0v4.4a2.32,2.32,0,1,1-4.63,0m3.1.24V24.9c0-.55-.24-.94-.79-.94s-.78.39-.78.94v4.89c0,.55.24.94.78.94s.79-.39.79-.94"/><polygon class="cls-2" points="42.5 26.17 42.5 31.89 41.21 31.89 41.21 22.79 42.71 22.79 44.36 28.01 44.36 22.79 45.64 22.79 45.64 31.89 44.3 31.89 42.5 26.17"/><polygon class="cls-2" points="48.96 22.79 50.49 22.79 50.49 30.64 52.31 30.64 52.31 31.89 48.96 31.89 48.96 22.79"/><path class="cls-2" d="M52.77,31.89l1.72-9.1h1.75L58,31.89H56.39l-.28-1.66H54.48l-.27,1.66ZM54.69,29h1.22l-.6-3.65h0Z"/><polygon class="cls-2" points="59.88 26.17 59.88 31.89 58.59 31.89 58.59 22.79 60.09 22.79 61.74 28.01 61.74 22.79 63.02 22.79 63.02 31.89 61.68 31.89 59.88 26.17"/><path class="cls-2" d="M68.59,25.23v4.22c0,1.4-.58,2.44-2.22,2.44H64v-9.1h2.36c1.64,0,2.22,1,2.22,2.44m-2.4,5.41c.63,0,.87-.38.87-.93V25a.8.8,0,0,0-.87-.91h-.65v6.61Z"/></g><g id="NUMBERS_ONLY" data-name="NUMBERS ONLY"><polygon class="cls-2" points="10.13 12.54 10.13 16.47 10.16 16.47 12.8 13.73 12.84 13.73 12.84 30.89 16.61 30.89 16.61 8.47 13.6 8.47 10.13 12.54"/><path class="cls-2" d="M25.57,15.58a3.4,3.4,0,0,0-3.17,1.55h0V11.55h6.48V8.47H18.92V21.1h3.44v-.5c0-1.32.6-2,1.65-2s1.62.79,1.62,2V26c0,1.19-.43,2-1.59,2s-1.75-.86-1.75-2.18V23H18.86v2.55c0,3.41,1.36,5.59,5.19,5.59s5.36-2,5.36-5.13V20.54c0-3.54-1.82-5-3.84-5"/></g></svg>