<svg xmlns="http://www.w3.org/2000/svg" viewBox="0 0 111.76 111.77"><defs><style>.cls-1{fill:#417f45;}.cls-2{fill:#fff;}</style></defs><title>Artboard 21</title><g id="English"><rect class="cls-1" x="-1.92" y="-3.3" width="116.31" height="119.24"/><path class="cls-2" d="M97.74,70a51.12,51.12,0,0,0-82,0l-.32.46.32.46a51.12,51.12,0,0,0,82,0c.13-.18.23-.33.32-.46L97.74,70M42.9,59.78c.22-.33,1-1.26,1.05-1.38a1.32,1.32,0,0,1,.83-.34c.26-.05.61.1.66.29a2.3,2.3,0,0,1-.23,1.1,2.86,2.86,0,0,1-1.83.83c-.4-.06-.56-.37-.48-.49M42,61.54l.09-.1a2.31,2.31,0,0,1,1.36-.5c.43-.07,1,.14,1.07.43s-1.08.8-1.29,1c-.6.55-1.53,1.67-2.07,1.79a.65.65,0,0,1-.45,0A17.08,17.08,0,0,1,42,61.54m9.27,19a4.91,4.91,0,0,1-1.06,2.21,3.57,3.57,0,0,1-2.35.9c-.78-.06-.89-2.15-.89-3.23,0-.37-.53.73-.8-1.51-.18-1.43-1.1.15-1.16-.81s-.53-.76-1-1.36-1.08.06-1.75.36-.39.45-1.34.15l-.06,0a17.19,17.19,0,0,1-1.36-6.71c0-.58,0-1.16.09-1.72a1,1,0,0,1,.11-.16c.91-1.08.89-1.33.89-1.33l1-.35a16.87,16.87,0,0,1,2.83.71c1,.38,2.57,1.22,3.49.85.66-.27,1.18-.63,1.12-1.19s-.62-.86-1.28-.39c-.24.17-.76-1-1.17-1s.5,1.43.16,1.48-1-1.42-1.16-1.66-.65-.83-1.13-.38c-1,1-2.67.91-3,1.16-1,.76-1.28-.25-1.25-.86l.13-.42a2.06,2.06,0,0,1,1.92-.21c.45.3.77-.08.94-.26a.62.62,0,0,0,0-.7c-.11-.24.22-.42.45-.48a12.14,12.14,0,0,0,1.31-.78,4.3,4.3,0,0,1,2.62,0,1.39,1.39,0,0,0,1.72-.35,4.62,4.62,0,0,1,1.25-1c.25-.12-.62-.92-1.33,0s-1.08,1-1.41,1-2.33-.5-2.57-1.13.62-1.1,1.36-1.46a18,18,0,0,1,3.26-.46c1-.23,2.38-.75,3.05-.3s-2.81,1.24-1.67,1.86c.41.22,2.25-1.06,2.88-1.39,1.48-.77-1.44-1-1.06-2.57.43-1.76-3.58-1.08-5.58-.93a17.24,17.24,0,0,1,26.06,10.5,2.83,2.83,0,0,1-.08.8,1.13,1.13,0,0,1-2,.16c-.17-.25-.91-1-.89.24s1.16,1.32.06,2a4.25,4.25,0,0,1-1.81.73,2.34,2.34,0,0,0-.88,2.07c.12.66,1.7,2.46.53,2.38a6.74,6.74,0,0,1-2.67-2.33c-.36-1-.75-1.89-1-2.6a1,1,0,0,0-1.63-.48c-.61.42.17.84-.27,1.74s-.76,1.7-1.4,1c-1.68-1.93-4.13-1-4.51-3.12-.21-1.16-1.21-1.05-2-1.71s-1.31-1-1.45-.54S56,69.42,56.24,70c.29.83-.83,1.57-1.65,1.77s-1.18-.46-2-1.3S51.45,69,51.4,69.67A3.77,3.77,0,0,0,53,72.53c.7.44,1.48.64,1.25,1.36s0,.31-.79,1.09a2.11,2.11,0,0,0-.88,2.1c.06,1.08-.22,1.14-.39,2s-.56.12-.89,1.43m18.5-6.88c.58,0,1.45.76,1.11,1.07a1.54,1.54,0,0,1-1.64-.15c-.43-.34.27-.9.53-.92m-.73-.53c-.19-.07-.35-.25-.49-.67a.39.39,0,0,1,.56-.49,1.67,1.67,0,0,1,.81,1c0,.28-.7.25-.89.17m-7.61,0A1.56,1.56,0,0,1,59.79,73c-.43-.34.28-.9.53-.92.58-.05,1.45.76,1.11,1.07m-7,3.42c-.24.39-.89,3.29-1.32,3s.18-3.36.3-3.59c.68-1.25,2.15-1.19,1,.64m2.35,11.24a17.26,17.26,0,0,1-4.85-.69.71.71,0,0,1-.21-.84c.53-1.39,2.12-1.94,3.38-2.06,2.8-.27,6.47,1.82,7.06,1.48s1.77-1.87,3.5-1.81a2.72,2.72,0,0,1,1.57.39,17.18,17.18,0,0,1-10.46,3.53m12.16-5a3,3,0,0,1-.54-.2c-.94-.48-.83.29-1.29.12s.52-1.25-.87-.34-1-.14-1.61-1.67A3.13,3.13,0,0,1,66.38,77a21.88,21.88,0,0,1,3.13-.83c2.07-.52,2.51-1.75,2.89-1l.2.4a2.73,2.73,0,0,1,.27,1.12,17.27,17.27,0,0,1-4,6.08M73.63,74c-.46-.13-2.4-2.8-.87-4.57.25-.29-.51-1.14-.3-1.16a1.4,1.4,0,0,1,1.5,1.2c0,.33,0,.66,0,1A17.4,17.4,0,0,1,73.63,74"/><path class="cls-2" d="M35.66,16.27V11.76c0-1.46.69-2.52,2.34-2.52s2.21,1,2.21,2.34v1.1H38.79V11.46c0-.58-.19-.91-.76-.91s-.8.4-.8,1v5c0,.56.23,1,.8,1s.76-.36.76-.91V14.86h1.43v1.61c0,1.33-.55,2.33-2.21,2.33A2.21,2.21,0,0,1,35.66,16.27Z"/><path class="cls-2" d="M41.21,9.35h1.57v8h1.87v1.28H41.21Z"/><path class="cls-2" d="M45.49,9.35h1.57v9.33H45.49Z"/><path class="cls-2" d="M52.55,12.63h0l-1.06,6.05h-.73l-1.17-6.05h0v6.05H48.23V9.35h1.83l1,5.25h0L52,9.35h2v9.33H52.55Z"/><path class="cls-2" d="M54.76,18.68l1.76-9.33h1.79l1.77,9.33H58.48L58.19,17H56.53l-.28,1.71Zm2-3H58L57.36,12h0Z"/><path class="cls-2" d="M59.88,9.35H64v1.28H62.75v8H61.17v-8H59.88Z"/><path class="cls-2" d="M64.91,9.35h3.74v1.28H66.48V13.3H68v1.27H66.48V17.4h2.17v1.28H64.91Z"/><path class="cls-2" d="M35.39,31.9l1.76-9.33h1.79l1.77,9.33H39.1l-.29-1.71H37.15l-.28,1.71Zm2-3h1.25L38,25.2h0Z"/><path class="cls-2" d="M41.16,29.49V25c0-1.46.69-2.52,2.34-2.52s2.21,1,2.21,2.34v1.1H44.29V24.68c0-.58-.19-.91-.76-.91s-.8.4-.8,1v5c0,.56.23,1,.8,1s.76-.36.76-.91V28.08h1.43v1.61C45.72,31,45.17,32,43.5,32A2.21,2.21,0,0,1,41.16,29.49Z"/><path class="cls-2" d="M46.26,22.58h4.17v1.28H49.14v8H47.56v-8H46.26Z"/><path class="cls-2" d="M51.3,22.58h1.57V31.9H51.3Z"/><path class="cls-2" d="M53.91,29.49V25a2.38,2.38,0,1,1,4.75,0v4.51a2.38,2.38,0,1,1-4.75,0Zm3.18.25v-5c0-.56-.25-1-.81-1s-.8.4-.8,1v5c0,.56.25,1,.8,1S57.09,30.31,57.09,29.74Z"/><path class="cls-2" d="M61,26V31.9H59.69V22.58h1.54l1.69,5.35V22.58h1.31V31.9H62.85Z"/></g><g id="NUMBERS_ONLY" data-name="NUMBERS ONLY"><polygon class="cls-2" points="17.26 8.49 17.26 30.9 13.49 30.9 13.49 13.75 13.45 13.75 10.81 16.49 10.78 16.49 10.78 12.55 14.25 8.49 17.26 8.49"/><path class="cls-2" d="M29.69,13.35V15.3a3.59,3.59,0,0,1-2.58,3.64c1.88.43,2.78,1.75,2.78,3.8V26c0,3.11-1.65,5.12-5.45,5.12S19.24,29,19.24,25.58V22.64h3.44v3.21c0,1.32.46,2.18,1.75,2.18s1.68-.83,1.68-2v-3.7c0-1.19-.53-1.82-1.85-1.82H22.68V17.61H24.1c1.22,0,2-.63,2-1.82V13.38c0-1.22-.43-2-1.62-2s-1.62.79-1.62,2.18v2.28H19.44v-2c0-3.31,1.36-5.62,5.26-5.62,3.47,0,5,2,5,5.13"/></g></svg>