<svg xmlns="http://www.w3.org/2000/svg" viewBox="0 0 111.76 111.77"><defs><style>.cls-1{fill:#fac315;}.cls-2{fill:#fff;}</style></defs><title>Artboard 15</title><g id="English"><rect class="cls-1" x="-1.31" y="-1.83" width="116.82" height="118.33"/><path class="cls-2" d="M55.92,54.15A16.38,16.38,0,1,0,72.3,70.53,16.38,16.38,0,0,0,55.92,54.15m-1.21,6.47a1.22,1.22,0,0,1,2.43,0v5.62a1.22,1.22,0,0,1-2.43,0Zm1.22,18.3a8.52,8.52,0,0,1-2.53-16.66v3.17a5.58,5.58,0,1,0,5,0V62.26a8.52,8.52,0,0,1-2.52,16.66"/><path class="cls-2" d="M37.12,70.39A1.37,1.37,0,0,0,35.86,69H28.69a1.35,1.35,0,0,0,0,2.69h7.17a1.37,1.37,0,0,0,1.26-1.35"/><path class="cls-2" d="M84.43,70.39A1.37,1.37,0,0,0,83.18,69H76a1.35,1.35,0,0,0,0,2.69h7.17a1.37,1.37,0,0,0,1.26-1.35"/><path class="cls-2" d="M55.93,51.58a1.37,1.37,0,0,0,1.34-1.26V43.15a1.35,1.35,0,0,0-2.69,0v7.17a1.37,1.37,0,0,0,1.35,1.26"/><path class="cls-2" d="M55.93,98.9a1.37,1.37,0,0,0,1.34-1.26V90.47a1.35,1.35,0,0,0-2.69,0v7.17a1.37,1.37,0,0,0,1.35,1.26"/><path class="cls-2" d="M39.6,61a1.37,1.37,0,0,0-.42-1.79L33,55.69A1.35,1.35,0,0,0,31.62,58l6.23,3.56A1.37,1.37,0,0,0,39.6,61"/><path class="cls-2" d="M80.67,84.55a1.37,1.37,0,0,0-.42-1.79L74,79.19a1.35,1.35,0,0,0-1.34,2.34l6.23,3.56a1.37,1.37,0,0,0,1.76-.55"/><path class="cls-2" d="M65.27,54.07a1.37,1.37,0,0,0,1.79-.42l3.56-6.23a1.35,1.35,0,0,0-2.34-1.34l-3.56,6.22a1.37,1.37,0,0,0,.55,1.76"/><path class="cls-2" d="M41.77,95.13a1.37,1.37,0,0,0,1.79-.43l3.56-6.22a1.35,1.35,0,0,0-2.34-1.34l-3.56,6.23a1.37,1.37,0,0,0,.55,1.76"/><path class="cls-2" d="M46.55,54.09a1.37,1.37,0,0,0,.54-1.76l-3.58-6.22a1.35,1.35,0,0,0-2.33,1.34l3.58,6.22a1.37,1.37,0,0,0,1.8.42"/><path class="cls-2" d="M70.14,95.1a1.37,1.37,0,0,0,.54-1.76L67.1,87.12a1.35,1.35,0,0,0-2.33,1.34l3.58,6.22a1.37,1.37,0,0,0,1.8.42"/><path class="cls-2" d="M72.23,61a1.37,1.37,0,0,0,1.76.54L80.21,58a1.35,1.35,0,0,0-1.34-2.34l-6.22,3.58a1.37,1.37,0,0,0-.42,1.8"/><path class="cls-2" d="M31.22,84.6a1.37,1.37,0,0,0,1.76.54l6.22-3.58a1.35,1.35,0,0,0-1.34-2.34l-6.22,3.58a1.37,1.37,0,0,0-.42,1.8"/><path class="cls-2" d="M31.69,18.49l1.72-9.13h1.75l1.74,9.13H35.33L35,16.82H33.42l-.27,1.67Zm1.93-2.9h1.23l-.61-3.66h0Z"/><path class="cls-2" d="M37.47,9.36h3.6v1.25H39v2.61h1.54v1.24H39v4H37.47Z"/><path class="cls-2" d="M41.67,9.36h3.6v1.25H43.21v2.61h1.54v1.24H43.21v4H41.67Z"/><path class="cls-2" d="M45.74,16.13V11.71a2.33,2.33,0,1,1,4.65,0v4.42a2.33,2.33,0,1,1-4.65,0Zm3.11.24v-4.9c0-.55-.24-.94-.79-.94s-.78.39-.78.94v4.9c0,.55.24.94.78.94S48.86,16.93,48.86,16.37Z"/><path class="cls-2" d="M52.74,14.3v4.19H51.2V9.36h2.24c1.55,0,2.11.77,2.11,2v1.17c0,1-.35,1.56-1.23,1.76l1.47,4.15H54.18Zm0-3.69v2.84h.51A.66.66,0,0,0,54,12.7V11.35c0-.5-.23-.74-.75-.74Z"/><path class="cls-2" d="M60.91,11.81V16c0,1.4-.58,2.45-2.22,2.45H56.32V9.36h2.37C60.34,9.36,60.91,10.39,60.91,11.81ZM58.5,17.24c.63,0,.88-.38.88-.93V11.52a.8.8,0,0,0-.88-.92h-.65v6.63Z"/><path class="cls-2" d="M61.28,18.49,63,9.36h1.75l1.74,9.13H64.92l-.28-1.67H63l-.27,1.67Zm1.93-2.9h1.23l-.61-3.66h0Z"/><path class="cls-2" d="M67.06,9.36h2.22c1.54,0,2,.71,2,2v.93a1.33,1.33,0,0,1-.92,1.45,1.39,1.39,0,0,1,1.15,1.52v1.21c0,1.29-.58,2-2.11,2H67.06Zm1.54,3.85h.54a.65.65,0,0,0,.73-.74V11.35a.65.65,0,0,0-.74-.74h-.53Zm0,1.17v2.86h.67a.66.66,0,0,0,.75-.74V15.12c0-.48-.23-.74-.77-.74Z"/><path class="cls-2" d="M72.26,9.36H73.8v7.88h1.83v1.25H72.26Z"/><path class="cls-2" d="M76.26,9.36h3.66v1.25H77.8v2.61h1.52v1.24H77.8v2.77h2.13v1.25H76.26Z"/><path class="cls-2" d="M81.79,18.49l1.72-9.13h1.75L87,18.49H85.42l-.28-1.67H83.51l-.27,1.67Zm1.93-2.9h1.23l-.61-3.66h0Z"/><path class="cls-2" d="M88.86,12.75v5.74H87.57V9.36h1.51l1.66,5.24V9.36H92v9.13H90.66Z"/><path class="cls-2" d="M97.41,11.81V16c0,1.4-.58,2.45-2.22,2.45H92.82V9.36h2.37C96.83,9.36,97.41,10.39,97.41,11.81ZM95,17.24c.63,0,.88-.38.88-.93V11.52a.8.8,0,0,0-.88-.92h-.65v6.63Z"/><path class="cls-2" d="M31.92,29.54v-4.4a2.14,2.14,0,0,1,2.28-2.45c1.69,0,2.16.94,2.16,2.28V26H35V24.85c0-.56-.19-.88-.74-.88s-.78.39-.78.94v4.88c0,.55.23.94.78.94s.74-.35.74-.88V28.16h1.39v1.57c0,1.3-.54,2.27-2.16,2.27A2.15,2.15,0,0,1,31.92,29.54Z"/><path class="cls-2" d="M37.32,22.8h1.53v7.84h1.82v1.25H37.32Z"/><path class="cls-2" d="M41.51,22.8h3.65V24H43v2.6h1.52v1.23H43v2.76h2.12v1.25H41.51Z"/><path class="cls-2" d="M45.86,31.89l1.72-9.09h1.74l1.73,9.09H49.48l-.28-1.66H47.58l-.27,1.66ZM47.78,29H49l-.6-3.65h0Z"/><path class="cls-2" d="M53.1,26.18v5.71H51.81V22.8h1.5L55,28V22.8h1.27v9.09H54.9Z"/><path class="cls-2" d="M60.32,22.8H64V24H61.85v2.6h1.52v1.23H61.85v2.76H64v1.25H60.32Z"/><path class="cls-2" d="M66.17,26.18v5.71H64.88V22.8h1.5L68,28V22.8h1.27v9.09H68Z"/><path class="cls-2" d="M70.3,22.8h3.65V24H71.83v2.6h1.52v1.23H71.83v2.76h2.12v1.25H70.3Z"/><path class="cls-2" d="M76.4,27.72v4.17H74.87V22.8h2.23c1.54,0,2.1.76,2.1,2V26c0,1-.35,1.55-1.22,1.76l1.46,4.13H77.83Zm0-3.67v2.83h.51a.66.66,0,0,0,.75-.75V24.78c0-.5-.23-.74-.75-.74Z"/><path class="cls-2" d="M82.47,27h2.17v4.85h-1.1v-1A1.38,1.38,0,0,1,82.08,32c-1.31,0-1.92-1-1.92-2.45v-4.4a2.15,2.15,0,0,1,2.29-2.45c1.69,0,2.19.94,2.19,2.28v.8H83.25v-.93c0-.56-.21-.88-.76-.88s-.79.39-.79.94v4.88c0,.55.23.94.75.94s.75-.28.75-.87V28.24h-.72Z"/><path class="cls-2" d="M88.59,28.43v3.46H87.07V28.43l-1.7-5.63H87l.93,3.45h0l.93-3.45h1.46Z"/></g><g id="NUMBERS_ONLY" data-name="NUMBERS ONLY"><polygon class="cls-2" points="14.63 12.21 20.45 12.21 15.42 31.55 19.16 31.55 24.09 12.6 24.09 9.13 14.63 9.13 14.63 12.21"/></g></svg>